<svg width="77" height="100" viewBox="0 0 77 100" fill="none" xmlns="http://www.w3.org/2000/svg">
<path d="M76.3252 22.6148C75.9719 15.5477 73.8517 9.89399 69.9648 6.36042C65.3712 2.12014 58.6574 0 49.4701 0H1.41357V19.788H42.403C48.0567 19.788 50.8835 22.6148 50.8835 28.2686V31.0954C50.8835 36.7491 48.0567 39.576 42.403 39.576H15.5478V59.364H45.2298C50.8835 59.364 53.7104 62.1908 53.7104 67.8445V71.0247L64.6645 47.7032C63.9577 47.3498 62.8977 46.9965 62.191 46.9965C63.6044 46.6431 64.6645 45.9364 65.7245 45.2297L76.3252 22.6148Z" fill="#65B459"/>
<path d="M0 78.4453V97.5266C14.1343 98.94 27.5618 99.6467 39.9293 100L49.1166 79.8587C48.4099 80.2121 47.3498 80.2121 46.2898 80.2121C36.3958 80.5655 20.8481 79.8587 0 78.4453Z" fill="#65B459"/>
</svg>
