<svg width="172" height="99" viewBox="0 0 172 99" fill="none" xmlns="http://www.w3.org/2000/svg">
<path fill-rule="evenodd" clip-rule="evenodd" d="M66.5184 9.56109L61.7848 4.89988L87.0084 0.672264C88.3772 0.443418 89.7521 0.244684 91.1269 0.118217C92.2364 0.0158393 93.352 -0.0443831 94.4615 0.0399283C96.4756 0.190484 98.4233 0.798731 99.979 2.10556C101.378 3.27387 102.289 4.82159 102.765 6.57406C102.97 7.32684 103.078 8.10371 103.151 8.88058C104.297 9.4286 105.388 10.073 106.401 10.8318C108.982 12.7709 111.442 14.9329 113.595 17.3418C114.445 18.2994 115.307 19.3111 115.977 20.4011L116.978 22.003L116.393 23.7977C115.247 27.3267 113.721 30.8015 112.099 34.1379C111.768 34.8304 111.418 35.5169 111.068 36.2155C111.068 36.2155 101.487 55.294 87.1953 62.2135L85.4828 63.0025L83.7763 62.2135C70.5524 57.7029 60.5969 37.697 58.8723 34.1379C57.2502 30.8015 55.7246 27.3267 54.5789 23.7977L54 22.003L54.995 20.4011C55.6703 19.3171 56.5266 18.2933 57.3768 17.3418C59.5295 14.9329 61.9898 12.7709 64.5707 10.8318C65.197 10.3681 65.843 9.94651 66.5184 9.56109Z" fill="#00C297"/>
<path fill-rule="evenodd" clip-rule="evenodd" d="M85.4828 7.27861C89.6134 7.22441 94.6183 7.85675 98.5439 9.01302C100.932 9.71762 103.344 10.7294 105.34 12.2349C107.818 14.1018 110.212 16.1975 112.28 18.5161C113.034 19.3532 113.884 20.3649 114.487 21.3285L115.054 22.2379L114.722 23.2616C113.631 26.6401 112.069 30.1872 110.526 33.373C107.263 40.0878 103.103 46.7725 97.9167 52.1684C94.6183 55.6071 90.8013 58.6182 86.4536 60.6176L85.4828 61.0693L84.512 60.6176C80.1643 58.6122 76.3533 55.6011 73.0489 52.1684C67.8691 46.7725 63.7084 40.0878 60.4461 33.373C58.9024 30.1872 57.3406 26.6401 56.2492 23.2616L55.9176 22.2379L56.4844 21.3285C57.0874 20.3649 57.9376 19.3592 58.6914 18.5161C60.7597 16.1975 63.1536 14.1018 65.6319 12.2349C67.6339 10.7354 70.0459 9.71762 72.4278 9.01302C76.3473 7.85675 81.3522 7.22441 85.4828 7.27861Z" fill="#007E94"/>
<path fill-rule="evenodd" clip-rule="evenodd" d="M85.4828 51.6022C87.6235 50.0665 90.7591 47.495 95.1188 43.1951C103.362 35.0591 107.149 26.0859 108.162 23.4L110.501 22.9243L108.451 22.5991C108.451 22.5991 104.514 17.9258 100.896 15.4748C94.1962 10.934 76.7875 10.934 70.0821 15.4748C66.4701 17.9258 62.5325 22.5991 62.5325 22.5991L60.4763 22.9243L62.8159 23.4C63.8229 26.0859 67.6098 35.0591 75.8529 43.1951C80.2126 47.489 83.3422 50.0605 85.4828 51.6022ZM103.947 14.0776C110.158 18.7509 112.521 22.5449 112.521 22.5449C112.521 22.5449 103.567 50.1689 85.4828 58.5217C67.3987 50.1689 58.4502 22.5449 58.4502 22.5449C58.4502 22.5449 60.8139 18.7509 67.0189 14.0776C74.9483 8.10955 96.0173 8.10955 103.947 14.0776Z" fill="white"/>
<path fill-rule="evenodd" clip-rule="evenodd" d="M85.7783 12.0617L85.6215 12.0557H85.4828H85.3441L85.1934 12.0617C79.2598 12.0978 73.3745 13.23 70.0761 15.4643C66.4641 17.9153 62.5265 22.5886 62.5265 22.5886L60.4702 22.9138C67.0309 14.3923 73.0489 11.2848 85.1391 10.7428V10.7188C85.2537 10.7248 85.3682 10.7308 85.4828 10.7308C85.5974 10.7308 85.712 10.7248 85.8265 10.7188V10.7428C97.9288 11.2848 103.935 14.3923 110.495 22.9138L108.445 22.5886C108.445 22.5886 104.508 17.9153 100.89 15.4643C97.5972 13.23 91.7058 12.0978 85.7783 12.0617Z" fill="#00C297"/>
<path fill-rule="evenodd" clip-rule="evenodd" d="M85.4828 54.9285C74.7976 48.3763 66.7897 38.6202 60.4702 22.9203L58.4502 22.5469C58.4502 22.5469 67.3987 50.1709 85.4828 58.5237C103.567 50.1709 112.521 22.5469 112.521 22.5469L110.495 22.9203C104.182 38.6202 94.4193 49.8216 85.4828 54.9285Z" fill="#00C297"/>
<path fill-rule="evenodd" clip-rule="evenodd" d="M72.8559 13.0229L65.4631 5.94679L87.2978 2.38162C88.6305 2.16482 89.9571 1.97211 91.2897 1.85768C92.3028 1.76735 93.3279 1.71315 94.3289 1.7794C96.0052 1.90586 97.5971 2.38162 98.8514 3.39938C99.9609 4.30271 100.678 5.50114 101.07 6.88626C101.294 7.68721 101.384 8.52431 101.432 9.36742C101.499 10.4273 101.487 11.4993 101.456 12.5652L101.336 16.2027L101.39 16.1906L100.986 28.5181C100.95 29.5841 100.89 30.6621 100.751 31.734C100.648 32.5892 100.504 33.4443 100.238 34.2875C99.78 35.7328 99.0323 37.0697 97.971 38.232C96.8434 39.4786 95.4565 40.4121 93.9128 41.0504C92.9239 41.4599 91.8927 41.7189 90.8737 41.9598C89.4325 42.291 87.9792 42.55 86.5381 42.7848C85.0607 43.0257 83.5773 43.2485 82.1 43.3931C81.0568 43.4955 80.0075 43.5737 78.9824 43.4834C77.3784 43.3449 75.8951 42.833 74.6951 41.8574C73.5735 40.9481 72.8439 39.7496 72.4398 38.3585C72.2107 37.5636 72.1142 36.7204 72.06 35.8833C71.9876 34.8234 71.9936 33.7575 72.0298 32.6855L72.5544 16.7266C72.5906 15.6607 72.6509 14.5827 72.7896 13.5107C72.8077 13.3541 72.8318 13.1855 72.8559 13.0229Z" fill="#007E94"/>
<path fill-rule="evenodd" clip-rule="evenodd" d="M98.3147 19.5806L89.9692 20.9476L86.0677 27.0542L89.9692 26.4158L89.8184 31.1914C89.7943 31.9081 89.6737 32.8837 89.0827 33.4859C88.4797 34.1002 87.3401 34.3471 86.5984 34.4736C85.8446 34.594 84.6808 34.7265 84.114 34.2989C83.5592 33.8834 83.505 32.9319 83.5231 32.2213L84.12 14.01C84.1441 13.2934 84.2647 12.3177 84.8557 11.7155C85.4647 11.0952 86.6345 10.8423 87.3762 10.7219C88.124 10.6014 89.2636 10.481 89.8244 10.9025C90.3852 11.3181 90.4395 12.2696 90.4154 12.9802L90.331 15.5517L98.4414 14.2268L98.4896 12.7815C98.5197 11.7938 98.5318 10.8062 98.4715 9.84261C98.4353 9.20425 98.369 8.51772 98.2002 7.92151C97.9529 7.03022 97.5067 6.27142 96.8132 5.70533C95.9992 5.04288 94.9258 4.75984 93.8103 4.67553C92.9902 4.6153 92.1038 4.66348 91.2596 4.74177C90.0114 4.85017 88.7511 5.03686 87.4968 5.24162L87.4365 5.25366L76.6729 7.00011L71.8489 7.78903L76.0639 11.8239C75.9071 12.396 75.8167 12.9983 75.7503 13.5644C75.6237 14.552 75.5694 15.5457 75.5393 16.5273L75.0147 32.4862C74.9845 33.4618 74.9785 34.4495 75.0388 35.407C75.081 36.0454 75.1473 36.7259 75.3162 37.3161C75.5815 38.2254 76.0337 38.9963 76.7393 39.5684C77.5171 40.2007 78.488 40.5139 79.5553 40.6102C80.3513 40.6765 81.2919 40.5982 82.1181 40.5199C83.5231 40.3814 84.9461 40.1646 86.3572 39.9357C87.732 39.7129 89.1189 39.466 90.4938 39.1528C91.3018 38.9662 92.2244 38.7433 93.0143 38.4181C94.0816 37.9725 95.0525 37.3402 95.8545 36.4549C96.5962 35.6359 97.0967 34.7145 97.4163 33.7208C97.6213 33.0644 97.7358 32.3537 97.8142 31.6973C97.9409 30.7097 97.9951 29.716 98.0253 28.7344L98.3147 19.5806Z" fill="white"/>
<path d="M0.831889 79.416H17.1519L16.32 82.559H11.4267L7.26335 98.078H0.757335L4.92071 82.559H0L0.831889 79.416Z" fill="#00C398"/>
<path d="M34.1586 79.416C34.4725 79.416 34.7707 79.4434 35.0454 79.4944C35.3593 79.561 35.6183 79.6512 35.8263 79.753C36.0735 79.8589 36.2932 80.0274 36.5012 80.1685C36.6699 80.337 36.8661 80.6231 36.9681 80.8699C37.0741 81.1168 37.1644 81.3912 37.2036 81.7008C37.2703 82.0143 37.2938 82.4179 37.2546 82.7941C37.2154 83.041 37.1879 83.3663 37.1251 83.6798C37.0584 83.9933 36.9956 84.3696 36.8897 84.7183L34.755 92.7248C34.653 93.101 34.5353 93.4929 34.3901 93.8417C34.2841 94.1944 34.1154 94.5196 33.9741 94.8292C33.8329 95.2054 33.6092 95.5307 33.4012 95.8442C33.154 96.1577 32.9068 96.4556 32.6988 96.7025C32.3221 97.0787 31.8395 97.404 31.4235 97.6117C31.1488 97.7567 30.8271 97.886 30.5131 97.9252C30.1992 97.9644 29.8735 98.031 29.5243 98.031H18.592C18.3173 98.031 18.0191 98.0192 17.8111 97.9526C17.5639 97.9134 17.3284 97.7959 17.1597 97.694C16.9125 97.549 16.6771 97.3805 16.5358 97.1728C16.3671 96.965 16.2101 96.7456 16.1473 96.4713C16.0806 96.2636 16.0021 96.0167 15.9629 95.7698C15.9237 95.5229 15.8726 95.2368 15.9119 94.9625C15.9119 94.7156 15.9001 94.4569 15.9629 94.1826C16.0021 93.9357 16.0531 93.6771 16.0924 93.4302L18.537 84.2285C18.643 83.8758 18.7725 83.476 18.8745 83.1625C19.0197 82.849 19.1727 82.5237 19.3179 82.2533C19.4631 81.9398 19.6946 81.6694 19.8634 81.3951C20.0321 81.1208 20.2793 80.8895 20.4873 80.721C20.6953 80.5133 20.9425 80.3448 21.1897 80.1763C21.4369 80.0313 21.6959 79.8902 21.9431 79.7883C22.257 79.6825 22.6063 79.5924 22.9594 79.5297C23.2733 79.4905 23.6618 79.4239 23.9757 79.4239H34.1586V79.416ZM26.6637 82.5081C26.495 82.5081 26.338 82.5473 26.1967 82.5864C26.0515 82.6531 25.8828 82.755 25.7808 82.8216C25.6356 82.9235 25.4943 83.0959 25.3923 83.237C25.3256 83.4055 25.2236 83.5897 25.1569 83.7308L22.3983 94.0494C22.359 94.1512 22.3983 94.2845 22.3983 94.3864C22.4375 94.4922 22.516 94.6333 22.5552 94.6999C22.6573 94.7665 22.775 94.8684 22.8417 94.9076C22.9476 94.9703 23.0771 95.0095 23.1792 95.0095H26.6676C26.7696 95.0095 26.9266 94.9703 27.0325 94.9076C27.1777 94.8684 27.319 94.7508 27.421 94.649C27.527 94.5823 27.6408 94.4412 27.7075 94.3354C27.7742 94.2296 27.8527 94.0768 27.8919 93.971L30.7015 83.4956C30.7407 83.3898 30.729 83.237 30.729 83.1312C30.6897 83.0254 30.6387 82.8843 30.572 82.8177C30.5092 82.751 30.415 82.6491 30.313 82.61C30.2071 82.5708 30.105 82.5041 29.9991 82.5041H26.6637V82.5081Z" fill="#00C398"/>
<path d="M55.3796 79.4707C55.6543 79.4707 55.8858 79.4981 56.1331 79.4981C56.3803 79.5373 56.6 79.6157 56.8119 79.6549C57.0591 79.7215 57.3181 79.8117 57.4868 79.9135C57.6556 80.0154 57.84 80.1879 57.9813 80.329C58.1225 80.47 58.2559 80.6817 58.2952 80.8227C58.4011 80.9913 58.4639 81.2264 58.5032 81.3949C58.5424 81.6026 58.5699 81.8103 58.5306 82.018C58.5306 82.2257 58.4914 82.4609 58.4522 82.6686L57.5143 86.0741C57.4751 86.321 57.3848 86.5562 57.2789 86.7247C57.1768 86.8932 57.0042 87.1009 56.8629 87.2459C56.7217 87.4144 56.5647 87.532 56.396 87.6339C56.2547 87.7397 56.0193 87.8808 55.8505 87.9474C55.7446 87.9866 55.5523 88.0649 55.3836 88.1041C55.2384 88.1708 55.0579 88.1943 54.8891 88.2335C54.6145 88.3001 54.3555 88.3354 54.1083 88.3354C53.8611 88.3354 53.6138 88.3628 53.4059 88.3628C53.6531 88.402 53.9003 88.4529 54.1083 88.4921C54.3555 88.5587 54.5752 88.6371 54.7832 88.6763C55.0971 88.739 55.4071 88.8958 55.6151 89.0408C55.721 89.1074 55.8231 89.1818 55.929 89.2485C55.9918 89.3151 56.0977 89.4444 56.1644 89.5071C56.2704 89.6482 56.3724 89.8598 56.3724 90.0283C56.3724 90.236 56.3842 90.4712 56.3214 90.6789L55.2031 94.8878C55.101 95.2013 54.9951 95.4992 54.8891 95.7461C54.744 96.0204 54.5635 96.2399 54.3947 96.4476C54.2535 96.6161 54.0573 96.8238 53.8493 96.9688C53.6413 97.1099 53.4333 97.3058 53.2254 97.4116C53.0174 97.5135 52.7976 97.6311 52.6289 97.6703C52.4209 97.7369 52.1855 97.8388 51.9775 97.878C51.7303 97.9446 51.4439 98.0073 51.1966 98.0073C50.9494 98.0465 50.6748 98.0583 50.4668 98.0583H36.4384L41.3827 79.4746H55.3796V79.4707ZM45.0987 89.9696L43.7449 95.0132H47.9593C48.0614 95.0132 48.1791 94.974 48.2458 94.9349C48.3517 94.8957 48.4655 94.7663 48.5322 94.6997C48.6382 94.5939 48.7284 94.492 48.7912 94.3862C48.8305 94.2804 48.8815 94.1511 48.9207 94.0492L49.8311 90.671V90.4124C49.7918 90.3497 49.7408 90.2713 49.7016 90.2047C49.6349 90.1655 49.5329 90.0871 49.4662 90.0479C49.4269 90.0087 49.2974 89.9696 49.2307 89.9696H45.0987ZM47.1039 82.5353L45.9345 86.9285H50.0469C50.1529 86.9285 50.2667 86.9167 50.3334 86.8501C50.4786 86.8109 50.5806 86.7325 50.6473 86.6659L50.9063 86.4072C50.9965 86.3014 51.0475 86.2113 51.0632 86.1212L51.8441 83.2368C51.8441 83.1702 51.8559 83.0409 51.8206 82.9782C51.7813 82.9115 51.7539 82.8371 51.6911 82.7705C51.6244 82.7313 51.5459 82.6529 51.4831 82.6137C51.4203 82.5745 51.3144 82.5353 51.2477 82.5353H47.1039Z" fill="#00C398"/>
<path d="M62.3134 79.4434H76.7067L75.8983 82.457H68.0895L66.8927 86.9285H74.4935L73.6616 89.9696H66.0608L64.707 95.0368H72.6963L71.888 98.0505H57.3377L62.3134 79.4434Z" fill="#00C398"/>
<mask id="path-12-inside-1_116_1609" fill="white">
<path d="M91.6454 98.4221H77.4365C77.0677 98.4221 76.7184 98.3829 76.432 98.3045C76.1769 98.2692 75.9219 98.1399 75.7139 98.0341L75.6315 97.991C75.3568 97.8068 75.1214 97.6108 74.9369 97.4266C74.7407 97.1523 74.6191 96.9093 74.5132 96.6977L74.4347 96.4743C74.3797 96.3019 74.3248 96.1334 74.2895 95.961C74.2502 95.7572 74.2071 95.4633 74.2071 95.2164C74.2306 95.04 74.2385 94.895 74.2463 94.7539C74.2581 94.5893 74.2659 94.4247 74.2895 94.2797C74.3287 93.9976 74.3837 93.6723 74.4543 93.3901L76.9303 84.1022C76.9774 83.8789 77.0638 83.6398 77.1501 83.4047C77.1854 83.3106 77.2207 83.2126 77.2482 83.1225C77.413 82.762 77.5739 82.4249 77.723 82.1702C77.8015 81.9782 77.9702 81.7352 78.1233 81.5236L78.2331 81.3668C78.4607 81.0337 78.7629 80.7241 78.8492 80.6379C79.0493 80.3949 79.3161 80.1794 79.532 80.0069L79.6144 79.9482C79.7713 79.8659 79.9244 79.7679 80.0735 79.6738C80.1794 79.6072 80.2815 79.5445 80.3796 79.4857C80.666 79.3642 80.9603 79.2663 81.2546 79.1879L81.5254 79.1409C81.7255 79.1056 81.9295 79.0703 82.1532 79.0703H95.9893L94.9847 82.8247H85.3473C85.2963 82.8247 85.159 82.8521 85.0884 82.8795C84.9824 82.9266 84.8294 82.9971 84.7391 83.0559C84.5939 83.1264 84.5115 83.197 84.4919 83.2244L84.4134 83.342C84.3821 83.389 84.3271 83.4674 84.3153 83.4987L81.49 94.0955C81.4626 94.1739 81.4547 94.2327 81.4587 94.2484C81.494 94.3424 81.5175 94.4051 81.5528 94.4404C81.596 94.4835 81.6745 94.5619 81.7294 94.6089L81.7687 94.6246C81.8079 94.6403 81.8746 94.6677 81.9021 94.6716H84.5979C84.6881 94.6716 84.7705 94.656 84.8333 94.6285C84.8843 94.605 84.9667 94.5501 85.0138 94.5149C85.0648 94.4796 85.1119 94.4443 85.1551 94.4208C85.21 94.3895 85.2649 94.3581 85.3473 94.2288L85.3984 94.1622C85.4455 94.1151 85.4886 94.0407 85.52 93.9584L86.4775 90.349H83.9269L84.9353 86.6182H94.8121L91.6454 98.4221ZM82.1454 79.811C81.9766 79.811 81.8118 79.8423 81.6431 79.8698C81.5607 79.8855 81.4783 79.8972 81.3919 79.9129C81.1761 79.9717 80.9093 80.0579 80.7013 80.148C80.6503 80.1794 80.5561 80.2421 80.458 80.3009C80.2932 80.4028 80.1245 80.5086 79.9479 80.6026C79.787 80.7437 79.5594 80.924 79.3829 81.1356C79.2848 81.2336 79.0218 81.504 78.8335 81.7822L78.7158 81.9468C78.5863 82.131 78.4411 82.3387 78.3744 82.4955C78.2174 82.7737 78.0644 83.0872 77.9271 83.389C77.9114 83.4517 77.8721 83.5497 77.8368 83.6555C77.7622 83.8632 77.6838 84.0748 77.6406 84.2747L75.1645 93.5743C75.1057 93.8251 75.0547 94.1269 75.0154 94.3895C74.9958 94.5188 74.988 94.6638 74.9801 94.8049C74.9683 94.9656 74.9605 95.1262 74.9369 95.2712C74.9409 95.3692 74.9644 95.5847 75.0115 95.8277C75.039 95.9688 75.0861 96.106 75.1292 96.247L75.1802 96.4116C75.2626 96.5645 75.3725 96.78 75.4942 96.9603C75.604 97.0583 75.8081 97.2268 75.9964 97.36L76.0396 97.3796C76.2122 97.4698 76.3928 97.5599 76.5654 97.5834C76.8362 97.6539 77.1187 97.6853 77.4248 97.6853H91.0646L93.835 87.355H85.4925L84.8843 89.6044H87.4349L86.2185 94.1778C86.1635 94.3307 86.0811 94.4992 85.9438 94.652C85.8104 94.8558 85.6613 94.993 85.4925 95.0714C85.5004 95.0674 85.4729 95.091 85.4337 95.1184C85.3277 95.1929 85.2179 95.2712 85.1041 95.3143C84.9667 95.377 84.7823 95.4162 84.5861 95.4162H81.8785C81.7255 95.4162 81.5882 95.3614 81.4783 95.3143L81.3527 95.2595C81.2664 95.2085 81.1644 95.1145 81.0192 94.9695C80.8701 94.8166 80.8073 94.6481 80.7641 94.5345C80.6542 94.2445 80.7484 93.9584 80.7798 93.8761L83.6051 83.2793C83.66 83.1303 83.7307 83.0245 83.7974 82.9305L83.8562 82.8403C83.9739 82.6483 84.2055 82.4916 84.382 82.4132C84.4527 82.3661 84.641 82.276 84.798 82.2055C84.951 82.1467 85.1786 82.0957 85.3434 82.0957H94.4001L95.0083 79.8227H82.1454V79.811Z"/>
</mask>
<path d="M91.6454 98.4221H77.4365C77.0677 98.4221 76.7184 98.3829 76.432 98.3045C76.1769 98.2692 75.9219 98.1399 75.7139 98.0341L75.6315 97.991C75.3568 97.8068 75.1214 97.6108 74.9369 97.4266C74.7407 97.1523 74.6191 96.9093 74.5132 96.6977L74.4347 96.4743C74.3797 96.3019 74.3248 96.1334 74.2895 95.961C74.2502 95.7572 74.2071 95.4633 74.2071 95.2164C74.2306 95.04 74.2385 94.895 74.2463 94.7539C74.2581 94.5893 74.2659 94.4247 74.2895 94.2797C74.3287 93.9976 74.3837 93.6723 74.4543 93.3901L76.9303 84.1022C76.9774 83.8789 77.0638 83.6398 77.1501 83.4047C77.1854 83.3106 77.2207 83.2126 77.2482 83.1225C77.413 82.762 77.5739 82.4249 77.723 82.1702C77.8015 81.9782 77.9702 81.7352 78.1233 81.5236L78.2331 81.3668C78.4607 81.0337 78.7629 80.7241 78.8492 80.6379C79.0493 80.3949 79.3161 80.1794 79.532 80.0069L79.6144 79.9482C79.7713 79.8659 79.9244 79.7679 80.0735 79.6738C80.1794 79.6072 80.2815 79.5445 80.3796 79.4857C80.666 79.3642 80.9603 79.2663 81.2546 79.1879L81.5254 79.1409C81.7255 79.1056 81.9295 79.0703 82.1532 79.0703H95.9893L94.9847 82.8247H85.3473C85.2963 82.8247 85.159 82.8521 85.0884 82.8795C84.9824 82.9266 84.8294 82.9971 84.7391 83.0559C84.5939 83.1264 84.5115 83.197 84.4919 83.2244L84.4134 83.342C84.3821 83.389 84.3271 83.4674 84.3153 83.4987L81.49 94.0955C81.4626 94.1739 81.4547 94.2327 81.4587 94.2484C81.494 94.3424 81.5175 94.4051 81.5528 94.4404C81.596 94.4835 81.6745 94.5619 81.7294 94.6089L81.7687 94.6246C81.8079 94.6403 81.8746 94.6677 81.9021 94.6716H84.5979C84.6881 94.6716 84.7705 94.656 84.8333 94.6285C84.8843 94.605 84.9667 94.5501 85.0138 94.5149C85.0648 94.4796 85.1119 94.4443 85.1551 94.4208C85.21 94.3895 85.2649 94.3581 85.3473 94.2288L85.3984 94.1622C85.4455 94.1151 85.4886 94.0407 85.52 93.9584L86.4775 90.349H83.9269L84.9353 86.6182H94.8121L91.6454 98.4221ZM82.1454 79.811C81.9766 79.811 81.8118 79.8423 81.6431 79.8698C81.5607 79.8855 81.4783 79.8972 81.3919 79.9129C81.1761 79.9717 80.9093 80.0579 80.7013 80.148C80.6503 80.1794 80.5561 80.2421 80.458 80.3009C80.2932 80.4028 80.1245 80.5086 79.9479 80.6026C79.787 80.7437 79.5594 80.924 79.3829 81.1356C79.2848 81.2336 79.0218 81.504 78.8335 81.7822L78.7158 81.9468C78.5863 82.131 78.4411 82.3387 78.3744 82.4955C78.2174 82.7737 78.0644 83.0872 77.9271 83.389C77.9114 83.4517 77.8721 83.5497 77.8368 83.6555C77.7622 83.8632 77.6838 84.0748 77.6406 84.2747L75.1645 93.5743C75.1057 93.8251 75.0547 94.1269 75.0154 94.3895C74.9958 94.5188 74.988 94.6638 74.9801 94.8049C74.9683 94.9656 74.9605 95.1262 74.9369 95.2712C74.9409 95.3692 74.9644 95.5847 75.0115 95.8277C75.039 95.9688 75.0861 96.106 75.1292 96.247L75.1802 96.4116C75.2626 96.5645 75.3725 96.78 75.4942 96.9603C75.604 97.0583 75.8081 97.2268 75.9964 97.36L76.0396 97.3796C76.2122 97.4698 76.3928 97.5599 76.5654 97.5834C76.8362 97.6539 77.1187 97.6853 77.4248 97.6853H91.0646L93.835 87.355H85.4925L84.8843 89.6044H87.4349L86.2185 94.1778C86.1635 94.3307 86.0811 94.4992 85.9438 94.652C85.8104 94.8558 85.6613 94.993 85.4925 95.0714C85.5004 95.0674 85.4729 95.091 85.4337 95.1184C85.3277 95.1929 85.2179 95.2712 85.1041 95.3143C84.9667 95.377 84.7823 95.4162 84.5861 95.4162H81.8785C81.7255 95.4162 81.5882 95.3614 81.4783 95.3143L81.3527 95.2595C81.2664 95.2085 81.1644 95.1145 81.0192 94.9695C80.8701 94.8166 80.8073 94.6481 80.7641 94.5345C80.6542 94.2445 80.7484 93.9584 80.7798 93.8761L83.6051 83.2793C83.66 83.1303 83.7307 83.0245 83.7974 82.9305L83.8562 82.8403C83.9739 82.6483 84.2055 82.4916 84.382 82.4132C84.4527 82.3661 84.641 82.276 84.798 82.2055C84.951 82.1467 85.1786 82.0957 85.3434 82.0957H94.4001L95.0083 79.8227H82.1454V79.811Z" fill="#00C398" stroke="#00C398" stroke-width="16" mask="url(#path-12-inside-1_116_1609)"/>
<mask id="path-13-inside-2_116_1609" fill="white">
<path d="M115.209 98.4493H107.491L106.894 93.5114H99.8388L96.2483 98.4493H92.2144L105.964 79.125H113.02L115.209 98.4493ZM108.146 97.7086H114.377L112.352 79.8657H106.341L93.6467 97.7086H95.8637L99.4542 92.7708H107.546L108.146 97.7086ZM107.408 90.392H101.161L106.392 82.6638L107.408 90.392ZM102.558 89.6513H106.565L105.913 84.6977L102.558 89.6513Z"/>
</mask>
<path d="M115.209 98.4493H107.491L106.894 93.5114H99.8388L96.2483 98.4493H92.2144L105.964 79.125H113.02L115.209 98.4493ZM108.146 97.7086H114.377L112.352 79.8657H106.341L93.6467 97.7086H95.8637L99.4542 92.7708H107.546L108.146 97.7086ZM107.408 90.392H101.161L106.392 82.6638L107.408 90.392ZM102.558 89.6513H106.565L105.913 84.6977L102.558 89.6513Z" fill="#00C398"/>
<path d="M115.209 98.4493V106.449H124.167L123.158 97.5486L115.209 98.4493ZM107.491 98.4493L99.5483 99.4087L100.399 106.449H107.491V98.4493ZM106.894 93.5114L114.836 92.5521L113.986 85.5114H106.894V93.5114ZM99.8388 93.5114V85.5114H95.7645L93.3684 88.8067L99.8388 93.5114ZM96.2483 98.4493V106.449H100.323L102.719 103.154L96.2483 98.4493ZM92.2144 98.4493L85.696 93.8113L76.7038 106.449H92.2144V98.4493ZM105.964 79.125V71.125H101.838L99.4458 74.487L105.964 79.125ZM113.02 79.125L120.969 78.2243L120.164 71.125H113.02V79.125ZM108.146 97.7086L100.204 98.6742L101.06 105.709H108.146V97.7086ZM114.377 97.7086V105.709H123.336L122.326 96.8066L114.377 97.7086ZM112.352 79.8657L120.301 78.9636L119.496 71.8657H112.352V79.8657ZM106.341 79.8657V71.8657H102.214L99.8222 75.2281L106.341 79.8657ZM93.6467 97.7086L87.128 93.071L78.1371 105.709H93.6467V97.7086ZM95.8637 97.7086V105.709H99.938L102.334 102.413L95.8637 97.7086ZM99.4542 92.7708V84.7708H95.3799L92.9839 88.066L99.4542 92.7708ZM107.546 92.7708L115.487 91.8052L114.632 84.7708H107.546V92.7708ZM107.408 90.392V98.392H116.529L115.34 89.3489L107.408 90.392ZM101.161 90.392L94.536 85.9078L86.0863 98.392H101.161V90.392ZM106.392 82.6638L114.324 81.6207L111.576 60.7313L99.7667 78.1797L106.392 82.6638ZM102.558 89.6513L95.9344 85.165L87.4775 97.6513H102.558V89.6513ZM106.565 89.6513V97.6513H115.685L114.496 88.6083L106.565 89.6513ZM105.913 84.6977L113.845 83.6547L111.099 62.7749L99.2894 80.2115L105.913 84.6977ZM115.209 90.4493H107.491V106.449H115.209V90.4493ZM115.433 97.4899L114.836 92.5521L98.9519 94.4708L99.5483 99.4087L115.433 97.4899ZM106.894 85.5114H99.8388V101.511H106.894V85.5114ZM93.3684 88.8067L89.778 93.7445L102.719 103.154L106.309 98.2162L93.3684 88.8067ZM96.2483 90.4493H92.2144V106.449H96.2483V90.4493ZM98.7327 103.087L112.483 83.763L99.4458 74.487L85.696 93.8113L98.7327 103.087ZM105.964 87.125H113.02V71.125H105.964V87.125ZM105.07 80.0257L107.26 99.35L123.158 97.5486L120.969 78.2243L105.07 80.0257ZM108.146 105.709H114.377V89.7086H108.146V105.709ZM122.326 96.8066L120.301 78.9636L104.403 80.7677L106.428 98.6107L122.326 96.8066ZM112.352 71.8657H106.341V87.8657H112.352V71.8657ZM99.8222 75.2281L87.128 93.071L100.165 102.346L112.859 84.5033L99.8222 75.2281ZM93.6467 105.709H95.8637V89.7086H93.6467V105.709ZM102.334 102.413L105.925 97.4755L92.9839 88.066L89.3934 93.0039L102.334 102.413ZM99.4542 100.771H107.546V84.7708H99.4542V100.771ZM99.604 93.7363L100.204 98.6742L116.087 96.7431L115.487 91.8052L99.604 93.7363ZM107.408 82.392H101.161V98.392H107.408V82.392ZM107.786 94.8761L113.017 87.148L99.7667 78.1797L94.536 85.9078L107.786 94.8761ZM98.4602 83.7069L99.4765 91.4351L115.34 89.3489L114.324 81.6207L98.4602 83.7069ZM102.558 97.6513H106.565V81.6513H102.558V97.6513ZM114.496 88.6083L113.845 83.6547L97.9814 85.7408L98.6328 90.6943L114.496 88.6083ZM99.2894 80.2115L95.9344 85.165L109.182 94.1375L112.537 89.184L99.2894 80.2115Z" fill="#00C398" mask="url(#path-13-inside-2_116_1609)"/>
<mask id="path-15-inside-3_116_1609" fill="white">
<path d="M148.359 98.4497H140.884L144.988 83.0404C145.028 82.9346 145.032 82.8249 145.028 82.7465C145.016 82.7152 145.004 82.6838 144.992 82.6564C144.981 82.625 144.969 82.5937 144.957 82.5662C144.906 82.4957 144.835 82.433 144.8 82.4173C144.682 82.386 144.545 82.3625 144.463 82.3625H141.806C141.755 82.3664 141.622 82.3977 141.512 82.4291C141.453 82.4448 141.386 82.4839 141.327 82.5192C141.284 82.5466 141.245 82.5702 141.21 82.5898C141.178 82.6172 141.143 82.6446 141.108 82.676C141.049 82.723 140.986 82.7739 140.915 82.8602C140.868 82.9268 140.821 83.0169 140.79 83.1815L136.634 98.4497H129.143L133.248 83.0404C133.287 82.9346 133.291 82.8249 133.287 82.7465C133.275 82.7152 133.264 82.6838 133.252 82.6564C133.24 82.625 133.228 82.5937 133.216 82.5662C133.165 82.4957 133.095 82.433 133.059 82.4173C132.942 82.386 132.804 82.3625 132.722 82.3625H130.065C130.014 82.3664 129.881 82.3977 129.771 82.4291C129.712 82.4448 129.646 82.4839 129.587 82.5192C129.544 82.5427 129.504 82.5702 129.469 82.5898C129.438 82.6211 129.402 82.6485 129.367 82.676C129.308 82.723 129.245 82.7739 129.175 82.8602C129.128 82.9268 129.081 83.0169 129.049 83.1815L124.854 98.4536H117.399L122.594 79H148.202C149.117 79 149.945 79.2195 150.659 79.6505C151.239 79.9601 151.679 80.4774 152.032 81.273C152.146 81.5434 152.213 81.8177 152.291 82.1783C152.362 82.5192 152.377 82.8602 152.377 83.2677C152.362 83.4323 152.358 83.5538 152.354 83.6831C152.346 83.9418 152.338 84.2044 152.268 84.4787C152.224 84.8588 152.118 85.3095 152.001 85.7759L148.359 98.4497ZM141.845 97.709H147.798L151.287 85.5799C151.369 85.2507 151.495 84.7373 151.534 84.369L151.546 84.3102C151.6 84.1103 151.608 83.8908 151.616 83.6557C151.62 83.5107 151.624 83.3696 151.64 83.2246C151.636 82.9033 151.624 82.6054 151.569 82.3233C151.502 82.0058 151.443 81.7668 151.357 81.5591C151.079 80.9281 150.745 80.5245 150.302 80.2893C149.678 79.9131 148.999 79.7328 148.214 79.7328H123.175L118.376 97.7051H124.301L128.339 83.0052C128.378 82.7857 128.464 82.5858 128.606 82.3899C128.731 82.241 128.825 82.1626 128.912 82.092C128.947 82.0646 128.979 82.0372 129.01 82.0058L129.143 81.9196C129.163 81.9118 129.186 81.8922 129.214 81.8765C129.312 81.8177 129.442 81.7354 129.606 81.6962C129.646 81.6845 129.932 81.61 130.081 81.61H132.738C132.891 81.61 133.083 81.6414 133.303 81.7002C133.503 81.7707 133.699 81.9275 133.809 82.0881C133.887 82.1822 133.927 82.288 133.962 82.382C133.978 82.4173 133.989 82.4604 134.009 82.4996L134.04 82.6525C134.044 82.821 134.044 83.0404 133.962 83.2521L130.116 97.6934H136.053L136.124 97.3838L140.076 82.9934C140.115 82.7739 140.201 82.5741 140.342 82.3781C140.468 82.2292 140.562 82.1508 140.649 82.0803C140.684 82.0529 140.715 82.0254 140.747 81.9941L140.88 81.9079C140.9 81.9 140.923 81.8804 140.951 81.8647C141.049 81.806 141.178 81.7237 141.343 81.6845C141.406 81.6649 141.673 81.5983 141.818 81.5983H144.474C144.627 81.5983 144.82 81.6296 145.04 81.6884C145.24 81.7589 145.436 81.9157 145.546 82.0764C145.624 82.1704 145.663 82.2762 145.699 82.3703C145.714 82.4056 145.726 82.4487 145.746 82.4879L145.777 82.6407C145.781 82.8092 145.781 83.0287 145.699 83.2403L141.845 97.709Z"/>
</mask>
<path d="M148.359 98.4497H140.884L144.988 83.0404C145.028 82.9346 145.032 82.8249 145.028 82.7465C145.016 82.7152 145.004 82.6838 144.992 82.6564C144.981 82.625 144.969 82.5937 144.957 82.5662C144.906 82.4957 144.835 82.433 144.8 82.4173C144.682 82.386 144.545 82.3625 144.463 82.3625H141.806C141.755 82.3664 141.622 82.3977 141.512 82.4291C141.453 82.4448 141.386 82.4839 141.327 82.5192C141.284 82.5466 141.245 82.5702 141.21 82.5898C141.178 82.6172 141.143 82.6446 141.108 82.676C141.049 82.723 140.986 82.7739 140.915 82.8602C140.868 82.9268 140.821 83.0169 140.79 83.1815L136.634 98.4497H129.143L133.248 83.0404C133.287 82.9346 133.291 82.8249 133.287 82.7465C133.275 82.7152 133.264 82.6838 133.252 82.6564C133.24 82.625 133.228 82.5937 133.216 82.5662C133.165 82.4957 133.095 82.433 133.059 82.4173C132.942 82.386 132.804 82.3625 132.722 82.3625H130.065C130.014 82.3664 129.881 82.3977 129.771 82.4291C129.712 82.4448 129.646 82.4839 129.587 82.5192C129.544 82.5427 129.504 82.5702 129.469 82.5898C129.438 82.6211 129.402 82.6485 129.367 82.676C129.308 82.723 129.245 82.7739 129.175 82.8602C129.128 82.9268 129.081 83.0169 129.049 83.1815L124.854 98.4536H117.399L122.594 79H148.202C149.117 79 149.945 79.2195 150.659 79.6505C151.239 79.9601 151.679 80.4774 152.032 81.273C152.146 81.5434 152.213 81.8177 152.291 82.1783C152.362 82.5192 152.377 82.8602 152.377 83.2677C152.362 83.4323 152.358 83.5538 152.354 83.6831C152.346 83.9418 152.338 84.2044 152.268 84.4787C152.224 84.8588 152.118 85.3095 152.001 85.7759L148.359 98.4497ZM141.845 97.709H147.798L151.287 85.5799C151.369 85.2507 151.495 84.7373 151.534 84.369L151.546 84.3102C151.6 84.1103 151.608 83.8908 151.616 83.6557C151.62 83.5107 151.624 83.3696 151.64 83.2246C151.636 82.9033 151.624 82.6054 151.569 82.3233C151.502 82.0058 151.443 81.7668 151.357 81.5591C151.079 80.9281 150.745 80.5245 150.302 80.2893C149.678 79.9131 148.999 79.7328 148.214 79.7328H123.175L118.376 97.7051H124.301L128.339 83.0052C128.378 82.7857 128.464 82.5858 128.606 82.3899C128.731 82.241 128.825 82.1626 128.912 82.092C128.947 82.0646 128.979 82.0372 129.01 82.0058L129.143 81.9196C129.163 81.9118 129.186 81.8922 129.214 81.8765C129.312 81.8177 129.442 81.7354 129.606 81.6962C129.646 81.6845 129.932 81.61 130.081 81.61H132.738C132.891 81.61 133.083 81.6414 133.303 81.7002C133.503 81.7707 133.699 81.9275 133.809 82.0881C133.887 82.1822 133.927 82.288 133.962 82.382C133.978 82.4173 133.989 82.4604 134.009 82.4996L134.04 82.6525C134.044 82.821 134.044 83.0404 133.962 83.2521L130.116 97.6934H136.053L136.124 97.3838L140.076 82.9934C140.115 82.7739 140.201 82.5741 140.342 82.3781C140.468 82.2292 140.562 82.1508 140.649 82.0803C140.684 82.0529 140.715 82.0254 140.747 81.9941L140.88 81.9079C140.9 81.9 140.923 81.8804 140.951 81.8647C141.049 81.806 141.178 81.7237 141.343 81.6845C141.406 81.6649 141.673 81.5983 141.818 81.5983H144.474C144.627 81.5983 144.82 81.6296 145.04 81.6884C145.24 81.7589 145.436 81.9157 145.546 82.0764C145.624 82.1704 145.663 82.2762 145.699 82.3703C145.714 82.4056 145.726 82.4487 145.746 82.4879L145.777 82.6407C145.781 82.8092 145.781 83.0287 145.699 83.2403L141.845 97.709Z" fill="#00C398"/>
<path d="M148.359 98.4497V106.45H154.384L156.048 100.659L148.359 98.4497ZM140.884 98.4497L133.154 96.3906L130.474 106.45H140.884V98.4497ZM144.988 83.0404L137.488 80.2588L137.356 80.6146L137.258 80.9813L144.988 83.0404ZM145.028 82.7465L153.018 82.3465L152.955 81.1014L152.517 79.9343L145.028 82.7465ZM144.992 82.6564L137.503 85.4685L137.568 85.6415L137.641 85.8112L144.992 82.6564ZM144.957 82.5662L152.309 79.4114L151.959 78.5967L151.44 77.8783L144.957 82.5662ZM144.8 82.4173L148.046 75.1053L147.469 74.8492L146.859 74.6868L144.8 82.4173ZM141.806 82.3625V74.3625H141.499L141.193 74.386L141.806 82.3625ZM141.512 82.4291L143.571 90.1596L143.639 90.1414L143.707 90.122L141.512 82.4291ZM141.327 82.5192L137.215 75.6569L137.125 75.711L137.036 75.7674L141.327 82.5192ZM141.21 82.5898L137.328 75.5944L136.585 76.0066L135.945 76.5658L141.21 82.5898ZM141.108 82.676L146.101 88.9261L146.263 88.7965L146.419 88.6587L141.108 82.676ZM140.915 82.8602L134.727 77.7903L134.547 78.0104L134.382 78.2427L140.915 82.8602ZM140.79 83.1815L148.509 85.2824L148.59 84.984L148.648 84.6803L140.79 83.1815ZM136.634 98.4497V106.45H142.748L144.353 100.551L136.634 98.4497ZM129.143 98.4497L121.413 96.3906L118.733 106.45H129.143V98.4497ZM133.248 83.0404L125.747 80.2588L125.615 80.6146L125.517 80.9813L133.248 83.0404ZM133.287 82.7465L141.277 82.3465L141.215 81.1014L140.777 79.9343L133.287 82.7465ZM133.252 82.6564L125.762 85.4685L125.827 85.6415L125.9 85.8112L133.252 82.6564ZM133.216 82.5662L140.568 79.4114L140.219 78.5967L139.699 77.8783L133.216 82.5662ZM133.059 82.4173L136.305 75.1053L135.728 74.8492L135.118 74.6868L133.059 82.4173ZM130.065 82.3625V74.3625H129.759L129.453 74.386L130.065 82.3625ZM129.771 82.4291L131.83 90.1596L131.898 90.1414L131.966 90.122L129.771 82.4291ZM129.587 82.5192L133.414 89.5445L133.558 89.4659L133.699 89.3815L129.587 82.5192ZM129.469 82.5898L125.588 75.5944L124.608 76.1378L123.816 76.9292L129.469 82.5898ZM129.367 82.676L124.459 76.3581L124.416 76.3917L124.373 76.4259L129.367 82.676ZM129.175 82.8602L122.986 77.7903L122.806 78.0104L122.642 78.2427L129.175 82.8602ZM129.049 83.1815L136.763 85.3004L136.848 84.9932L136.907 84.6803L129.049 83.1815ZM124.854 98.4536V106.454H130.953L132.569 100.573L124.854 98.4536ZM117.399 98.4536L109.67 96.3895L106.982 106.454H117.399V98.4536ZM122.594 79V71H116.45L114.865 76.9358L122.594 79ZM150.659 79.6505L146.525 86.4995L146.707 86.6097L146.895 86.7101L150.659 79.6505ZM152.032 81.273L159.406 78.1699L159.376 78.0982L159.344 78.0271L152.032 81.273ZM152.291 82.1783L160.125 80.5554L160.117 80.516L160.108 80.4767L152.291 82.1783ZM152.377 83.2677L160.341 84.0272L160.377 83.6483V83.2677H152.377ZM152.268 84.4787L144.52 82.4839L144.381 83.023L144.319 83.5761L152.268 84.4787ZM152.001 85.7759L159.69 87.985L159.726 87.86L159.757 87.7339L152.001 85.7759ZM141.845 97.709L134.115 95.6502L131.436 105.709H141.845V97.709ZM147.798 97.709V105.709H153.822L155.486 99.9203L147.798 97.709ZM151.287 85.5799L158.975 87.7911L159.013 87.6575L159.047 87.5226L151.287 85.5799ZM151.534 84.369L143.689 82.7981L143.618 83.1573L143.579 83.5216L151.534 84.369ZM151.546 84.3102L143.832 82.1899L143.757 82.4623L143.701 82.7393L151.546 84.3102ZM151.616 83.6557L159.612 83.9226L159.613 83.8973L159.613 83.8721L151.616 83.6557ZM151.64 83.2246L159.593 84.0856L159.645 83.6076L159.639 83.1269L151.64 83.2246ZM151.569 82.3233L159.422 80.7944L159.41 80.7361L159.398 80.678L151.569 82.3233ZM151.357 81.5591L158.744 78.4887L158.711 78.4077L158.675 78.3276L151.357 81.5591ZM150.302 80.2893L146.171 87.1402L146.359 87.2539L146.554 87.3571L150.302 80.2893ZM123.175 79.7328V71.7328H117.031L115.446 77.6689L123.175 79.7328ZM118.376 97.7051L110.647 95.6412L107.959 105.705H118.376V97.7051ZM124.301 97.7051V105.705H130.4L132.015 99.8241L124.301 97.7051ZM128.339 83.0052L136.053 85.1241L136.15 84.7724L136.214 84.4132L128.339 83.0052ZM128.606 82.3899L122.49 77.2329L122.294 77.4651L122.116 77.7115L128.606 82.3899ZM128.912 82.092L124.004 75.7742L123.926 75.8347L123.85 75.8972L128.912 82.092ZM129.01 82.0058L124.668 75.2867L123.956 75.7466L123.357 76.3453L129.01 82.0058ZM129.143 81.9196L126.175 74.4905L125.454 74.7788L124.801 75.2005L129.143 81.9196ZM129.214 81.8765L133.179 88.8247L133.253 88.7825L133.326 88.7388L129.214 81.8765ZM129.606 81.6962L131.457 89.4792L131.681 89.4259L131.902 89.3597L129.606 81.6962ZM133.303 81.7002L135.962 74.1552L135.67 74.052L135.37 73.9719L133.303 81.7002ZM133.809 82.0881L127.205 86.6038L127.421 86.9197L127.666 87.2135L133.809 82.0881ZM133.962 82.382L126.473 85.1942L126.556 85.4171L126.653 85.6347L133.962 82.382ZM134.009 82.4996L141.845 80.8897L141.634 79.8591L141.163 78.9182L134.009 82.4996ZM134.04 82.6525L142.038 82.4662L142.022 81.7471L141.877 81.0426L134.04 82.6525ZM133.962 83.2521L126.507 80.3492L126.346 80.7637L126.231 81.1935L133.962 83.2521ZM130.116 97.6934L122.386 95.6348L119.707 105.693H130.116V97.6934ZM136.053 97.6934V105.693H142.434L143.853 99.473L136.053 97.6934ZM136.124 97.3838L128.41 95.2654L128.363 95.4339L128.325 95.6041L136.124 97.3838ZM140.076 82.9934L147.79 85.1117L147.887 84.7603L147.951 84.4015L140.076 82.9934ZM140.342 82.3781L134.226 77.2211L134.031 77.4533L133.853 77.6997L140.342 82.3781ZM140.649 82.0803L135.741 75.7624L135.663 75.823L135.587 75.8854L140.649 82.0803ZM140.747 81.9941L136.405 75.275L135.693 75.7348L135.093 76.3336L140.747 81.9941ZM140.88 81.9079L137.912 74.4787L137.191 74.767L136.538 75.1888L140.88 81.9079ZM140.951 81.8647L144.916 88.8129L144.99 88.7708L145.063 88.727L140.951 81.8647ZM141.343 81.6845L143.194 89.4675L143.463 89.4035L143.726 89.3212L141.343 81.6845ZM145.04 81.6884L147.699 74.1434L147.407 74.0403L147.107 73.9601L145.04 81.6884ZM145.546 82.0764L138.942 86.592L139.158 86.9079L139.403 87.2018L145.546 82.0764ZM145.699 82.3703L138.209 85.1825L138.293 85.4054L138.39 85.6229L145.699 82.3703ZM145.746 82.4879L153.582 80.8786L153.371 79.8476L152.899 78.9064L145.746 82.4879ZM145.777 82.6407L153.775 82.4545L153.758 81.7357L153.614 81.0314L145.777 82.6407ZM145.699 83.2403L138.244 80.3375L138.083 80.7518L137.968 81.1815L145.699 83.2403ZM148.359 90.4497H140.884V106.45H148.359V90.4497ZM148.614 100.509L152.719 85.0996L137.258 80.9813L133.154 96.3906L148.614 100.509ZM152.489 85.8221C153.06 84.2828 153.048 82.9514 153.018 82.3465L137.038 83.1465C137.015 82.6984 136.995 81.5864 137.488 80.2588L152.489 85.8221ZM152.517 79.9343C152.514 79.9251 152.493 79.8694 152.469 79.8076C152.444 79.7447 152.401 79.6344 152.344 79.5016L137.641 85.8112C137.595 85.7058 137.564 85.6249 137.551 85.5923C137.539 85.5609 137.53 85.5366 137.538 85.5587L152.517 79.9343ZM152.482 79.8442C152.479 79.8361 152.458 79.7802 152.434 79.7188C152.41 79.6559 152.366 79.5451 152.309 79.4114L137.605 85.721C137.56 85.6148 137.528 85.5334 137.515 85.5009C137.503 85.4698 137.494 85.4453 137.503 85.4685L152.482 79.8442ZM151.44 77.8783C151.073 77.3717 150.685 76.9516 150.32 76.6126C150.147 76.4518 149.325 75.6731 148.046 75.1053L141.555 89.7294C140.795 89.3922 140.268 89.0124 140.067 88.863C139.799 88.6645 139.585 88.4786 139.425 88.3298C139.117 88.0437 138.79 87.6902 138.475 87.2541L151.44 77.8783ZM146.859 74.6868C146.462 74.581 145.554 74.3625 144.463 74.3625V90.3625C144.13 90.3625 143.869 90.3404 143.718 90.325C143.554 90.3081 143.417 90.2882 143.315 90.2713C143.119 90.2389 142.93 90.1982 142.741 90.1479L146.859 74.6868ZM144.463 74.3625H141.806V90.3625H144.463V74.3625ZM141.193 74.386C140.216 74.461 139.333 74.7315 139.317 74.7361L143.707 90.122C143.633 90.1432 143.557 90.1629 143.467 90.1835C143.422 90.1938 143.335 90.2133 143.217 90.2352C143.157 90.2463 143.067 90.2624 142.954 90.279C142.854 90.2939 142.663 90.3202 142.419 90.339L141.193 74.386ZM139.453 74.6985C138.628 74.9183 138.016 75.2208 137.757 75.3544C137.47 75.5023 137.237 75.6437 137.215 75.6569L145.439 89.3815C145.476 89.3595 145.306 89.4636 145.082 89.5792C144.885 89.6804 144.337 89.9556 143.571 90.1596L139.453 74.6985ZM137.036 75.7674C137.094 75.731 137.194 75.6691 137.328 75.5944L145.091 89.5851C145.296 89.4712 145.475 89.3623 145.618 89.271L137.036 75.7674ZM135.945 76.5658C135.998 76.5201 136.038 76.4862 136.055 76.4724C136.063 76.465 136.07 76.46 136.07 76.4597C136.07 76.4595 136.07 76.4598 136.068 76.4612C136.067 76.4622 136.063 76.4652 136.06 76.4678C136.048 76.4778 136.013 76.507 135.971 76.5426C135.927 76.5796 135.867 76.6311 135.797 76.6933L146.419 88.6587C146.366 88.7051 146.324 88.7415 146.298 88.7637C146.284 88.7749 146.274 88.7836 146.268 88.7887C146.262 88.7935 146.258 88.7965 146.26 88.795C146.261 88.794 146.262 88.7935 146.265 88.7909C146.267 88.7889 146.271 88.7856 146.276 88.7819C146.285 88.7746 146.299 88.7627 146.316 88.7484C146.334 88.7339 146.356 88.715 146.382 88.693C146.408 88.6709 146.439 88.6442 146.474 88.6137L135.945 76.5658ZM136.114 76.4259C135.953 76.5548 135.349 77.0306 134.727 77.7903L147.104 87.93C146.882 88.2003 146.655 88.4352 146.438 88.6352C146.243 88.8155 146.077 88.9451 146.101 88.9261L136.114 76.4259ZM134.382 78.2427C133.647 79.2827 133.167 80.4454 132.931 81.6827L148.648 84.6803C148.576 85.0604 148.449 85.5428 148.224 86.0795C147.987 86.643 147.708 87.1107 147.448 87.4776L134.382 78.2427ZM133.071 81.0806L128.915 96.3488L144.353 100.551L148.509 85.2824L133.071 81.0806ZM136.634 90.4497H129.143V106.45H136.634V90.4497ZM136.874 100.509L140.978 85.0996L125.517 80.9813L121.413 96.3906L136.874 100.509ZM140.749 85.8221C141.319 84.2828 141.307 82.9514 141.277 82.3465L125.297 83.1465C125.275 82.6984 125.255 81.5864 125.747 80.2588L140.749 85.8221ZM140.777 79.9343C140.773 79.9262 140.753 79.8703 140.729 79.8089C140.704 79.7461 140.661 79.6352 140.603 79.5016L125.9 85.8112C125.854 85.705 125.823 85.6235 125.81 85.591C125.798 85.56 125.789 85.5355 125.798 85.5587L140.777 79.9343ZM140.741 79.8442C140.738 79.8361 140.717 79.7802 140.693 79.7188C140.669 79.6559 140.625 79.5451 140.568 79.4114L125.865 85.721C125.819 85.6148 125.787 85.5334 125.775 85.5009C125.763 85.4698 125.754 85.4453 125.762 85.4685L140.741 79.8442ZM139.699 77.8783C139.333 77.3717 138.944 76.9516 138.58 76.6126C138.407 76.4518 137.584 75.6731 136.305 75.1053L129.814 89.7294C129.054 89.3922 128.528 89.0124 128.326 88.863C128.059 88.6645 127.844 88.4786 127.684 88.3298C127.377 88.0437 127.049 87.6902 126.734 87.2541L139.699 77.8783ZM135.118 74.6868C134.721 74.581 133.813 74.3625 132.722 74.3625V90.3625C132.39 90.3625 132.128 90.3404 131.978 90.325C131.813 90.3081 131.677 90.2882 131.575 90.2713C131.378 90.2389 131.19 90.1982 131.001 90.1479L135.118 74.6868ZM132.722 74.3625H130.065V90.3625H132.722V74.3625ZM129.453 74.386C128.476 74.461 127.592 74.7315 127.576 74.7361L131.966 90.122C131.892 90.1432 131.817 90.1629 131.727 90.1835C131.682 90.1938 131.594 90.2133 131.476 90.2352C131.417 90.2463 131.326 90.2624 131.213 90.279C131.113 90.2939 130.922 90.3202 130.678 90.339L129.453 74.386ZM127.712 74.6985C126.887 74.9183 126.276 75.2208 126.016 75.3544C125.729 75.5023 125.497 75.6437 125.475 75.6569L133.699 89.3815C133.736 89.3595 133.566 89.4636 133.341 89.5792C133.145 89.6804 132.596 89.9556 131.83 90.1596L127.712 74.6985ZM125.76 75.494C125.624 75.5677 125.514 75.6328 125.437 75.6786C125.364 75.7226 125.304 75.7598 125.289 75.7693C125.287 75.7708 125.285 75.7722 125.283 75.7731C125.281 75.7743 125.281 75.7745 125.28 75.7751C125.278 75.776 125.28 75.7751 125.282 75.7735C125.287 75.7707 125.303 75.7606 125.325 75.7472C125.365 75.7229 125.461 75.6649 125.588 75.5944L133.35 89.5851C133.425 89.5436 133.49 89.5063 133.541 89.476C133.593 89.4458 133.636 89.4196 133.667 89.4003C133.699 89.3812 133.724 89.3653 133.738 89.3565C133.746 89.352 133.752 89.348 133.755 89.3459C133.757 89.345 133.759 89.3437 133.759 89.3434C133.76 89.3431 133.76 89.3429 133.76 89.3427C133.761 89.3426 133.761 89.3426 133.761 89.3426C133.761 89.3426 133.76 89.3429 133.759 89.3435C133.758 89.3441 133.757 89.345 133.755 89.3462C133.751 89.3484 133.746 89.352 133.738 89.3565C133.724 89.3653 133.701 89.3792 133.673 89.3962C133.617 89.4296 133.527 89.4825 133.414 89.5445L125.76 75.494ZM123.816 76.9292C124.031 76.7144 124.214 76.5576 124.319 76.4712C124.413 76.3934 124.493 76.3317 124.459 76.3581L134.275 88.9939C134.276 88.9928 134.392 88.9037 134.52 88.7975C134.659 88.6826 134.876 88.4965 135.122 88.2503L123.816 76.9292ZM124.373 76.4259C124.212 76.5544 123.609 77.0303 122.986 77.7903L135.363 87.93C135.142 88.2004 134.915 88.4354 134.698 88.6355C134.502 88.8157 134.337 88.9453 134.361 88.9261L124.373 76.4259ZM122.642 78.2427C121.906 79.2831 121.427 80.446 121.191 81.6827L136.907 84.6803C136.835 85.0602 136.708 85.5425 136.483 86.0791C136.247 86.6426 135.967 87.1104 135.708 87.4776L122.642 78.2427ZM121.335 81.0626L117.14 96.3348L132.569 100.573L136.763 85.3004L121.335 81.0626ZM124.854 90.4536H117.399V106.454H124.854V90.4536ZM125.128 100.518L130.323 81.0642L114.865 76.9358L109.67 96.3895L125.128 100.518ZM122.594 87H148.202V71H122.594V87ZM148.202 87C147.802 87 147.175 86.8919 146.525 86.4995L154.793 72.8015C152.715 71.547 150.431 71 148.202 71V87ZM146.895 86.7101C146.254 86.368 145.724 85.9202 145.327 85.451C144.954 85.011 144.777 84.6475 144.72 84.5189L159.344 78.0271C158.494 76.1118 157.01 73.9704 154.422 72.591L146.895 86.7101ZM144.658 84.3761C144.553 84.1248 144.492 83.9236 144.463 83.8212C144.451 83.7748 144.445 83.7513 144.448 83.7637C144.452 83.7777 144.459 83.81 144.474 83.8798L160.108 80.4767C160.026 80.1 159.833 79.1844 159.406 78.1699L144.658 84.3761ZM144.457 83.8011C144.408 83.5609 144.388 83.3717 144.381 83.267C144.375 83.1776 144.377 83.1537 144.377 83.2677H160.377C160.377 82.6969 160.363 81.7061 160.125 80.5554L144.457 83.8011ZM144.414 82.5083C144.372 82.9459 144.362 83.2844 144.358 83.4405L160.35 83.9258C160.351 83.8932 160.352 83.8826 160.352 83.8765C160.352 83.873 160.352 83.8816 160.351 83.8974C160.35 83.9139 160.349 83.9351 160.347 83.9593C160.345 83.9836 160.343 84.0065 160.341 84.0272L144.414 82.5083ZM144.358 83.4405C144.352 83.6072 144.353 83.5048 144.366 83.366C144.381 83.1925 144.419 82.8772 144.52 82.4839L160.015 86.4734C160.34 85.2098 160.345 84.0814 160.35 83.9258L144.358 83.4405ZM144.319 83.5761C144.329 83.4864 144.339 83.4285 144.342 83.4105C144.345 83.3914 144.345 83.3947 144.338 83.426C144.332 83.4569 144.321 83.5038 144.305 83.5721C144.288 83.6404 144.269 83.72 144.244 83.8179L159.757 87.7339C159.867 87.3006 160.105 86.3646 160.216 85.3813L144.319 83.5761ZM144.312 83.5667L140.67 96.2405L156.048 100.659L159.69 87.985L144.312 83.5667ZM141.845 105.709H147.798V89.709H141.845V105.709ZM155.486 99.9203L158.975 87.7911L143.598 83.3687L140.11 95.4978L155.486 99.9203ZM159.047 87.5226C159.097 87.3222 159.379 86.2438 159.489 85.2163L143.579 83.5216C143.587 83.4439 143.595 83.3849 143.601 83.3483C143.606 83.3109 143.61 83.2857 143.612 83.2745C143.616 83.2548 143.615 83.2611 143.607 83.2987C143.599 83.3341 143.589 83.3813 143.574 83.4417C143.56 83.502 143.544 83.5647 143.526 83.6373L159.047 87.5226ZM159.378 85.9398L159.39 85.881L143.701 82.7393L143.689 82.7981L159.378 85.9398ZM159.259 86.4305C159.61 85.1566 159.611 83.9568 159.612 83.9226L143.621 83.3888C143.615 83.5427 143.617 83.4323 143.631 83.2807C143.646 83.1059 143.69 82.7035 143.832 82.1899L159.259 86.4305ZM159.613 83.8721C159.614 83.8336 159.615 83.8183 159.615 83.8071C159.615 83.7981 159.615 83.8059 159.614 83.8238C159.613 83.8594 159.607 83.9547 159.593 84.0856L143.686 82.3637C143.63 82.8797 143.622 83.3368 143.619 83.4393L159.613 83.8721ZM159.639 83.1269C159.635 82.7525 159.624 81.836 159.422 80.7944L143.717 83.8521C143.665 83.5851 143.648 83.3884 143.642 83.3076C143.637 83.2345 143.639 83.2146 143.64 83.3223L159.639 83.1269ZM159.398 80.678C159.326 80.336 159.144 79.4498 158.744 78.4887L143.97 84.6295C143.843 84.3251 143.775 84.089 143.747 83.9845C143.722 83.8922 143.717 83.8589 143.74 83.9685L159.398 80.678ZM158.675 78.3276C157.951 76.6862 156.599 74.5735 154.05 73.2216L146.554 87.3571C145.79 86.9522 145.182 86.4235 144.736 85.8855C144.319 85.384 144.114 84.9603 144.039 84.7906L158.675 78.3276ZM154.433 73.4385C152.459 72.2486 150.33 71.7328 148.214 71.7328V87.7328C147.986 87.7328 147.654 87.7057 147.259 87.6005C146.858 87.4937 146.488 87.3317 146.171 87.1402L154.433 73.4385ZM148.214 71.7328H123.175V87.7328H148.214V71.7328ZM115.446 77.6689L110.647 95.6412L126.105 99.769L130.904 81.7967L115.446 77.6689ZM118.376 105.705H124.301V89.7051H118.376V105.705ZM132.015 99.8241L136.053 85.1241L120.625 80.8862L116.587 95.5862L132.015 99.8241ZM136.214 84.4132C136.027 85.4594 135.602 86.3647 135.095 87.0683L122.116 77.7115C121.327 78.807 120.729 80.112 120.464 81.5971L136.214 84.4132ZM134.722 87.5469C134.587 87.7068 134.429 87.8746 134.253 88.0407C134.087 88.1961 133.95 88.3063 133.974 88.2869L123.85 75.8972C123.598 76.1033 123.074 76.5398 122.49 77.2329L134.722 87.5469ZM133.819 88.4099C134.097 88.1941 134.38 87.9487 134.663 87.6663L123.357 76.3453C123.577 76.1256 123.797 75.9352 124.004 75.7742L133.819 88.4099ZM133.352 88.7249L133.485 88.6387L124.801 75.2005L124.668 75.2867L133.352 88.7249ZM132.111 89.3488C132.638 89.1384 133.03 88.9162 133.225 88.8015C133.426 88.6827 133.581 88.5791 133.609 88.56C133.621 88.5523 133.654 88.5304 133.634 88.5437C133.628 88.5474 133.602 88.5647 133.568 88.5871C133.501 88.6307 133.362 88.7202 133.179 88.8247L125.249 74.9284C125.052 75.0406 124.9 75.1385 124.82 75.1904C124.779 75.2169 124.747 75.2384 124.736 75.2462C124.71 75.2636 124.736 75.2458 124.742 75.242C124.759 75.2307 124.902 75.1345 125.093 75.0221C125.276 74.9137 125.659 74.6969 126.175 74.4905L132.111 89.3488ZM133.326 88.7388C133.499 88.6348 133.246 88.7921 132.981 88.9255C132.663 89.0854 132.141 89.3165 131.457 89.4792L127.756 73.9132C126.907 74.1151 126.238 74.407 125.79 74.6325C125.394 74.8316 125.027 75.0594 125.102 75.0142L133.326 88.7388ZM131.902 89.3597C131.787 89.3942 131.701 89.417 131.689 89.4201C131.656 89.4289 131.629 89.4358 131.608 89.4411C131.567 89.4512 131.517 89.4632 131.455 89.4763C131.4 89.4877 131.282 89.5117 131.12 89.5357C131.036 89.5481 130.912 89.5648 130.759 89.579C130.614 89.5924 130.378 89.61 130.081 89.61V73.61C129.086 73.61 128.247 73.8007 128.15 73.8212C127.902 73.8736 127.597 73.947 127.31 74.0328L131.902 89.3597ZM130.081 89.61H132.738V73.61H130.081V89.61ZM132.738 89.61C132.29 89.61 131.94 89.5661 131.728 89.5321C131.505 89.4963 131.338 89.4558 131.235 89.4284L135.37 73.9719C134.803 73.8201 133.861 73.61 132.738 73.61V89.61ZM130.643 89.2452C129.809 88.9511 129.162 88.5506 128.687 88.182C128.215 87.816 127.685 87.3054 127.205 86.6038L140.413 77.5725C139.373 76.0525 137.815 74.8082 135.962 74.1552L130.643 89.2452ZM127.666 87.2135C127.176 86.6255 126.871 86.0747 126.692 85.703C126.536 85.3774 126.433 85.09 126.473 85.1942L141.451 79.5699C141.45 79.5664 141.409 79.4546 141.359 79.3319C141.306 79.1979 141.223 78.9998 141.111 78.7671C140.884 78.2956 140.521 77.6448 139.951 76.9627L127.666 87.2135ZM126.653 85.6347C126.567 85.4406 126.508 85.287 126.486 85.227C126.473 85.1941 126.464 85.1693 126.463 85.166C126.456 85.146 126.469 85.1831 126.472 85.191C126.485 85.2273 126.527 85.3414 126.585 85.4827C126.644 85.6276 126.733 85.8366 126.856 86.081L141.163 78.9182C141.275 79.143 141.356 79.3319 141.407 79.4567C141.456 79.5777 141.49 79.6715 141.496 79.6878C141.498 79.6932 141.499 79.697 141.499 79.6957C141.499 79.6954 141.499 79.6951 141.498 79.6944C141.498 79.6939 141.498 79.6929 141.497 79.6919C141.497 79.6899 141.496 79.6866 141.494 79.6828C141.489 79.6696 141.477 79.6351 141.461 79.5925C141.444 79.549 141.42 79.4859 141.39 79.4107C141.36 79.3353 141.32 79.2394 141.271 79.1294L126.653 85.6347ZM126.173 84.1095L126.204 84.2623L141.877 81.0426L141.845 80.8897L126.173 84.1095ZM126.043 82.8387C126.043 82.865 126.032 82.5676 126.07 82.173C126.11 81.7614 126.212 81.1087 126.507 80.3492L141.417 86.1549C142.131 84.3208 142.043 82.6701 142.038 82.4662L126.043 82.8387ZM126.231 81.1935L122.386 95.6348L137.847 99.7519L141.693 85.3106L126.231 81.1935ZM130.116 105.693H136.053V89.6934H130.116V105.693ZM143.853 99.473L143.924 99.1634L128.325 95.6041L128.254 95.9137L143.853 99.473ZM143.839 99.5021L147.79 85.1117L132.361 80.8751L128.41 95.2654L143.839 99.5021ZM147.951 84.4015C147.764 85.4476 147.339 86.3529 146.832 87.0566L133.853 77.6997C133.063 78.7952 132.466 80.1003 132.201 81.5853L147.951 84.4015ZM146.458 87.5351C146.324 87.695 146.166 87.8628 145.989 88.0289C145.824 88.1843 145.687 88.2946 145.711 88.2752L135.587 75.8854C135.334 76.0916 134.811 76.5281 134.226 77.2211L146.458 87.5351ZM145.556 88.3982C145.834 88.1824 146.117 87.9371 146.4 87.6546L135.093 76.3336C135.314 76.1138 135.534 75.9233 135.741 75.7624L145.556 88.3982ZM145.089 88.7132L145.222 88.6269L136.538 75.1888L136.405 75.275L145.089 88.7132ZM143.848 89.337C144.374 89.1266 144.767 88.9044 144.962 88.7896C145.163 88.6708 145.318 88.5672 145.346 88.5482C145.358 88.5404 145.391 88.5186 145.371 88.5319C145.365 88.5356 145.339 88.5529 145.305 88.5752C145.238 88.6189 145.099 88.7084 144.916 88.8129L136.985 74.9166C136.789 75.0289 136.636 75.1268 136.557 75.1787C136.516 75.2053 136.484 75.2267 136.472 75.2345C136.446 75.252 136.473 75.2341 136.479 75.2303C136.495 75.2191 136.639 75.1229 136.829 75.0104C137.013 74.9021 137.395 74.6852 137.912 74.4787L143.848 89.337ZM145.063 88.727C145.236 88.6231 144.982 88.7804 144.717 88.9138C144.4 89.0736 143.878 89.3048 143.194 89.4675L139.492 73.9015C138.643 74.1034 137.975 74.3953 137.526 74.6207C137.131 74.8198 136.763 75.0476 136.839 75.0025L145.063 88.727ZM143.726 89.3212C143.525 89.3839 143.382 89.4194 143.358 89.4252C143.3 89.4399 143.236 89.4546 143.164 89.4694C143.099 89.4829 142.975 89.507 142.81 89.5304C142.686 89.5478 142.315 89.5983 141.818 89.5983V73.5983C140.867 73.5983 140.077 73.7695 139.935 73.7987C139.681 73.8511 139.324 73.9341 138.96 74.0478L143.726 89.3212ZM141.818 89.5983H144.474V73.5983H141.818V89.5983ZM144.474 89.5983C144.026 89.5983 143.677 89.5543 143.465 89.5203C143.242 89.4846 143.075 89.4441 142.972 89.4166L147.107 73.9601C146.539 73.8083 145.598 73.5983 144.474 73.5983V89.5983ZM142.38 89.2334C141.546 88.9393 140.899 88.5388 140.424 88.1702C139.952 87.8042 139.422 87.2936 138.942 86.592L152.149 77.5607C151.11 76.0407 149.552 74.7965 147.699 74.1434L142.38 89.2334ZM139.403 87.2018C138.913 86.6138 138.608 86.0629 138.429 85.6913C138.272 85.3656 138.17 85.0783 138.209 85.1825L153.188 79.5581C153.187 79.5546 153.145 79.4429 153.096 79.3201C153.042 79.1861 152.96 78.988 152.848 78.7554C152.621 78.2838 152.257 77.633 151.688 76.951L139.403 87.2018ZM138.39 85.6229C138.303 85.4288 138.245 85.2753 138.222 85.2153C138.21 85.1823 138.201 85.1576 138.2 85.1543C138.193 85.1343 138.206 85.1714 138.209 85.1792C138.222 85.2156 138.264 85.3297 138.321 85.471C138.38 85.6159 138.47 85.8249 138.592 86.0693L152.899 78.9064C153.012 79.1312 153.093 79.3201 153.143 79.4449C153.193 79.5659 153.227 79.6597 153.233 79.676C153.235 79.6814 153.236 79.6852 153.236 79.6839C153.235 79.6836 153.235 79.6833 153.235 79.6826C153.235 79.6821 153.235 79.6811 153.234 79.6801C153.233 79.6781 153.232 79.6748 153.231 79.671C153.226 79.6578 153.213 79.6233 153.197 79.5807C153.181 79.5372 153.157 79.4741 153.127 79.3989C153.096 79.3235 153.057 79.2276 153.008 79.1177L138.39 85.6229ZM137.909 84.0972L137.941 84.25L153.614 81.0314L153.582 80.8786L137.909 84.0972ZM137.779 82.8269C137.78 82.8535 137.769 82.5561 137.807 82.1614C137.846 81.7499 137.948 81.097 138.244 80.3375L153.154 86.1431C153.868 84.3089 153.78 82.6579 153.775 82.4545L137.779 82.8269ZM137.968 81.1815L134.115 95.6502L149.576 99.7679L153.429 85.2991L137.968 81.1815Z" fill="#00C398" mask="url(#path-15-inside-3_116_1609)"/>
<mask id="path-17-inside-4_116_1609" fill="white">
<path d="M166.017 98.4221H150.702L155.87 79.0703H171.028L170.024 82.8247H162.215L161.214 86.5555H168.815L167.779 90.3373H160.182L159.025 94.6638H167.014L166.017 98.4221ZM151.667 97.6814H165.448L166.057 95.4084H158.067L159.617 89.6005H167.218L167.85 87.3001H160.253L161.65 82.0879H169.459L170.067 79.8149H156.443L151.667 97.6814Z"/>
</mask>
<path d="M166.017 98.4221H150.702L155.87 79.0703H171.028L170.024 82.8247H162.215L161.214 86.5555H168.815L167.779 90.3373H160.182L159.025 94.6638H167.014L166.017 98.4221ZM151.667 97.6814H165.448L166.057 95.4084H158.067L159.617 89.6005H167.218L167.85 87.3001H160.253L161.65 82.0879H169.459L170.067 79.8149H156.443L151.667 97.6814Z" fill="#00C398"/>
<path d="M166.017 98.4221V106.422H172.172L173.75 100.473L166.017 98.4221ZM150.702 98.4221L142.973 96.358L140.285 106.422H150.702V98.4221ZM155.87 79.0703V71.0703H149.726L148.141 77.0062L155.87 79.0703ZM171.028 79.0703L178.756 81.1381L181.45 71.0703H171.028V79.0703ZM170.024 82.8247V90.8247H176.165L177.752 84.8925L170.024 82.8247ZM162.215 82.8247V74.8247H156.078L154.488 80.7523L162.215 82.8247ZM161.214 86.5555L153.487 84.4831L150.786 94.5555H161.214V86.5555ZM168.815 86.5555L176.531 88.6691L179.301 78.5555H168.815V86.5555ZM167.779 90.3373V98.3373H173.882L175.495 92.4509L167.779 90.3373ZM160.182 90.3373V82.3373H154.041L152.454 88.2696L160.182 90.3373ZM159.025 94.6638L151.297 92.5961L148.603 102.664H159.025V94.6638ZM167.014 94.6638L174.747 96.7145L177.412 86.6638H167.014V94.6638ZM151.667 97.6814L143.938 95.6156L141.248 105.681H151.667V97.6814ZM165.448 97.6814V105.681H171.589L173.176 99.7493L165.448 97.6814ZM166.057 95.4084L173.785 97.4763L176.479 87.4084H166.057V95.4084ZM158.067 95.4084L150.338 93.3456L147.652 103.408H158.067V95.4084ZM159.617 89.6005V81.6005H153.472L151.888 87.5377L159.617 89.6005ZM167.218 89.6005V97.6005H173.317L174.932 91.7191L167.218 89.6005ZM167.85 87.3001L175.564 89.4187L178.343 79.3001H167.85V87.3001ZM160.253 87.3001L152.526 85.2291L149.826 95.3001H160.253V87.3001ZM161.65 82.0879V74.0879H155.512L153.923 80.0169L161.65 82.0879ZM169.459 82.0879V90.0879H175.599L177.187 84.1558L169.459 82.0879ZM170.067 79.8149L177.795 81.8828L180.489 71.8149H170.067V79.8149ZM156.443 79.8149V71.8149H150.3L148.714 77.7491L156.443 79.8149ZM166.017 90.4221H150.702V106.422H166.017V90.4221ZM158.431 100.486L163.599 81.1344L148.141 77.0062L142.973 96.358L158.431 100.486ZM155.87 87.0703H171.028V71.0703H155.87V87.0703ZM163.3 77.0025L162.296 80.7568L177.752 84.8925L178.756 81.1381L163.3 77.0025ZM170.024 74.8247H162.215V90.8247H170.024V74.8247ZM154.488 80.7523L153.487 84.4831L168.941 88.6279L169.942 84.897L154.488 80.7523ZM161.214 94.5555H168.815V78.5555H161.214V94.5555ZM161.099 84.4419L160.063 88.2237L175.495 92.4509L176.531 88.6691L161.099 84.4419ZM167.779 82.3373H160.182V98.3373H167.779V82.3373ZM152.454 88.2696L151.297 92.5961L166.753 96.7315L167.91 92.405L152.454 88.2696ZM159.025 102.664H167.014V86.6638H159.025V102.664ZM159.281 92.6131L158.285 96.3714L173.75 100.473L174.747 96.7145L159.281 92.6131ZM151.667 105.681H165.448V89.6814H151.667V105.681ZM173.176 99.7493L173.785 97.4763L158.328 93.3405L157.72 95.6135L173.176 99.7493ZM166.057 87.4084H158.067V103.408H166.057V87.4084ZM165.797 97.4712L167.347 91.6633L151.888 87.5377L150.338 93.3456L165.797 97.4712ZM159.617 97.6005H167.218V81.6005H159.617V97.6005ZM174.932 91.7191L175.564 89.4187L160.135 85.1815L159.504 87.4819L174.932 91.7191ZM167.85 79.3001H160.253V95.3001H167.85V79.3001ZM167.98 89.3711L169.377 84.1589L153.923 80.0169L152.526 85.2291L167.98 89.3711ZM161.65 90.0879H169.459V74.0879H161.65V90.0879ZM177.187 84.1558L177.795 81.8828L162.339 77.747L161.731 80.02L177.187 84.1558ZM170.067 71.8149H156.443V87.8149H170.067V71.8149ZM148.714 77.7491L143.938 95.6156L159.396 99.7472L164.171 81.8807L148.714 77.7491Z" fill="#00C398" mask="url(#path-17-inside-4_116_1609)"/>
</svg>
