<svg width="101" height="102" viewBox="0 0 101 102" fill="none" xmlns="http://www.w3.org/2000/svg">
<path fill-rule="evenodd" clip-rule="evenodd" d="M20.0762 15.3335L12.4848 7.85814L52.937 1.07814C55.1322 0.711129 57.3371 0.392411 59.542 0.18959C61.3214 0.0254022 63.1105 -0.0711791 64.8899 0.0640347C68.1199 0.305488 71.2435 1.28096 73.7385 3.37677C75.9821 5.25045 77.4424 7.73259 78.2063 10.5431C78.5351 11.7504 78.7092 12.9963 78.8253 14.2422C80.6627 15.1211 82.4131 16.1545 84.0377 17.3714C88.1768 20.4813 92.1224 23.9486 95.5748 27.8118C96.9383 29.3475 98.3212 30.97 99.3947 32.7182L101 35.2872L100.062 38.1653C98.2245 43.825 95.7779 49.3977 93.1765 54.7483C92.6446 55.859 92.0837 56.96 91.5228 58.0804C91.5228 58.0804 76.1562 88.6773 53.2368 99.7745L50.4903 101.04L47.7535 99.7745C26.5459 92.5406 10.5797 60.4563 7.81386 54.7483C5.21247 49.3977 2.7658 43.825 0.92838 38.1653L0 35.2872L1.59565 32.7182C2.67876 30.9797 4.05199 29.3378 5.41555 27.8118C8.86796 23.9486 12.8136 20.4813 16.9526 17.3714C17.9487 16.677 18.9931 15.9516 20.0762 15.3335Z" fill="#00C297"/>
<path fill-rule="evenodd" clip-rule="evenodd" d="M50.4904 11.6731C57.1148 11.5862 65.1414 12.6003 71.437 14.4547C75.2665 15.5847 79.1348 17.2072 82.3357 19.6218C86.3104 22.6158 90.1496 25.9768 93.4666 29.6952C94.6755 31.0377 96.039 32.6602 97.0061 34.2055L97.9151 35.6639L97.3832 37.3058C95.6328 42.724 93.1282 48.4126 90.6525 53.5218C85.4207 64.2906 78.7479 75.0111 70.4312 83.6648C65.1414 89.1796 59.0199 94.0087 52.0474 97.2151L50.4904 97.9395L48.9334 97.2151C41.9609 93.999 35.8491 89.1699 30.5496 83.6648C22.2425 75.0111 15.5698 64.2906 10.338 53.5218C7.86228 48.4126 5.35758 42.724 3.6072 37.3058L3.07532 35.6639L3.98436 34.2055C4.95142 32.6602 6.31498 31.0473 7.5238 29.6952C10.8408 25.9768 14.6801 22.6158 18.6547 19.6218C21.8653 17.2169 25.7336 15.5847 29.5535 14.4547C35.8394 12.6003 43.866 11.5862 50.4904 11.6731Z" fill="#007E94"/>
<path fill-rule="evenodd" clip-rule="evenodd" d="M50.4903 82.7566C53.9234 80.2938 58.9521 76.1698 65.944 69.2739C79.1637 56.2257 85.2369 41.8351 86.8616 37.5276L90.6138 36.7646L87.3258 36.2431C87.3258 36.2431 81.0108 28.7484 75.2085 24.8175C64.4644 17.5353 36.5453 17.5353 25.7916 24.8175C19.9989 28.7484 13.6839 36.2431 13.6839 36.2431L10.3863 36.7646L14.1385 37.5276C15.7535 41.8351 21.8266 56.2257 35.0464 69.2739C42.0382 76.1601 47.0573 80.2841 50.4903 82.7566ZM80.1018 22.5768C90.0625 30.0715 93.8534 36.1562 93.8534 36.1562C93.8534 36.1562 79.4925 80.458 50.4903 93.8538C21.4881 80.458 7.13693 36.1562 7.13693 36.1562C7.13693 36.1562 10.9278 30.0715 20.8789 22.5768C33.5958 13.0056 67.3849 13.0056 80.1018 22.5768Z" fill="white"/>
<path fill-rule="evenodd" clip-rule="evenodd" d="M50.9641 19.3422L50.7127 19.3326H50.4903H50.2679L50.0261 19.3422C40.5102 19.4002 31.0717 21.2159 25.7818 24.7991C19.9891 28.7299 13.6742 36.2246 13.6742 36.2246L10.3765 36.7462C20.8982 23.0799 30.5495 18.0963 49.9391 17.2271V17.1885C50.1228 17.1981 50.3065 17.2078 50.4903 17.2078C50.674 17.2078 50.8578 17.1981 51.0415 17.1885V17.2271C70.4505 18.0963 80.0824 23.0799 90.604 36.7462L87.316 36.2246C87.316 36.2246 81.0011 28.7299 75.1987 24.7991C69.9186 21.2159 60.4704 19.4002 50.9641 19.3422Z" fill="#00C297"/>
<path fill-rule="evenodd" clip-rule="evenodd" d="M50.4903 88.088C33.354 77.58 20.5114 61.9338 10.3766 36.7551L7.13693 36.1562C7.13693 36.1562 21.4881 80.4581 50.4903 93.8539C79.4925 80.4581 93.8534 36.1562 93.8534 36.1562L90.6041 36.7551C80.479 61.9338 64.8222 79.8979 50.4903 88.088Z" fill="#00C297"/>
<path fill-rule="evenodd" clip-rule="evenodd" d="M30.24 20.8875L18.3838 9.53916L53.4011 3.82155C55.5383 3.47386 57.6659 3.1648 59.8031 2.98129C61.4277 2.83642 63.0717 2.7495 64.6771 2.85574C67.3655 3.05856 69.9185 3.82155 71.93 5.45377C73.7094 6.90249 74.8602 8.82446 75.4888 11.0458C75.8466 12.3304 75.9917 13.6728 76.0691 15.025C76.1754 16.7248 76.1561 18.444 76.1077 20.1534L75.9143 25.9869L76.0014 25.9676L75.3534 45.7378C75.2954 47.4473 75.1987 49.1761 74.9763 50.8953C74.8119 52.2667 74.5798 53.6382 74.1543 54.9903C73.4193 57.3082 72.2201 59.4524 70.5181 61.3164C68.7097 63.3156 66.4855 64.8126 64.0098 65.8364C62.4238 66.4931 60.7701 66.9084 59.1358 67.2947C56.8245 67.8259 54.4939 68.2412 52.1826 68.6179C49.8133 69.0042 47.4343 69.3616 45.065 69.5934C43.392 69.7576 41.7093 69.8831 40.0653 69.7383C37.4929 69.5161 35.114 68.6952 33.1895 67.1306C31.3908 65.6722 30.2206 63.7502 29.5727 61.5192C29.2052 60.2443 29.0505 58.8922 28.9635 57.5497C28.8474 55.8499 28.8571 54.1404 28.9151 52.4212L29.7564 26.8272C29.8145 25.1177 29.9112 23.3889 30.1336 21.6698C30.1626 21.4187 30.2013 21.1482 30.24 20.8875Z" fill="#007E94"/>
<path fill-rule="evenodd" clip-rule="evenodd" d="M71.0695 31.4053L57.6853 33.5977L51.4284 43.391L57.6853 42.3673L57.4436 50.0262C57.4049 51.1755 57.2115 52.7401 56.2637 53.7059C55.2967 54.691 53.4689 55.087 52.2794 55.2898C51.0706 55.483 49.2042 55.6955 48.2951 55.0098C47.4054 54.3434 47.3184 52.8174 47.3474 51.6777L48.3048 22.4715C48.3435 21.3222 48.5369 19.7576 49.4846 18.7918C50.4614 17.797 52.3375 17.3914 53.527 17.1982C54.7261 17.005 56.5539 16.8119 57.4532 17.488C58.3526 18.1544 58.4396 19.6803 58.4009 20.82L58.2656 24.944L71.2725 22.8192L71.3499 20.5013C71.3983 18.9174 71.4176 17.3334 71.3209 15.7881C71.2629 14.7644 71.1565 13.6633 70.8857 12.7072C70.4892 11.2778 69.7736 10.0609 68.6615 9.15299C67.3559 8.0906 65.6346 7.63667 63.8455 7.50145C62.5303 7.40487 61.1087 7.48214 59.7548 7.60769C57.753 7.78154 55.7319 8.08094 53.7204 8.40932L53.6237 8.42863L36.3616 11.2295L28.6251 12.4947L35.3849 18.9656C35.1334 19.8832 34.9884 20.849 34.882 21.7568C34.6789 23.3408 34.5919 24.9344 34.5435 26.5086L33.7022 52.1027C33.6538 53.6673 33.6441 55.2512 33.7409 56.7869C33.8085 57.8106 33.9149 58.902 34.1857 59.8485C34.6112 61.3069 35.3365 62.5431 36.468 63.4606C37.7155 64.4747 39.2725 64.977 40.9842 65.1315C42.2607 65.2377 43.7693 65.1122 45.0942 64.9866C47.3474 64.7645 49.6297 64.4168 51.8926 64.0498C54.0975 63.6924 56.3218 63.2964 58.5267 62.7942C59.8225 62.4948 61.3021 62.1375 62.569 61.6159C64.2807 60.9012 65.8377 59.8871 67.1239 58.4674C68.3133 57.1539 69.116 55.6762 69.6285 54.0826C69.9573 53.0299 70.1411 51.8902 70.2668 50.8375C70.4699 49.2535 70.5569 47.6599 70.6053 46.0857L71.0695 31.4053Z" fill="white"/>
</svg>
