<svg width="220" height="41" viewBox="0 0 220 41" fill="none" xmlns="http://www.w3.org/2000/svg"><g clip-path="url(#a)"><path fill-rule="evenodd" clip-rule="evenodd" d="M8.146 6.223 5.066 3.19 21.48.438c.89-.148 1.785-.278 2.68-.36.722-.067 1.448-.106 2.17-.051 1.31.098 2.578.494 3.59 1.344.911.76 1.503 1.768 1.813 2.908.134.49.205.995.252 1.501A12.55 12.55 0 0 1 34.1 7.05c1.68 1.262 3.28 2.669 4.681 4.236.553.623 1.114 1.282 1.55 1.99l.651 1.043-.38 1.168c-.746 2.297-1.738 4.558-2.794 6.729-.216.45-.444.897-.671 1.352 0 0-6.235 12.415-15.535 16.918L20.487 41l-1.11-.514C10.77 37.551 4.293 24.532 3.17 22.216c-1.056-2.171-2.049-4.432-2.794-6.729L0 14.32l.647-1.042c.44-.705.997-1.372 1.55-1.99C3.598 9.718 5.2 8.311 6.88 7.05c.404-.302.828-.576 1.267-.827Z" fill="#00C297"/><path fill-rule="evenodd" clip-rule="evenodd" d="M20.487 4.737c2.688-.035 5.945.377 8.5 1.13 1.554.458 3.123 1.116 4.422 2.096 1.613 1.215 3.17 2.578 4.517 4.087.49.545 1.043 1.203 1.436 1.83l.369.592-.216.666c-.71 2.199-1.727 4.507-2.31 6.58-2.123 4.37-4.83 8.72-8.205 12.231-2.147 2.238-4.63 4.198-7.46 5.498l-.632.294-.631-.294c-2.83-1.305-5.31-3.264-7.46-5.498-3.37-3.511-6.078-7.861-8.201-12.23-1.005-2.074-2.021-4.382-2.731-6.58l-.216-.667.369-.592c.392-.627.945-1.281 1.436-1.83 1.346-1.509 2.904-2.872 4.516-4.087 1.303-.976 2.873-1.638 4.423-2.097 2.55-.752 5.807-1.164 8.495-1.129Z" fill="#007E94"/><path fill-rule="evenodd" clip-rule="evenodd" d="M20.487 33.58c1.393-.999 3.434-2.672 6.27-5.47 5.365-5.295 7.83-11.134 8.488-12.882l1.523-.31-1.334-.21s-2.563-3.042-4.917-4.637c-4.36-2.955-15.688-2.955-20.052 0-2.35 1.595-4.913 4.636-4.913 4.636l-1.338.212 1.523.31c.655 1.747 3.12 7.586 8.484 12.88 2.837 2.795 4.873 4.468 6.266 5.472ZM32.503 9.163c4.041 3.04 5.58 5.51 5.58 5.51s-5.828 17.976-17.596 23.412C8.72 32.648 2.896 14.672 2.896 14.672s1.538-2.47 5.576-5.51c5.16-3.884 18.87-3.884 24.03 0Z" fill="#fff"/><path fill-rule="evenodd" clip-rule="evenodd" d="m20.68 7.85-.102-.004h-.181l-.098.004c-3.861.023-7.691.76-9.838 2.214C8.111 11.659 5.55 14.7 5.55 14.7l-1.339.211c4.27-5.545 8.186-7.567 16.054-7.92v-.015c.074.003.149.007.223.007.075 0 .15-.003.224-.007v.015c7.875.353 11.784 2.375 16.053 7.92L35.43 14.7s-2.563-3.041-4.917-4.636C28.371 8.61 24.537 7.873 20.68 7.85Z" fill="#00C297"/><path fill-rule="evenodd" clip-rule="evenodd" d="M20.487 35.744C13.534 31.48 8.323 25.131 4.21 14.914l-1.314-.242s5.823 17.976 17.591 23.412c11.768-5.436 17.596-23.412 17.596-23.412l-1.319.243C32.656 25.13 26.303 32.42 20.487 35.744Z" fill="#00C297"/><path fill-rule="evenodd" clip-rule="evenodd" d="M12.27 8.476 7.46 3.872l14.208-2.32c.868-.141 1.73-.267 2.598-.341.66-.06 1.326-.094 1.978-.051 1.09.082 2.127.392 2.943 1.054.722.588 1.189 1.368 1.444 2.269.145.521.204 1.066.235 1.615.044.69.036 1.387.016 2.08l-.079 2.368.036-.008-.263 8.022a22.171 22.171 0 0 1-.153 2.093 9.096 9.096 0 0 1-.334 1.661 6.843 6.843 0 0 1-1.475 2.567 7.275 7.275 0 0 1-2.641 1.834c-.643.267-1.314.435-1.978.592-.938.216-1.883.384-2.821.537-.961.157-1.927.302-2.888.396-.679.066-1.362.117-2.029.058-1.044-.09-2.009-.423-2.79-1.058-.73-.591-1.205-1.371-1.467-2.277-.15-.517-.212-1.066-.248-1.61a20.41 20.41 0 0 1-.02-2.081l.342-10.385a22.169 22.169 0 0 1 .196-2.41Z" fill="#007E94"/><path fill-rule="evenodd" clip-rule="evenodd" d="m28.838 12.744-5.431.89-2.54 3.974 2.54-.416-.098 3.108c-.016.466-.095 1.101-.479 1.493-.392.4-1.134.56-1.617.643-.49.078-1.248.165-1.616-.114-.361-.27-.397-.89-.385-1.352l.389-11.85c.015-.467.094-1.102.478-1.494.396-.403 1.158-.568 1.64-.646.487-.079 1.229-.157 1.594.117.364.27.4.89.384 1.352l-.055 1.674 5.278-.863.031-.94c.02-.643.028-1.286-.011-1.913-.024-.415-.067-.862-.177-1.25-.16-.58-.451-1.074-.903-1.442-.53-.431-1.228-.615-1.954-.67-.533-.04-1.11-.008-1.66.043-.812.07-1.632.192-2.448.325l-.04.008-7.004 1.137-3.139.513 2.743 2.626c-.102.372-.16.764-.204 1.132a19.94 19.94 0 0 0-.137 1.928l-.342 10.386c-.02.634-.023 1.277.016 1.9.027.416.07.859.18 1.243.173.591.467 1.093.926 1.465.507.412 1.138.616 1.833.678.518.043 1.13-.007 1.668-.058.914-.09 1.84-.232 2.758-.38a43.316 43.316 0 0 0 2.692-.51c.526-.122 1.126-.267 1.64-.478a5.107 5.107 0 0 0 1.849-1.278 4.797 4.797 0 0 0 1.016-1.779 7.43 7.43 0 0 0 .259-1.317c.082-.642.118-1.29.137-1.928l.189-5.957Z" fill="#fff"/><path d="M49.804 13.21h16.32l-.832 3.143h-4.894l-4.163 15.519H49.73l4.163-15.519h-4.92l.832-3.143Zm33.326 0c.314 0 .612.027.887.078.314.067.573.157.781.259.247.106.467.274.675.415.169.169.365.455.467.702.106.247.196.521.235.83.067.314.09.718.051 1.094-.039.247-.066.572-.13.886-.066.313-.129.69-.235 1.038l-2.134 8.007c-.102.376-.22.768-.365 1.117-.106.352-.275.678-.416.987-.141.376-.365.702-.573 1.015-.247.314-.495.611-.702.858-.377.377-.86.702-1.276.91-.274.145-.596.274-.91.313-.314.04-.64.106-.989.106H67.564c-.275 0-.573-.012-.781-.078a1.889 1.889 0 0 1-.652-.26c-.247-.144-.482-.313-.624-.52-.168-.208-.325-.427-.388-.702a4.811 4.811 0 0 1-.184-.701c-.04-.247-.09-.533-.051-.808 0-.247-.012-.505.05-.78.04-.246.09-.505.13-.752l2.445-9.202c.106-.352.235-.752.337-1.066.145-.313.298-.638.444-.909.145-.313.376-.584.545-.858.169-.274.416-.505.624-.674.208-.208.455-.376.702-.545a6.35 6.35 0 0 1 .754-.388 7.12 7.12 0 0 1 1.016-.258c.314-.04.703-.106 1.017-.106H83.13v-.008Zm-7.495 3.092c-.168 0-.325.04-.467.078a3.572 3.572 0 0 0-.416.236 1.862 1.862 0 0 0-.388.415c-.067.168-.169.353-.235.494L71.37 27.843c-.04.102 0 .235 0 .337.04.106.118.247.157.314.102.067.22.168.286.207a.712.712 0 0 0 .338.102h3.488a.81.81 0 0 0 .365-.102c.145-.039.287-.156.389-.258.106-.067.22-.208.286-.314a2.27 2.27 0 0 0 .185-.364l2.81-10.475c.038-.106.027-.26.027-.365-.04-.106-.09-.247-.157-.313-.063-.067-.157-.169-.26-.208-.105-.04-.207-.106-.313-.106h-3.336v.004Zm28.716-3.037c.275 0 .507.027.754.027.247.04.467.118.679.157.247.066.506.157.675.258.168.102.353.275.494.416.141.141.275.353.314.494.106.168.169.403.208.572.039.208.067.415.027.623 0 .208-.039.443-.078.65l-.938 3.406a1.79 1.79 0 0 1-.235.65 3.292 3.292 0 0 1-.416.522 1.823 1.823 0 0 1-.467.388 2.794 2.794 0 0 1-.546.313c-.106.04-.298.118-.467.157-.145.067-.325.09-.494.13a3.32 3.32 0 0 1-.781.101c-.247 0-.494.028-.702.028.247.039.494.09.702.13.247.066.467.144.675.183.314.063.624.22.832.365.106.066.208.14.314.207.063.067.168.196.235.26.106.14.208.352.208.52 0 .208.012.443-.051.65l-1.118 4.21c-.102.313-.208.611-.314.858-.145.274-.326.494-.495.701a3.004 3.004 0 0 1-.545.522c-.208.14-.416.337-.624.443-.208.102-.428.219-.596.258-.208.067-.444.169-.652.208-.247.067-.533.13-.781.13a5.06 5.06 0 0 1-.73.05H85.41l4.944-18.583h13.997v-.004Zm-10.28 10.498-1.354 5.044h4.214a.63.63 0 0 0 .287-.078c.105-.04.22-.169.286-.235a1.66 1.66 0 0 0 .259-.314l.13-.337.91-3.378v-.259c-.04-.062-.09-.14-.13-.207-.066-.04-.168-.118-.235-.157a.455.455 0 0 0-.236-.078H94.07Zm2.005-7.434-1.17 4.393h4.113c.106 0 .22-.011.286-.078a.7.7 0 0 0 .314-.184l.259-.259a.62.62 0 0 0 .157-.286l.781-2.884c0-.067.012-.196-.024-.259-.039-.066-.066-.141-.129-.208-.067-.039-.145-.117-.208-.156a.544.544 0 0 0-.236-.079h-4.143Zm15.209-3.092h14.393l-.808 3.014h-7.809l-1.197 4.471h7.601l-.832 3.042h-7.6l-1.354 5.067h7.989l-.808 3.014h-14.551l4.976-18.608Z" fill="#00C398"/><mask id="b" fill="#fff"><path d="M140.617 32.217h-14.209c-.369 0-.718-.04-1.004-.118-.255-.035-.51-.164-.718-.27l-.083-.043a4.692 4.692 0 0 1-.694-.564c-.197-.275-.318-.518-.424-.73l-.079-.223c-.055-.172-.109-.34-.145-.513a4.303 4.303 0 0 1-.082-.745c.023-.176.031-.321.039-.462.012-.165.02-.33.043-.474.039-.282.094-.608.165-.89l2.476-9.288a5.3 5.3 0 0 1 .22-.697c.035-.095.07-.192.098-.283.165-.36.326-.697.475-.952.078-.192.247-.435.4-.646l.11-.157a5.7 5.7 0 0 1 .616-.73c.2-.242.467-.458.683-.63l.082-.059c.157-.082.31-.18.459-.274.106-.067.208-.13.306-.188.287-.122.581-.22.875-.298l.271-.047c.2-.036.404-.07.628-.07h13.836l-1.005 3.754h-9.637a1.03 1.03 0 0 0-.259.054 2.889 2.889 0 0 0-.349.177.763.763 0 0 0-.247.168l-.079.118c-.031.047-.086.125-.098.157l-2.825 10.596a.397.397 0 0 0-.032.153c.036.094.059.157.095.192.043.043.121.122.176.169l.039.015c.04.016.106.044.134.048h2.696a.6.6 0 0 0 .235-.044c.051-.023.133-.078.181-.113.051-.035.098-.07.141-.094a.47.47 0 0 0 .192-.192l.051-.067a.61.61 0 0 0 .122-.204l.957-3.609h-2.55l1.008-3.73h9.877l-3.167 11.803Zm-9.5-18.611c-.169 0-.333.031-.502.059-.083.015-.165.027-.251.043a5.52 5.52 0 0 0-.691.235c-.051.031-.145.094-.243.153-.165.102-.334.207-.51.302-.161.14-.389.32-.565.533a4.92 4.92 0 0 0-.55.646l-.117.165c-.13.184-.275.392-.342.548-.157.279-.31.592-.447.894-.016.063-.055.16-.09.266-.075.208-.153.42-.197.62l-2.476 9.3c-.059.25-.11.552-.149.814-.019.13-.027.275-.035.416-.012.16-.02.321-.043.466a4.3 4.3 0 0 0 .074.557c.028.14.075.278.118.419l.051.165c.082.152.192.368.314.548.11.098.314.267.502.4l.043.02c.173.09.354.18.526.203.271.07.553.102.86.102h13.639l2.771-10.33h-8.343l-.608 2.25h2.551l-1.217 4.573a1.418 1.418 0 0 1-.274.474c-.134.204-.283.34-.452.42a.293.293 0 0 1-.059.046c-.106.075-.215.153-.329.196a1.286 1.286 0 0 1-.518.102h-2.708c-.153 0-.29-.055-.4-.102l-.126-.055a1.963 1.963 0 0 1-.333-.29c-.149-.152-.212-.321-.255-.435a.96.96 0 0 1 .016-.658l2.825-10.597c.055-.149.125-.255.192-.349l.059-.09c.118-.192.349-.349.526-.427.07-.047.259-.137.416-.208.153-.058.38-.11.545-.11h9.057l.608-2.272h-12.863v-.012Z"/></mask><path d="M140.617 32.217h-14.209c-.369 0-.718-.04-1.004-.118-.255-.035-.51-.164-.718-.27l-.083-.043a4.692 4.692 0 0 1-.694-.564c-.197-.275-.318-.518-.424-.73l-.079-.223c-.055-.172-.109-.34-.145-.513a4.303 4.303 0 0 1-.082-.745c.023-.176.031-.321.039-.462.012-.165.02-.33.043-.474.039-.282.094-.608.165-.89l2.476-9.288a5.3 5.3 0 0 1 .22-.697c.035-.095.07-.192.098-.283.165-.36.326-.697.475-.952.078-.192.247-.435.4-.646l.11-.157a5.7 5.7 0 0 1 .616-.73c.2-.242.467-.458.683-.63l.082-.059c.157-.082.31-.18.459-.274.106-.067.208-.13.306-.188.287-.122.581-.22.875-.298l.271-.047c.2-.036.404-.07.628-.07h13.836l-1.005 3.754h-9.637a1.03 1.03 0 0 0-.259.054 2.889 2.889 0 0 0-.349.177.763.763 0 0 0-.247.168l-.079.118c-.031.047-.086.125-.098.157l-2.825 10.596a.397.397 0 0 0-.032.153c.036.094.059.157.095.192.043.043.121.122.176.169l.039.015c.04.016.106.044.134.048h2.696a.6.6 0 0 0 .235-.044c.051-.023.133-.078.181-.113.051-.035.098-.07.141-.094a.47.47 0 0 0 .192-.192l.051-.067a.61.61 0 0 0 .122-.204l.957-3.609h-2.55l1.008-3.73h9.877l-3.167 11.803Zm-9.5-18.611c-.169 0-.333.031-.502.059-.083.015-.165.027-.251.043a5.52 5.52 0 0 0-.691.235c-.051.031-.145.094-.243.153-.165.102-.334.207-.51.302-.161.14-.389.32-.565.533a4.92 4.92 0 0 0-.55.646l-.117.165c-.13.184-.275.392-.342.548-.157.279-.31.592-.447.894-.016.063-.055.16-.09.266-.075.208-.153.42-.197.62l-2.476 9.3c-.059.25-.11.552-.149.814-.019.13-.027.275-.035.416-.012.16-.02.321-.043.466a4.3 4.3 0 0 0 .074.557c.028.14.075.278.118.419l.051.165c.082.152.192.368.314.548.11.098.314.267.502.4l.043.02c.173.09.354.18.526.203.271.07.553.102.86.102h13.639l2.771-10.33h-8.343l-.608 2.25h2.551l-1.217 4.573a1.418 1.418 0 0 1-.274.474c-.134.204-.283.34-.452.42a.293.293 0 0 1-.059.046c-.106.075-.215.153-.329.196a1.286 1.286 0 0 1-.518.102h-2.708c-.153 0-.29-.055-.4-.102l-.126-.055a1.963 1.963 0 0 1-.333-.29c-.149-.152-.212-.321-.255-.435a.96.96 0 0 1 .016-.658l2.825-10.597c.055-.149.125-.255.192-.349l.059-.09c.118-.192.349-.349.526-.427.07-.047.259-.137.416-.208.153-.058.38-.11.545-.11h9.057l.608-2.272h-12.863v-.012Z" fill="#00C398" stroke="#00C398" stroke-width="16" mask="url(#b)"/><mask id="c" fill="#fff"><path d="M164.181 32.244h-7.719l-.596-4.938h-7.055l-3.591 4.938h-4.034l13.75-19.324h7.055l2.19 19.324Zm-7.063-.74h6.231l-2.025-17.843h-6.011l-12.695 17.843h2.217l3.591-4.938h8.091l.601 4.938Zm-.738-7.317h-6.247l5.231-7.728 1.016 7.728Zm-4.85-.74h4.006l-.651-4.954-3.355 4.953Z"/></mask><path d="M164.181 32.244h-7.719l-.596-4.938h-7.055l-3.591 4.938h-4.034l13.75-19.324h7.055l2.19 19.324Zm-7.063-.74h6.231l-2.025-17.843h-6.011l-12.695 17.843h2.217l3.591-4.938h8.091l.601 4.938Zm-.738-7.317h-6.247l5.231-7.728 1.016 7.728Zm-4.85-.74h4.006l-.651-4.954-3.355 4.953Z" fill="#00C398"/><path d="M164.181 32.244v8h8.958l-1.009-8.9-7.949.9Zm-7.719 0-7.942.96.851 7.04h7.091v-8Zm-.596-4.938 7.942-.959-.85-7.04h-7.092v8Zm-7.055 0v-8h-4.075l-2.396 3.296 6.471 4.704Zm-3.591 4.938v8h4.074l2.396-3.295-6.47-4.705Zm-4.034 0-6.518-4.638-8.993 12.638h15.511v-8Zm13.75-19.324v-8h-4.126l-2.392 3.362 6.518 4.638Zm7.055 0 7.949-.9-.804-7.1h-7.145v8Zm-4.873 18.584-7.942.965.855 7.035h7.087v-8Zm6.231 0v8h8.959l-1.01-8.902-7.949.902Zm-2.025-17.843 7.949-.902-.805-7.098h-7.144v8Zm-6.011 0v-8h-4.127l-2.392 3.362 6.519 4.638Zm-12.695 17.843-6.518-4.638-8.991 12.638h15.509v-8Zm2.217 0v8h4.075l2.396-3.296-6.471-4.704Zm3.591-4.938v-8h-4.074l-2.396 3.295 6.47 4.705Zm8.091 0 7.942-.966-.856-7.034h-7.086v8Zm-.137-2.38v8h9.121l-1.189-9.042-7.932 1.043Zm-6.247 0-6.625-4.483-8.45 12.484h15.075v-8Zm5.231-7.727 7.931-1.043-2.747-20.89-11.81 17.449 6.626 4.484Zm-3.834 6.987-6.624-4.486-8.457 12.486h15.081v-8Zm4.006 0v8h9.121l-1.189-9.043-7.932 1.043Zm-.651-4.953 7.932-1.043-2.746-20.88-11.81 17.436 6.624 4.487Zm9.296 5.751h-7.719v16h7.719v-16Zm.224 7.04-.597-4.937-15.884 1.919.596 4.938 15.885-1.92Zm-8.539-11.978h-7.055v16h7.055v-16Zm-13.526 3.296-3.59 4.938 12.94 9.409 3.591-4.938-12.941-9.41Zm2.88 1.642h-4.034v16h4.034v-16Zm2.484 12.638 13.75-19.324-13.036-9.276-13.75 19.324 13.036 9.276Zm7.232-15.962h7.055v-16h-7.055v16Zm-.894-7.1 2.19 19.325 15.898-1.802-2.19-19.324-15.898 1.802Zm3.076 25.684h6.231v-16h-6.231v16Zm14.18-8.902-2.025-17.843-15.898 1.804 2.025 17.843 15.898-1.804ZM161.324 5.66h-6.011v16h6.011v-16Zm-12.53 3.362L136.1 26.866l13.037 9.275 12.694-17.843-13.037-9.275Zm-6.176 30.48h2.217v-16h-2.217v16Zm8.688-3.295 3.59-4.938-12.94-9.41-3.591 4.939 12.941 9.41Zm-2.88-1.642h8.091v-16h-8.091v16Zm.15-7.035.6 4.938 15.883-1.931-.6-4.938-15.883 1.931Zm7.804-11.344h-6.247v16h6.247v-16Zm.378 12.484 5.231-7.728-13.251-8.968-5.23 7.728 13.25 8.968Zm-9.326-11.17 1.016 7.729 15.864-2.086-1.017-7.728-15.863 2.086Zm4.098 13.945h4.006v-16h-4.006v16Zm11.938-9.043-.651-4.953-15.864 2.086.652 4.953 15.863-2.086Zm-15.207-8.397-3.355 4.954 13.248 8.972 3.355-4.953-13.248-8.973Z" fill="#00C398" mask="url(#c)"/><mask id="d" fill="#fff"><path d="M197.331 32.245h-7.475l4.104-15.41a.754.754 0 0 0 .039-.294 1.328 1.328 0 0 0-.035-.09c-.012-.031-.023-.062-.035-.09a.532.532 0 0 0-.157-.149 1.538 1.538 0 0 0-.338-.055h-2.656a2.113 2.113 0 0 0-.294.067.808.808 0 0 0-.185.09 1.973 1.973 0 0 1-.118.07c-.031.028-.066.055-.102.087-.058.047-.121.098-.192.184a.768.768 0 0 0-.125.321l-4.156 15.269h-7.491l4.105-15.41c.039-.105.043-.215.039-.294l-.035-.09a2.113 2.113 0 0 0-.036-.09.52.52 0 0 0-.157-.149 1.53 1.53 0 0 0-.337-.055h-2.657a2.145 2.145 0 0 0-.294.067.808.808 0 0 0-.185.09c-.043.024-.082.051-.117.07a1.21 1.21 0 0 1-.102.087 1.174 1.174 0 0 0-.193.184.768.768 0 0 0-.125.321l-4.195 15.273h-7.456l5.196-19.454h25.608c.914 0 1.742.22 2.456.65.581.31 1.021.827 1.374 1.623.114.27.18.545.259.905.07.341.086.682.086 1.09-.016.164-.019.286-.023.415-.008.259-.016.521-.087.796-.043.38-.149.83-.267 1.297l-3.641 12.674Zm-6.514-.741h5.953l3.488-12.13c.083-.328.208-.842.248-1.21l.011-.059c.055-.2.063-.42.071-.654.004-.145.008-.287.023-.431a4.97 4.97 0 0 0-.07-.902 4.37 4.37 0 0 0-.212-.764c-.279-.631-.612-1.035-1.056-1.27-.624-.376-1.302-.556-2.087-.556h-25.039L167.348 31.5h5.925l4.038-14.7c.039-.22.125-.42.266-.615.126-.15.22-.227.307-.298.035-.027.066-.055.098-.086l.133-.087c.02-.007.043-.027.071-.043.098-.058.227-.14.392-.18.039-.012.326-.086.475-.086h2.656c.154 0 .346.031.566.09.2.07.396.227.506.388.078.094.117.2.153.294.015.035.027.078.047.117l.031.153c.004.169.004.388-.078.6l-3.846 14.441h5.937l.071-.31 3.951-14.39c.04-.22.126-.419.267-.615a2.11 2.11 0 0 1 .306-.298.912.912 0 0 0 .098-.086l.134-.086c.019-.008.043-.028.07-.043.099-.06.228-.141.393-.18a2.25 2.25 0 0 1 .475-.087h2.656c.153 0 .346.031.565.09.2.07.397.228.506.388.079.094.118.2.153.294.016.036.028.079.048.118l.031.153c.004.168.004.388-.079.6l-3.853 14.468Z"/></mask><path d="M197.331 32.245h-7.475l4.104-15.41a.754.754 0 0 0 .039-.294 1.328 1.328 0 0 0-.035-.09c-.012-.031-.023-.062-.035-.09a.532.532 0 0 0-.157-.149 1.538 1.538 0 0 0-.338-.055h-2.656a2.113 2.113 0 0 0-.294.067.808.808 0 0 0-.185.09 1.973 1.973 0 0 1-.118.07c-.031.028-.066.055-.102.087-.058.047-.121.098-.192.184a.768.768 0 0 0-.125.321l-4.156 15.269h-7.491l4.105-15.41c.039-.105.043-.215.039-.294l-.035-.09a2.113 2.113 0 0 0-.036-.09.52.52 0 0 0-.157-.149 1.53 1.53 0 0 0-.337-.055h-2.657a2.145 2.145 0 0 0-.294.067.808.808 0 0 0-.185.09c-.043.024-.082.051-.117.07a1.21 1.21 0 0 1-.102.087 1.174 1.174 0 0 0-.193.184.768.768 0 0 0-.125.321l-4.195 15.273h-7.456l5.196-19.454h25.608c.914 0 1.742.22 2.456.65.581.31 1.021.827 1.374 1.623.114.27.18.545.259.905.07.341.086.682.086 1.09-.016.164-.019.286-.023.415-.008.259-.016.521-.087.796-.043.38-.149.83-.267 1.297l-3.641 12.674Zm-6.514-.741h5.953l3.488-12.13c.083-.328.208-.842.248-1.21l.011-.059c.055-.2.063-.42.071-.654.004-.145.008-.287.023-.431a4.97 4.97 0 0 0-.07-.902 4.37 4.37 0 0 0-.212-.764c-.279-.631-.612-1.035-1.056-1.27-.624-.376-1.302-.556-2.087-.556h-25.039L167.348 31.5h5.925l4.038-14.7c.039-.22.125-.42.266-.615.126-.15.22-.227.307-.298.035-.027.066-.055.098-.086l.133-.087c.02-.007.043-.027.071-.043.098-.058.227-.14.392-.18.039-.012.326-.086.475-.086h2.656c.154 0 .346.031.566.09.2.07.396.227.506.388.078.094.117.2.153.294.015.035.027.078.047.117l.031.153c.004.169.004.388-.078.6l-3.846 14.441h5.937l.071-.31 3.951-14.39c.04-.22.126-.419.267-.615a2.11 2.11 0 0 1 .306-.298.912.912 0 0 0 .098-.086l.134-.086c.019-.008.043-.028.07-.043.099-.06.228-.141.393-.18a2.25 2.25 0 0 1 .475-.087h2.656c.153 0 .346.031.565.09.2.07.397.228.506.388.079.094.118.2.153.294.016.036.028.079.048.118l.031.153c.004.168.004.388-.079.6l-3.853 14.468Z" fill="#00C398"/><path d="M197.331 32.245v8h6.025l1.664-5.791-7.689-2.21Zm-7.475 0-7.731-2.06-2.679 10.06h10.41v-8Zm4.104-15.41-7.501-2.781-.132.355-.097.367 7.73 2.06Zm.039-.294 7.99-.4-.062-1.245-.438-1.167-7.49 2.812Zm-.035-.09-7.489 2.813.065.172.072.17 7.352-3.155Zm-.035-.09 7.352-3.155-.35-.814-.52-.719-6.482 4.688Zm-.157-.149 3.245-7.312-.576-.256-.61-.162-2.059 7.73Zm-2.994-.055v-8h-.307l-.306.024.613 7.976Zm-.294.067 2.058 7.73.069-.018.068-.02-2.195-7.692Zm-.185.09-4.112-6.862-.09.054-.089.056 4.291 6.752Zm-.118.07L186.3 9.39l-.743.413-.64.559 5.264 6.024Zm-.102.087 4.994 6.25.162-.13.155-.137-5.311-5.983Zm-.192.184-6.188-5.07-.181.22-.164.233 6.533 4.617Zm-.125.321 7.719 2.101.081-.298.058-.304-7.858-1.499Zm-4.156 15.269v8h6.114l1.605-5.9-7.719-2.1Zm-7.491 0-7.73-2.06-2.68 10.06h10.41v-8Zm4.105-15.41-7.501-2.781-.132.355-.098.367 7.731 2.06Zm.039-.294 7.99-.4-.063-1.245-.438-1.167-7.489 2.812Zm-.035-.09-7.49 2.813.065.172.073.17 7.352-3.155Zm-.036-.09 7.352-3.155-.35-.814-.519-.719-6.483 4.688Zm-.157-.149 3.246-7.312-.577-.256-.61-.162-2.059 7.73Zm-2.994-.055v-8h-.307l-.306.024.613 7.976Zm-.294.067 2.059 7.73.068-.018.068-.02-2.195-7.692Zm-.185.09 3.827 7.025.145-.078.141-.085-4.113-6.862Zm-.117.07-3.882-6.995-.979.544-.792.791 5.653 5.66Zm-.102.087-4.908-6.318-.043.034-.043.034 4.994 6.25Zm-.193.184-6.188-5.07-.18.22-.164.233 6.532 4.617Zm-.125.321 7.714 2.12.085-.308.059-.313-7.858-1.499Zm-4.195 15.273v8h6.099l1.615-5.882-7.714-2.118Zm-7.456 0-7.729-2.065-2.687 10.065h10.416v-8Zm5.196-19.454v-8h-6.144l-1.585 5.936 7.729 2.064Zm28.064.65-4.134 6.85.183.11.188.1 3.763-7.06Zm1.374 1.623 7.374-3.103-.031-.072-.031-.071-7.312 3.246Zm.259.905 7.834-1.623-.009-.04-.008-.038-7.817 1.701Zm.086 1.09 7.964.76.036-.38v-.38h-8Zm-.11 1.21-7.747-1.994-.139.539-.063.553 7.949.903Zm-.267 1.298 7.689 2.209.036-.125.032-.126-7.757-1.958Zm-10.155 11.933-7.73-2.059-2.679 10.059h10.409v-8Zm5.953 0v8h6.023l1.665-5.789-7.688-2.211Zm3.488-12.13 7.689 2.212.038-.134.034-.135-7.761-1.942Zm.248-1.21-7.845-1.571-.072.36-.038.364 7.955.847Zm.011-.059-7.714-2.12-.075.272-.055.277 7.844 1.571Zm.071-.654 7.995.267.001-.026.001-.025-7.997-.216Zm.023-.431 7.954.86.052-.477-.006-.481-8 .098Zm-.07-.902 7.852-1.529-.011-.058-.012-.058-7.829 1.645Zm-.212-.764 7.387-3.07-.033-.081-.036-.08-7.318 3.231Zm-1.056-1.27-4.131 6.851.189.114.194.103 3.748-7.068Zm-27.126-.556v-8h-6.144l-1.586 5.936 7.73 2.064ZM167.348 31.5l-7.73-2.064-2.687 10.064h10.417v-8Zm5.925 0v8h6.099l1.615-5.881-7.714-2.119Zm4.038-14.7 7.714 2.119.097-.352.064-.359-7.875-1.408Zm.266-.615-6.116-5.157-.195.232-.178.246 6.489 4.679Zm.307-.298-4.908-6.318-.078.06-.076.063 5.062 6.195Zm.098-.086-4.342-6.72-.712.46-.6.6 5.654 5.66Zm.133-.087-2.968-7.429-.721.289-.653.421 4.342 6.72Zm.071-.043 3.965 6.949.074-.043.073-.043-4.112-6.863Zm.392-.18 1.851 7.783.224-.053.221-.066-2.296-7.664Zm3.697.004 2.659-7.545-.292-.103-.3-.08-2.067 7.728Zm.506.388-6.604 4.516.216.316.245.293 6.143-5.125Zm.153.294-7.49 2.812.084.223.097.218 7.309-3.253Zm.047.117 7.836-1.61-.212-1.03-.471-.94-7.153 3.58Zm.031.153 7.998-.186-.017-.719-.144-.704-7.837 1.61Zm-.078.6-7.455-2.903-.161.415-.115.43 7.731 2.058Zm-3.846 14.441-7.73-2.058-2.679 10.058h10.409v-8Zm5.937 0v8h6.38l1.42-6.22-7.8-1.78Zm.071-.31-7.715-2.118-.046.169-.039.17 7.8 1.78Zm3.951-14.39 7.715 2.119.096-.352.064-.359-7.875-1.408Zm.267-.615-6.116-5.157-.196.232-.177.247 6.489 4.678Zm.306-.298-4.907-6.318-.078.06-.077.063 5.062 6.195Zm.098-.086-4.342-6.72-.711.46-.6.6 5.653 5.66Zm.134-.086-2.968-7.43-.722.289-.652.422 4.342 6.719Zm.07-.043 3.966 6.948.074-.042.072-.044-4.112-6.862Zm.393-.18 1.851 7.782.268-.064.264-.082-2.383-7.637Zm3.696.003 2.66-7.545-.293-.103-.299-.08-2.068 7.728Zm.506.388-6.603 4.516.216.316.245.294 6.142-5.126Zm.153.294-7.489 2.812.084.223.097.218 7.308-3.253Zm.048.118 7.836-1.61-.212-1.03-.471-.942-7.153 3.582Zm.031.153 7.998-.187-.017-.718-.145-.705-7.836 1.61Zm-.079.6-7.454-2.904-.162.415-.114.43 7.73 2.058Zm2.661 7.209h-7.475v16h7.475v-16Zm.255 10.059 4.105-15.41-15.461-4.118-4.105 15.41 15.461 4.118Zm3.875-14.687c.571-1.54.559-2.87.528-3.476l-15.98.8a7.27 7.27 0 0 1 .45-2.887l15.002 5.563Zm.028-5.888-.048-.126c-.025-.063-.068-.174-.125-.306l-14.704 6.31c-.045-.106-.076-.187-.089-.22l-.013-.033 14.979-5.625Zm-.035-.09a9.658 9.658 0 0 0-.048-.125c-.025-.063-.068-.174-.125-.308l-14.704 6.31c-.045-.106-.077-.188-.09-.22l-.012-.032 14.979-5.625Zm-1.043-1.966a8.618 8.618 0 0 0-1.119-1.265c-.173-.161-.995-.94-2.275-1.508l-6.491 14.624a7.82 7.82 0 0 1-2.129-1.4 7.35 7.35 0 0 1-.951-1.075l12.965-9.376Zm-4.58-3.191a9.46 9.46 0 0 0-2.397-.325v16a7.292 7.292 0 0 1-1.147-.09 6.029 6.029 0 0 1-.574-.124l4.118-15.461Zm-2.397-.325h-2.656v16h2.656v-16Zm-3.269.024c-.977.075-1.86.345-1.877.35l4.391 15.386a4.485 4.485 0 0 1-.49.113 7.394 7.394 0 0 1-.798.104L190.165 8.18Zm-1.74.312a8.454 8.454 0 0 0-1.696.656c-.287.148-.52.29-.542.303l8.224 13.724c.037-.022-.133.083-.357.198a7.53 7.53 0 0 1-1.512.58l-4.117-15.46Zm-2.417 1.07c.057-.037.157-.099.292-.174l7.763 13.991c.205-.114.384-.223.527-.314l-8.582-13.504Zm-1.091.798.109-.094.016-.012-.002.001-.008.007-.09.075c-.043.037-.104.088-.174.15l10.622 11.966a4.232 4.232 0 0 1-.121.105l-.03.025-.007.006.005-.004a.112.112 0 0 1 .011-.01l.04-.033.066-.055.092-.08-10.529-12.047Zm.169-.14c-.162.129-.765.604-1.387 1.364l12.377 10.14c-.222.27-.449.505-.666.705-.195.18-.361.31-.337.291l-9.987-12.5Zm-1.732 1.817a8.762 8.762 0 0 0-1.451 3.44l15.717 2.997c-.073.38-.199.863-.425 1.4a7.359 7.359 0 0 1-.775 1.398l-13.066-9.235Zm-1.312 2.838-4.155 15.268 15.438 4.202 4.156-15.269-15.439-4.202Zm3.564 9.369h-7.491v16h7.491v-16Zm.24 10.059 4.104-15.41-15.461-4.118-4.104 15.41 15.461 4.118Zm3.874-14.687c.571-1.54.559-2.87.529-3.476l-15.98.8a7.232 7.232 0 0 1 .45-2.887l15.001 5.563Zm.028-5.888-.047-.125c-.025-.063-.068-.174-.126-.307l-14.703 6.31a4.978 4.978 0 0 1-.09-.221c-.012-.031-.021-.056-.013-.032l14.979-5.625Zm-.035-.09a9.658 9.658 0 0 0-.173-.433l-14.703 6.31a4.964 4.964 0 0 1-.09-.22l-.013-.032 14.979-5.625Zm-1.042-1.966a8.679 8.679 0 0 0-1.12-1.265c-.172-.161-.995-.94-2.274-1.508l-6.491 14.624a7.806 7.806 0 0 1-2.13-1.4 7.347 7.347 0 0 1-.95-1.075l12.965-9.376Zm-4.581-3.191a9.456 9.456 0 0 0-2.396-.325v16a7.274 7.274 0 0 1-1.148-.09 6.096 6.096 0 0 1-.574-.124l4.118-15.461Zm-2.396-.325h-2.657v16h2.657v-16Zm-3.27.024a9.746 9.746 0 0 0-1.876.35l4.39 15.386a4.485 4.485 0 0 1-.49.113 7.02 7.02 0 0 1-.798.104L178.424 8.18Zm-1.74.312a8.48 8.48 0 0 0-1.696.656c-.287.148-.519.29-.542.303l8.225 13.724c.036-.022-.133.083-.358.198a7.512 7.512 0 0 1-1.511.58l-4.118-15.46Zm-1.953.796a8.777 8.777 0 0 0-.476.279l-.003.002c-.002 0 0 0 .002-.002l.043-.026c.04-.024.135-.082.262-.153l7.763 13.991c.075-.041.14-.079.191-.11l.126-.075.071-.044.017-.01a.014.014 0 0 0 .004-.003h.001-.001l-.004.003a.395.395 0 0 0-.017.01c-.014.01-.037.023-.065.04a7.308 7.308 0 0 1-.26.148l-7.654-14.05Zm-1.943 1.435c.215-.215.398-.371.503-.458.094-.078.174-.14.14-.113l9.815 12.636a8.787 8.787 0 0 0 .848-.744l-11.306-11.32Zm.557-.503c-.161.128-.764.604-1.387 1.364l12.377 10.14c-.222.27-.449.505-.666.705-.195.18-.361.31-.337.291l-9.987-12.5Zm-1.731 1.817a8.738 8.738 0 0 0-1.451 3.44l15.716 2.997a7.01 7.01 0 0 1-.424 1.399 7.369 7.369 0 0 1-.776 1.399l-13.065-9.235Zm-1.307 2.82-4.195 15.272 15.428 4.237 4.195-15.272-15.428-4.237Zm3.519 9.39h-7.456v16h7.456v-16Zm.274 10.065 5.195-19.454-15.458-4.128-5.196 19.453 15.459 4.129Zm-2.534-13.518h25.608v-16h-25.608v16Zm25.608 0c-.4 0-1.028-.108-1.678-.5l8.269-13.699c-2.079-1.254-4.362-1.801-6.591-1.801v16Zm-1.307-.29a5.377 5.377 0 0 1-1.568-1.26 3.997 3.997 0 0 1-.607-.931l14.624-6.492c-.85-1.915-2.335-4.057-4.922-5.436l-7.527 14.119Zm-2.237-2.334a4.551 4.551 0 0 1-.195-.555l-.015-.057.026.116 15.634-3.403c-.082-.377-.276-1.293-.702-2.307L193.63 18.17Zm-.201-.575a3.98 3.98 0 0 1-.076-.534c-.007-.09-.004-.113-.004 0h16c0-.57-.014-1.561-.252-2.712l-15.668 3.246Zm-.044-1.293c-.041.438-.051.776-.056.932l15.993.486.002-.05a.083.083 0 0 0-.001.021l-.004.062a4.998 4.998 0 0 1-.006.068l-15.928-1.519Zm-.056.932c-.005.167-.004.065.008-.074.016-.174.054-.489.155-.882l15.495 3.99c.325-1.264.33-2.393.335-2.548l-15.993-.486Zm-.039.136a4.301 4.301 0 0 1 .02-.15c-.007.03-.017.078-.034.146l-.06.246 15.513 3.916c.11-.433.348-1.37.459-2.353l-15.898-1.805Zm-.006-.01-3.642 12.674 15.378 4.419 3.641-12.674-15.377-4.418Zm-2.467 22.143h5.953v-16h-5.953v16Zm13.641-5.789 3.489-12.129-15.377-4.422-3.488 12.129 15.376 4.422Zm3.561-12.398c.05-.2.332-1.278.442-2.306l-15.91-1.694c.008-.078.016-.137.021-.174l.012-.074-.005.025-.033.143-.048.195 15.521 3.886Zm.331-1.582.012-.06-15.689-3.14-.012.058 15.689 3.142Zm-.119.49c.35-1.273.351-2.473.352-2.508l-15.991-.533c-.005.154-.003.043.01-.108a6.28 6.28 0 0 1 .201-1.091l15.428 4.24Zm.354-2.558.002-.065-.001.017c-.002.035-.007.13-.021.262l-15.907-1.722c-.056.516-.064.973-.067 1.075l15.994.433Zm.026-.745c-.005-.375-.015-1.291-.218-2.333l-15.705 3.058a4.582 4.582 0 0 1-.074-.544c-.005-.074-.003-.094-.002.014l15.999-.195Zm-.241-2.45c-.072-.341-.254-1.227-.654-2.188l-14.774 6.14a5.178 5.178 0 0 1-.223-.645c-.025-.092-.03-.125-.007-.016l15.658-3.29Zm-.723-2.35c-.725-1.64-2.076-3.754-4.626-5.105l-7.496 14.135a6.075 6.075 0 0 1-1.818-1.472 4.77 4.77 0 0 1-.696-1.095l14.636-6.463Zm-4.243-4.889c-1.973-1.19-4.102-1.705-6.218-1.705v16c-.228 0-.56-.027-.955-.133a4.244 4.244 0 0 1-1.089-.46l8.262-13.702Zm-6.218-1.705h-25.039v16h25.039v-16Zm-32.769 5.936-4.799 17.972 15.459 4.128 4.799-17.972-15.459-4.128Zm2.931 28.036h5.925v-16h-5.925v16Zm13.639-5.881 4.038-14.7-15.429-4.238-4.037 14.7 15.428 4.238Zm4.199-15.41a6.531 6.531 0 0 1-1.119 2.654l-12.979-9.357a9.462 9.462 0 0 0-1.652 3.886l15.75 2.816Zm-1.493 3.133c-.134.16-.292.328-.469.494-.165.155-.302.265-.278.246l-10.124-12.39c-.253.206-.776.643-1.361 1.336l12.232 10.314Zm-.902.863c.278-.216.561-.461.844-.744l-11.307-11.32c.22-.22.441-.41.648-.572l9.815 12.636Zm-.467.315.133-.086-8.684-13.439-.133.087 8.684 13.438Zm-1.241.624c.526-.21.919-.433 1.113-.548.202-.118.356-.222.385-.241l.024-.016-.065.043a7.779 7.779 0 0 1-.389.238L174.22 8.723a8.91 8.91 0 0 0-.428.262l-.085.056c-.026.018.001 0 .007-.004.017-.011.16-.108.351-.22a7.878 7.878 0 0 1 1.082-.532l5.936 14.859Zm1.215-.61c.173-.104-.08.053-.346.186-.317.16-.839.392-1.523.554l-3.702-15.566a9.024 9.024 0 0 0-1.966.72c-.395.198-.763.426-.687.381l8.224 13.725Zm-1.424.62a6.423 6.423 0 0 1-.448.117 5.617 5.617 0 0 1-.695.103 7.33 7.33 0 0 1-.678.03v-16c-.995 0-1.834.192-1.931.212-.248.052-.554.126-.84.212l4.592 15.327Zm-1.821.25h2.656v-16h-2.656v16Zm2.656 0c-.448 0-.797-.043-1.009-.077a4.946 4.946 0 0 1-.493-.104l4.135-15.456a10.225 10.225 0 0 0-2.633-.362v16Zm-2.094-.364a6.957 6.957 0 0 1-1.956-1.063 6.968 6.968 0 0 1-1.482-1.578l13.207-9.032a9.087 9.087 0 0 0-4.45-3.417l-5.319 15.09Zm-2.977-2.032a7.34 7.34 0 0 1-.974-1.51c-.156-.326-.259-.613-.22-.509l14.979-5.624a10.586 10.586 0 0 0-.34-.803 8.712 8.712 0 0 0-1.16-1.804l-12.285 10.25Zm-1.013-1.578c-.087-.195-.145-.348-.168-.408l-.022-.061.009.025a8.667 8.667 0 0 0 .383.89l14.307-7.163c.113.225.194.414.244.539.05.12.084.214.09.23l.003.009-.001-.002-.001-.002-.003-.01-.033-.09-.071-.181c-.031-.076-.07-.172-.119-.282l-14.618 6.506Zm-.481-1.526.032.153 15.673-3.22-.032-.152-15.673 3.22Zm-.13-1.27c.001.026-.01-.271.028-.666a6.801 6.801 0 0 1 .437-1.824l14.91 5.806c.714-1.834.626-3.485.621-3.689l-15.996.373Zm.189-1.646-3.845 14.442 15.461 4.117 3.845-14.441-15.461-4.118Zm3.885 24.5h5.937v-16h-5.937v16Zm13.737-6.22.07-.31-15.599-3.559-.07.31 15.599 3.559Zm-.015.029 3.952-14.39-15.429-4.237-3.952 14.39 15.429 4.237Zm4.112-15.1a6.531 6.531 0 0 1-1.118 2.655l-12.979-9.357a9.478 9.478 0 0 0-1.653 3.885l15.75 2.816Zm-1.492 3.133c-.135.16-.292.328-.469.494-.165.155-.302.265-.279.246L184.558 9.68a10.16 10.16 0 0 0-1.36 1.336L195.43 21.33Zm-.902.863c.278-.216.561-.461.844-.744l-11.307-11.32c.22-.22.441-.41.648-.572l9.815 12.636Zm-.468.315.134-.086-8.684-13.438-.134.086 8.684 13.438Zm-1.24.624c.526-.21.919-.433 1.113-.547.202-.12.356-.223.385-.242l.024-.016a7.702 7.702 0 0 1-.454.281l-7.931-13.896c-.197.112-.349.21-.429.262l-.084.055.006-.004c.017-.011.161-.107.351-.22a7.906 7.906 0 0 1 1.083-.531l5.936 14.858Zm1.214-.61c.174-.104-.08.053-.345.187-.318.16-.839.39-1.523.553l-3.702-15.566a9.005 9.005 0 0 0-1.966.72c-.395.199-.763.427-.688.381l8.224 13.725Zm-1.336.594a6.435 6.435 0 0 1-.562.148 7.073 7.073 0 0 1-1.346.129v-16c-.951 0-1.742.171-1.883.2a10.56 10.56 0 0 0-.976.25l4.767 15.273Zm-1.908.277h2.656v-16h-2.656v16Zm2.656 0a6.37 6.37 0 0 1-1.009-.078 4.889 4.889 0 0 1-.493-.103l4.135-15.457a10.231 10.231 0 0 0-2.633-.362v16Zm-2.094-.365a6.964 6.964 0 0 1-1.957-1.063 6.968 6.968 0 0 1-1.481-1.578l13.207-9.031a9.092 9.092 0 0 0-4.45-3.418l-5.319 15.09Zm-2.977-2.031a7.298 7.298 0 0 1-.974-1.51c-.157-.326-.259-.614-.22-.51l14.979-5.624a9.372 9.372 0 0 0-.341-.803 8.664 8.664 0 0 0-1.159-1.804l-12.285 10.25Zm-1.013-1.58c-.087-.193-.145-.347-.168-.407a3.978 3.978 0 0 1-.013-.036 8.756 8.756 0 0 0 .383.89l14.307-7.163c.113.225.193.414.244.539.049.12.083.215.089.23l.003.009v-.001l-.001-.003a.052.052 0 0 1-.003-.009l-.034-.09a7.673 7.673 0 0 0-.19-.463l-14.617 6.505Zm-.481-1.525.032.153 15.672-3.219-.031-.152-15.673 3.218Zm-.13-1.27c.001.026-.01-.271.028-.666a6.802 6.802 0 0 1 .437-1.824l14.909 5.806c.714-1.834.627-3.485.622-3.689l-15.996.373Zm.189-1.646-3.853 14.47 15.461 4.117 3.853-14.469-15.461-4.118Z" fill="#00C398" mask="url(#d)"/><mask id="e" fill="#fff"><path d="M214.989 32.217h-15.315l5.168-19.352H220l-1.005 3.755h-7.808l-1.001 3.73h7.601l-1.036 3.782h-7.597l-1.158 4.327h7.99l-.997 3.758Zm-14.35-.74h13.781l.608-2.274h-7.989l1.55-5.808h7.601l.632-2.3h-7.597l1.397-5.212h7.808l.609-2.273h-13.625l-4.775 17.866Z"/></mask><path d="M214.989 32.217h-15.315l5.168-19.352H220l-1.005 3.755h-7.808l-1.001 3.73h7.601l-1.036 3.782h-7.597l-1.158 4.327h7.99l-.997 3.758Zm-14.35-.74h13.781l.608-2.274h-7.989l1.55-5.808h7.601l.632-2.3h-7.597l1.397-5.212h7.808l.609-2.273h-13.625l-4.775 17.866Z" fill="#00C398"/><path d="M214.989 32.217v8h6.155l1.578-5.95-7.733-2.05Zm-15.315 0-7.73-2.064-2.687 10.064h10.417v-8Zm5.168-19.352v-8h-6.144l-1.586 5.936 7.73 2.064Zm15.158 0 7.728 2.068 2.694-10.068H220v8Zm-1.005 3.755v8h6.141l1.588-5.933-7.729-2.067Zm-7.808 0v-8h-6.137l-1.59 5.927 7.727 2.073Zm-1.001 3.73-7.727-2.072-2.701 10.072h10.428v-8Zm7.601 0 7.716 2.114 2.77-10.114h-10.486v8Zm-1.036 3.782v8h6.103l1.613-5.886-7.716-2.114Zm-7.597 0v-8h-6.141l-1.587 5.932 7.728 2.068Zm-1.158 4.327-7.728-2.068-2.693 10.068h10.421v-8Zm7.99 0 7.732 2.05 2.666-10.05h-10.398v8Zm-15.347 3.017-7.729-2.066-2.69 10.066h10.419v-8Zm13.781 0v8h6.141l1.587-5.932-7.728-2.068Zm.608-2.273 7.728 2.068 2.694-10.068h-10.422v8Zm-7.989 0-7.73-2.063-2.685 10.063h10.415v-8Zm1.55-5.808v-8h-6.145l-1.585 5.938 7.73 2.062Zm7.601 0v8h6.099l1.615-5.881-7.714-2.119Zm.632-2.3 7.714 2.119 2.779-10.119h-10.493v8Zm-7.597 0-7.728-2.071-2.699 10.071h10.427v-8Zm1.397-5.212v-8h-6.139l-1.589 5.929 7.728 2.07Zm7.808 0v8h6.141l1.588-5.932-7.729-2.068Zm.609-2.273 7.728 2.068 2.694-10.068h-10.422v8Zm-13.625 0v-8h-6.142l-1.586 5.934 7.728 2.066Zm9.575 10.607h-15.315v16h15.315v-16Zm-7.586 10.064 5.168-19.352-15.459-4.128-5.168 19.352 15.459 4.128Zm-2.561-13.416H220v-16h-15.158v16Zm7.43-10.068-1.005 3.755 15.457 4.135 1.004-3.754-15.456-4.136Zm6.723-2.177h-7.808v16h7.808v-16Zm-15.535 5.927-1.001 3.731 15.454 4.145 1.001-3.731-15.454-4.145Zm6.726 13.803h7.601v-16h-7.601v16Zm-.115-10.113-1.036 3.782 15.432 4.227 1.036-3.782-15.432-4.227Zm6.68-2.105h-7.597v16h7.597v-16Zm-15.325 5.932-1.158 4.327 15.457 4.135 1.157-4.326-15.456-4.136Zm6.57 14.395h7.99v-16h-7.99v16Zm.257-10.051-.997 3.758 15.466 4.102.996-3.759-15.465-4.101Zm-7.614 13.068h13.781v-16h-13.781v16Zm21.509-5.932.608-2.273-15.456-4.136-.608 2.273 15.456 4.136Zm-7.12-12.34h-7.989v16h7.989v-16Zm-.26 10.062 1.55-5.808-15.459-4.125-1.55 5.808 15.459 4.125Zm-6.179.13h7.601v-16h-7.601v16Zm15.315-5.882.632-2.3-15.429-4.238-.632 2.3 15.429 4.238Zm-7.082-12.419h-7.597v16h7.597v-16Zm.13 10.071 1.397-5.212-15.455-4.142-1.397 5.212 15.455 4.142Zm-6.33.717h7.808v-16h-7.808v16Zm15.537-5.932.608-2.273-15.456-4.136-.609 2.273 15.457 4.136Zm-7.12-12.341h-13.625v16h13.625v-16Zm-21.353 5.934L192.91 29.41l15.458 4.132 4.775-17.866-15.457-4.132Z" fill="#00C398" mask="url(#e)"/></g><defs><clipPath id="a"><path fill="#fff" d="M0 0h220v41H0z"/></clipPath></defs></svg>
