<svg width="614" height="40" viewBox="0 0 614 40" fill="none" xmlns="http://www.w3.org/2000/svg">
<path d="M39.2 0L20.5333 40H11.7333L30.4 0H39.2ZM44.3333 0L25.6667 40H34.4667L53.1333 0H44.3333ZM58.3333 0L39.6667 40H48.4667L67.1333 0H58.3333ZM72.3333 0L53.6667 40H62.4667L81.1333 0H72.3333ZM86.3333 0L67.6667 40H76.4667L95.1333 0H86.3333ZM100.333 0L81.6667 40H90.4667L109.133 0H100.333ZM114.333 0L95.6667 40H104.467L123.133 0H114.333ZM128.333 0L109.667 40H118.467L137.133 0H128.333ZM142.333 0L123.667 40H132.467L151.133 0H142.333ZM156.333 0L137.667 40H146.467L165.133 0H156.333ZM170.333 0L151.667 40H160.467L179.133 0H170.333ZM184.333 0L165.667 40H174.467L193.133 0H184.333ZM198.333 0L179.667 40H188.467L207.133 0H198.333ZM212.333 0L193.667 40H202.467L221.133 0H212.333ZM226.333 0L207.667 40H216.467L235.133 0H226.333ZM240.333 0L221.667 40H230.467L249.133 0H240.333ZM254.333 0L235.667 40H244.467L263.133 0H254.333ZM268.333 0L249.667 40H258.467L277.133 0H268.333ZM282.333 0L263.667 40H272.467L291.133 0H282.333ZM296.333 0L277.667 40H286.467L305.133 0H296.333ZM310.333 0L291.667 40H300.467L319.133 0H310.333ZM324.333 0L305.667 40H314.467L333.133 0H324.333ZM338.333 0L319.667 40H328.467L347.133 0H338.333ZM352.333 0L333.667 40H342.467L361.133 0H352.333ZM366.333 0L347.667 40H356.467L375.133 0H366.333ZM380.333 0L361.667 40H370.467L389.133 0H380.333ZM394.333 0L375.667 40H384.467L403.133 0H394.333ZM408.333 0L389.667 40H398.467L417.133 0H408.333ZM422.333 0L403.667 40H412.467L431.133 0H422.333ZM436.333 0L417.667 40H426.467L445.133 0H436.333ZM450.333 0L431.667 40H440.467L459.133 0H450.333ZM464.333 0L445.667 40H454.467L473.133 0H464.333ZM478.333 0L459.667 40H468.467L487.133 0H478.333ZM492.333 0L473.667 40H482.467L501.133 0H492.333ZM506.333 0L487.667 40H496.467L515.133 0H506.333ZM520.333 0L501.667 40H510.467L529.133 0H520.333ZM534.333 0L515.667 40H524.467L543.133 0H534.333ZM548.333 0L529.667 40H538.467L557.133 0H548.333ZM562.333 0L543.667 40H552.467L571.133 0H562.333ZM576.333 0L557.667 40H566.467L585.133 0H576.333ZM590.333 0L571.667 40H580.467L599.133 0H590.333ZM604.333 0L585.667 40H594.467L613.133 0H604.333ZM2.33333 0L0 5.06667V24L11.2 0H2.33333ZM25.2 0H16.3333L0 35.0667V40H6.53333L25.2 0Z" fill="url(#paint0_linear_116_1629)" fill-opacity="0.5"/>
<defs>
<linearGradient id="paint0_linear_116_1629" x1="0" y1="20" x2="612.938" y2="19.9998" gradientUnits="userSpaceOnUse">
<stop stop-color="#A3FF12"/>
<stop offset="1" stop-color="white" stop-opacity="0"/>
</linearGradient>
</defs>
</svg>
