<svg width="18" height="18" viewBox="0 0 18 18" fill="none" xmlns="http://www.w3.org/2000/svg">
<g clip-path="url(#clip0_109_59)">
<path d="M14.7275 0.818359H2.45472C1.55472 0.818359 0.818359 1.55472 0.818359 2.45472C0.818359 3.35472 1.55472 4.09109 2.45472 4.09109H9.81836" stroke="white" stroke-width="2" stroke-miterlimit="10" stroke-linecap="round" stroke-linejoin="round"/>
<path d="M16.3636 3.27228H1.63636L0 2.4541V15.545C0 16.9359 1.06364 17.9996 2.45455 17.9996H16.3636C17.2636 17.9996 18 17.2632 18 16.3632V4.90865C18 4.00865 17.2636 3.27228 16.3636 3.27228ZM14.7273 12.2723C13.8273 12.2723 13.0909 11.5359 13.0909 10.6359C13.0909 9.73592 13.8273 8.99956 14.7273 8.99956C15.6273 8.99956 16.3636 9.73592 16.3636 10.6359C16.3636 11.5359 15.6273 12.2723 14.7273 12.2723Z" fill="white"/>
</g>
<defs>
<clipPath id="clip0_109_59">
<rect width="18" height="18" fill="white"/>
</clipPath>
</defs>
</svg>
