<svg width="130" height="35" viewBox="0 0 130 35" fill="none" xmlns="http://www.w3.org/2000/svg">
<path d="M35.9917 4.19922H41.9417C43.4583 4.19922 44.5667 4.60755 45.2667 5.30755C45.9667 5.89089 46.2583 6.70755 46.2583 7.52422C46.2583 7.81589 46.2583 8.22422 46.1417 8.51589C45.9667 9.04089 45.6167 9.50755 45.2083 9.91589C45.0333 10.0909 44.8 10.2076 44.625 10.3242C45.325 10.4992 45.9667 10.9076 46.4333 11.4326C46.8417 11.9576 47.0167 12.5409 47.0167 13.4159C47.0167 13.9409 46.9 14.5242 46.725 14.9326C46.55 15.3409 46.1417 15.7492 45.7333 16.0409C45.2083 16.3326 44.7417 16.5659 44.2167 16.7409C43.6333 16.9159 42.875 16.9159 42.2333 16.9159H36.1083V4.19922H35.9917ZM41.4167 9.44922C41.9417 9.44922 42.4083 9.33255 42.9333 9.15755C43.3417 8.98255 43.5167 8.57422 43.5167 8.16589C43.5167 7.75755 43.3417 7.34922 42.9917 7.17422C42.5833 6.88255 42.0583 6.76589 41.5917 6.88255H38.7917V9.56589H41.4167V9.44922ZM42.1167 14.5826C42.6417 14.5826 43.1083 14.4659 43.6333 14.2909C44.0417 14.1159 44.2167 13.7076 44.153 13.1826C44.1583 12.7742 43.9833 12.3659 43.6333 12.1909C43.3417 12.0159 42.7 11.7826 42 11.7826H38.675V14.5826H42.1167Z" fill="white"/>
<path d="M50.575 4.19922H53.4333V17.0909H50.575V4.19922Z" fill="white"/>
<path d="M57.75 4.19922H60.375L66.3833 12.1909V4.19922H69.1833V17.0909H66.7917L60.4333 8.92422V17.0909H57.75V4.19922Z" fill="white"/>
<path d="M77.7583 4.14258H80.3833L85.925 17.0926H83.0083L81.7833 14.1759H76.3583L75.1333 17.0926H72.2167L77.7583 4.14258ZM80.7917 11.7842L79.1 7.58424L77.4083 11.7842H80.7917Z" fill="white"/>
<path d="M88.9 4.19922H91.525L97.5333 12.1909V4.19922H100.392V17.0909H97.9417L91.7 8.92422V17.0909H88.9V4.19922Z" fill="white"/>
<path d="M110.6 17.2668C109.667 17.2668 108.792 17.0918 107.975 16.7418C106.342 16.0418 105.175 14.8168 104.475 13.2418C104.183 12.4251 103.95 11.5501 103.95 10.6168C103.95 8.92513 104.65 7.17513 105.875 5.8918C106.458 5.30846 107.217 4.78346 107.975 4.4918C108.908 4.08346 109.783 3.9668 110.658 3.9668C111.183 3.9668 111.767 3.9668 112.292 4.08346C112.817 4.20013 113.225 4.25846 113.633 4.4918C114.042 4.6668 114.45 4.90013 114.742 5.07513C115.033 5.25013 115.442 5.60013 115.733 5.8918L114.042 7.9918C113.517 7.58346 113.05 7.17513 112.525 6.88346C112 6.5918 111.417 6.47513 110.833 6.47513C110.308 6.47513 109.842 6.5918 109.317 6.7668C108.792 6.9418 108.383 7.2918 108.092 7.70013C107.8 8.10846 107.508 8.5168 107.275 9.0418C107.1 9.5668 106.983 10.0335 106.983 10.5585C106.983 11.0835 107.1 11.6668 107.275 12.1918C107.508 12.7168 107.683 13.1251 108.092 13.5335C108.792 14.3501 109.783 14.7585 110.775 14.7585C111.358 14.7585 112.117 14.6418 112.7 14.3501C113.225 14.0585 113.808 13.6501 114.217 13.2418L116.025 15.0501C115.733 15.3418 115.325 15.7501 115.033 16.0418C114.625 16.3335 114.217 16.5668 113.808 16.7418C113.4 16.9168 112.875 17.1501 112.408 17.2668C111.708 17.2668 111.125 17.2668 110.6 17.2668Z" fill="white"/>
<path d="M119.292 4.19922H128.917V6.70755H121.975V9.33255H128.1V11.8409H121.975V14.5826H129.033V17.0909H119.292V4.19922Z" fill="white"/>
<path d="M39.6083 29.7496C38.9083 29.7496 38.2083 29.6329 37.625 29.3413C37.0416 29.1663 36.4 28.7579 35.8167 28.2329L36.8083 27.1246C37.2166 27.5329 37.625 27.7079 38.15 28.0579C38.675 28.2329 39.1417 28.3496 39.6667 28.3496C40.075 28.3496 40.4833 28.2329 40.8917 28.0579C41.1833 27.8829 41.3 27.5329 41.3 27.2413C41.3 27.1246 41.3 26.9496 41.1833 26.8329C41.0666 26.7163 41.0083 26.5413 40.8917 26.4246C40.7167 26.3079 40.4833 26.2496 40.3083 26.1329C40.0166 26.0163 39.6083 25.9579 39.3167 25.8413C38.9083 25.7246 38.3833 25.6663 37.975 25.4329C37.6833 25.3163 37.275 25.1413 37.0416 24.9079C36.8666 24.7329 36.6333 24.4996 36.4583 24.2079C36.2833 23.7996 36.2833 23.3913 36.2833 23.0996C36.2833 22.6913 36.4 22.3996 36.4583 21.9913C36.575 21.6996 36.8666 21.4079 37.0416 21.1746C37.3333 20.9996 37.625 20.7663 38.0333 20.6496C38.4416 20.5329 38.85 20.4746 39.2583 20.4746C39.8417 20.4746 40.4833 20.5913 41.0667 20.7663C41.5917 20.9413 42.0583 21.2913 42.5833 21.5829L41.7667 22.8079C41.3583 22.5163 40.95 22.2829 40.5417 22.1079C40.1333 21.9329 39.725 21.9329 39.3167 21.9329C38.9083 21.9329 38.5 22.0496 38.2083 22.2246C38.0333 22.3996 37.8 22.7496 37.8 23.0413C37.8 23.2163 37.8 23.3329 37.9167 23.5663C38.0333 23.6829 38.0917 23.8579 38.2083 23.9746C38.3833 24.0913 38.6166 24.1496 38.9083 24.2663C39.2 24.3829 39.4916 24.4413 40.0166 24.5579C40.425 24.6746 40.8333 24.7329 41.3583 24.9663C41.65 25.0829 41.9417 25.2579 42.2917 25.4913C42.4667 25.6663 42.7 26.0163 42.8167 26.1913C42.9333 26.4829 42.9916 26.7746 42.9916 27.1829C42.9916 27.5913 42.875 27.9996 42.8167 28.2913C42.6417 28.5829 42.4083 28.8746 42.1166 29.2246C41.825 29.3996 41.5333 29.6329 41.125 29.7496C40.5417 29.6913 40.0167 29.7496 39.6083 29.7496Z" fill="white"/>
<path d="M44.625 20.5918H46.375L49.0583 24.8501L51.9167 20.5918H53.6083V29.6918H51.975V23.1001L49.175 27.3585H49.0583L46.2583 23.1001V29.6918H44.625V20.5918Z" fill="white"/>
<path d="M59.0333 20.5332H60.55L64.4583 29.5749H62.7667L61.8333 27.3582H57.6333L56.7 29.5749H55.0667L59.0333 20.5332ZM61.3667 26.0749L59.7333 22.4582L58.2167 26.0749H61.3667Z" fill="white"/>
<path d="M66.0917 20.5918H70.1167C70.6417 20.5918 71.1084 20.7085 71.6334 20.7668C72.0417 20.8835 72.45 21.1751 72.7417 21.4668C72.9167 21.6418 73.15 21.9918 73.325 22.4001C73.4417 22.6918 73.5 23.1001 73.5 23.5085C73.5 23.8001 73.3833 24.2085 73.325 24.5001C73.2083 24.7918 73.0334 25.0251 72.9167 25.3168C72.7417 25.4918 72.5084 25.7251 72.2167 25.9001C71.925 26.0751 71.6333 26.1918 71.2833 26.3085L73.675 29.7501H71.75L69.5334 26.6585H67.55V29.7501H65.9167L66.0917 20.5918ZM70 25.0251C70.525 25.0251 70.9917 24.9085 71.3417 24.6168C71.6334 24.3251 71.8667 23.9168 71.8667 23.5085C71.8667 23.1001 71.6917 22.6918 71.3417 22.4001C70.9334 22.1085 70.4084 21.9918 69.9417 21.9918H67.6084V25.0251H70Z" fill="white"/>
<path d="M77.6417 22.0501H74.725V20.5918H82.075V22.0501H79.1583V29.6918H77.525L77.6417 22.0501Z" fill="white"/>
<path d="M91.8167 29.7493C91.2333 29.7493 90.5917 29.6327 90.0083 29.341C88.9 28.816 88.025 27.9994 87.6167 26.9493C87.4417 26.366 87.2083 25.7243 87.325 25.141C87.325 24.5577 87.4417 23.916 87.6167 23.3327C88.025 22.2243 88.9583 21.3493 90.0083 20.8243C90.5917 20.6493 91.2333 20.416 91.9333 20.416C92.3417 20.416 92.75 20.416 93.0417 20.5327C93.3333 20.6493 93.625 20.7077 93.975 20.8243C94.2667 20.941 94.5 21.116 94.7917 21.2327C94.9667 21.4077 95.3167 21.641 95.4917 21.816L94.5 23.041C94.2083 22.7493 93.8 22.4577 93.3917 22.2243C92.9833 22.0493 92.4583 21.9327 91.9917 21.9327C91.5833 21.9327 91.175 22.0493 90.7667 22.1077C90.3583 22.2827 90.0667 22.516 89.775 22.8077C89.4833 23.0993 89.25 23.391 89.1917 23.7993C89.075 24.2077 89.0167 24.616 89.0167 25.0244C89.0167 25.4327 89.1333 25.841 89.1917 26.2493C89.3083 26.6577 89.4833 26.9493 89.775 27.241C90.0667 27.5327 90.3583 27.766 90.7667 27.941C91.175 28.116 91.5833 28.2327 91.9917 28.116C92.5167 28.116 92.9833 27.9994 93.3917 27.8243C93.8 27.6493 94.2083 27.2993 94.6167 26.891L95.6083 27.8827C95.4333 28.0577 95.0833 28.4077 94.9083 28.5827C94.6167 28.7577 94.3833 28.991 94.0917 29.1077C93.8 29.2243 93.5083 29.3994 93.1 29.3994C92.6333 29.7494 92.225 29.7493 91.8167 29.7493Z" fill="white"/>
<path d="M97.125 20.5918H98.6417V24.3251H103.017V20.5918H104.592V29.6918H103.017V25.8418H98.6417V29.6918H97.125V20.5918Z" fill="white"/>
<path d="M110.133 20.5332H111.65L115.558 29.5749H113.867L112.933 27.3582H108.733L107.8 29.5749H106.167L110.133 20.5332ZM112.35 26.0749L110.833 22.4582L109.317 26.0749H112.35Z" fill="white"/>
<path d="M117.192 20.5918H118.767V29.6918H117.192V20.5918Z" fill="white"/>
<path d="M121.158 20.5918H122.617L127.458 26.8335V20.5918H129.033V29.6918H127.75L122.792 23.2168V29.6918H121.158V20.5918Z" fill="white"/>
<path d="M18.3167 29.05V32.9583L14.875 35L11.55 33.0167V29.1083L14.875 31.0917L18.3167 29.05ZM0 15.5167L3.325 17.5V24.2083L9.04167 27.65V31.5583L0 26.25V15.5167ZM29.75 15.5167V26.25L20.5917 31.5583V27.65L26.3083 24.2083V17.5L29.75 15.5167ZM20.5917 10.15L24.0333 12.1333V16.0417L18.3167 19.4833V26.3083L14.9917 28.2917L11.6667 26.3667V19.4833L5.71667 16.1V12.1917L9.15833 10.2083L14.875 13.65L20.5917 10.15ZM5.71667 18.9L9.04167 20.8833V24.7917L5.71667 22.8083V18.9ZM24.0333 18.9V22.8083L20.7083 24.7917V20.8833L24.0333 18.9ZM3.325 6.70833L6.76667 8.69167L3.325 10.675V14.5833L0 12.6583V8.75L3.325 6.70833ZM26.425 6.70833L29.8667 8.69167V12.6L26.425 14.5833V10.675L23.1 8.75L26.425 6.70833ZM14.875 6.70833L18.3167 8.69167L14.875 10.675L11.55 8.75L14.875 6.70833ZM14.875 0L24.0333 5.30833L20.7083 7.29167L14.9917 3.85L9.15833 7.29167L5.83333 5.30833L14.875 0Z" fill="white"/>
</svg>
