<svg width="130" height="35" viewBox="0 0 130 35" fill="none" xmlns="http://www.w3.org/2000/svg">
<g clip-path="url(#clip0_109_909)">
<path d="M47.122 20.7724C47.122 21.1707 46.7805 21.5122 46.3821 21.5122H32.3252C32.6667 24.9837 35.2846 28.1707 38.9837 28.1707C41.4878 28.1707 43.3659 27.2033 44.7886 25.2114C45.0163 24.9268 45.3008 24.7561 45.6992 24.9268C45.9268 25.0406 46.0406 25.2114 46.0976 25.439C46.1545 25.6667 46.0976 25.7805 45.9837 25.9512C44.561 28.3984 41.7154 29.6504 38.9837 29.6504C34.2602 29.6504 30.8455 25.3821 30.8455 20.8862C30.8455 16.3902 34.2033 12.122 38.9837 12.122C43.7073 12.0081 47.122 16.2764 47.122 20.7724ZM45.6423 20.0894C45.3577 16.6179 42.6829 13.4309 38.9837 13.4309C35.2846 13.4309 32.6667 16.6179 32.3252 20.0894H45.6423ZM64.252 12.3496C64.6504 12.3496 64.935 12.6911 64.935 13.0325C64.935 13.4309 64.6504 13.7154 64.252 13.7154H60.4959V28.5691C60.4959 28.9106 60.2114 29.252 59.813 29.252C59.4146 29.252 59.1301 28.9106 59.1301 28.5691V13.7724H55.4878C55.0894 13.7724 54.804 13.4878 54.8049 13.0894C54.8049 12.748 55.0894 12.4065 55.4878 12.4065H59.1301V7C59.1301 6.65854 59.3577 6.31707 59.6992 6.26016C60.1545 6.20325 60.5528 6.4878 60.5528 6.94309V12.4065L64.252 12.3496ZM87.3008 19.5203V28.5122C87.3008 28.9106 86.9593 29.1951 86.6179 29.1951C86.2195 29.1951 85.935 28.9106 85.935 28.5122V19.5203C85.935 16.5041 84.2276 13.4878 80.813 13.4878C76.4878 13.4878 74.6098 17.3008 74.8374 21.1707C74.8374 21.2846 74.8943 21.7398 74.8943 21.7967V28.5691C74.8943 28.9106 74.6667 29.252 74.3252 29.3089C73.8699 29.3659 73.4715 29.0813 73.4715 28.626V0.682927C73.4715 0.341463 73.7561 0 74.1545 0C74.5528 0 74.8374 0.341463 74.8374 0.682927V15.7073C76.0325 13.5447 78.1951 12.065 80.7561 12.065C84.9675 12.065 87.3008 15.7073 87.3008 19.5203ZM112.626 20.7724C112.626 21.1707 112.285 21.5122 111.886 21.5122H97.7724C98.1138 24.9837 100.732 28.1707 104.431 28.1707C106.935 28.1707 108.813 27.2033 110.236 25.2114C110.463 24.9268 110.748 24.7561 111.146 24.9268C111.374 25.0406 111.488 25.2114 111.545 25.439C111.602 25.6667 111.545 25.7805 111.431 25.9512C110.008 28.3984 107.163 29.6504 104.431 29.6504C99.7073 29.6504 96.2927 25.3821 96.2927 20.8862C96.2927 16.3902 99.6504 12.122 104.431 12.122C109.154 12.0081 112.569 16.2764 112.626 20.7724ZM111.089 20.0894C110.805 16.6179 108.13 13.4309 104.431 13.4309C100.732 13.4309 98.1138 16.6179 97.7724 20.0894H111.089ZM129.927 13.0325C129.927 13.4878 129.699 13.7154 129.244 13.7724C125.089 14.3984 123.211 17.7561 123.211 21.6829V28.4553C123.211 28.7967 122.984 29.1382 122.642 29.1951C122.187 29.252 121.789 28.9675 121.789 28.5122V13.0894C121.789 12.748 122.016 12.4065 122.358 12.3496C122.813 12.2927 123.211 12.5772 123.211 13.0325V16.1626C124.35 14.1707 126.683 12.3496 129.13 12.3496C129.528 12.3496 129.927 12.6341 129.927 13.0325Z" fill="white"/>
<path d="M2.84553 13.4883L0 18.2688L10.4715 13.4883H2.84553Z" fill="white"/>
<path d="M10.4716 13.4877V0.853516L2.84554 13.4877H10.4716Z" fill="white"/>
<path d="M10.4715 20.2606V13.4883L0 18.2688L3.35772 20.2606H10.4715Z" fill="white"/>
<path d="M3.35773 20.2598L10.4715 24.4142V20.2598H3.35773Z" fill="white"/>
<path d="M18.0976 13.4877L10.4715 0.853516V13.4877H18.0976Z" fill="white"/>
<path d="M18.0976 13.4883H10.4715L20.9431 18.2688L18.0976 13.4883Z" fill="white"/>
<path d="M20.9431 18.2688L10.4715 13.4883V20.2606H17.5854L20.9431 18.2688Z" fill="white"/>
<path d="M10.4715 20.2598V24.4142L17.5854 20.2598H10.4715Z" fill="white"/>
<path d="M7.11382 24.4142L0 20.2598L2.95935 24.4142H7.11382Z" fill="white"/>
<path d="M7.11382 24.4141H2.95935L10.4715 34.9994V26.4059L7.11382 24.4141Z" fill="white"/>
<path d="M20.9431 20.2598L13.8293 24.4142H17.9837L20.9431 20.2598Z" fill="white"/>
<path d="M13.8293 24.4141L10.4715 26.4059V34.9994L17.9837 24.4141H13.8293Z" fill="white"/>
</g>
<defs>
<clipPath id="clip0_109_909">
<rect width="129.927" height="35" fill="white"/>
</clipPath>
</defs>
</svg>
