<svg width="131" height="30" viewBox="0 0 131 30" fill="none" xmlns="http://www.w3.org/2000/svg">
<g clip-path="url(#clip0_109_962)">
<path d="M18.8 8.85025C17.45 7.70025 15.4 7.90025 14.3 9.25025L7.85 17.0003C6.85 18.2003 6.85 19.9003 7.85 21.1003L14.3 28.8503C15.45 30.2003 17.45 30.4003 18.8 29.2503C20.15 28.1003 20.35 26.1003 19.2 24.7503L14.45 19.0503L19.2 13.3503C20.35 12.0003 20.15 10.0003 18.8 8.85025ZM3.2 8.10025C1.45 8.10025 0 9.55025 0 11.3003V26.8003C0.05 28.5503 1.5 29.9503 3.25 29.9503C4.95 29.9003 6.35 28.5503 6.4 26.8003V11.3003C6.4 9.55025 4.95 8.10025 3.2 8.10025ZM59.35 14.5003C61.1 14.4503 62.5 13.0003 62.5 11.2503C62.45 9.55025 61.1 8.15025 59.35 8.10025H45.8C44.05 8.10025 42.6 9.55025 42.6 11.3003V17.1003C42.6 18.5503 43.55 19.8003 44.9 20.2003L56.15 23.4003V23.6003H45.8C44.05 23.5503 42.55 24.9503 42.55 26.7503C42.5 28.5003 43.9 29.9503 45.7 30.0003C45.75 30.0003 45.8 30.0003 45.85 30.0003H59.4C61.15 30.0003 62.6 28.5503 62.6 26.8003V21.0003C62.6 19.5503 61.65 18.3003 60.3 17.900L49 14.7003V14.5003H59.35ZM38.05 8.10025C36.3 8.10025 34.85 9.55025 34.85 11.3003V23.6003H27.7V11.3003C27.75 9.55025 26.35 8.05025 24.55 8.05025C22.8 8.00025 21.3 9.40025 21.3 11.2003C21.3 11.2503 21.3 11.3003 21.3 11.3503V26.8503C21.3 28.6003 22.75 30.0503 24.5 30.0503H38.05C39.8 30.0503 41.25 28.6003 41.25 26.8503V11.3503C41.25 9.55025 39.85 8.10025 38.05 8.10025ZM75.4 9.25025C74.8 8.50025 73.9 8.10025 72.95 8.10025H67.15C65.4 8.10025 63.95 9.55025 63.95 11.3003V26.8003C63.95 28.5503 65.4 30.0003 67.15 30.0003H75.15C76.9 29.9503 78.3 28.5003 78.3 26.7503C78.25 25.0503 76.9 23.6503 75.15 23.6003H70.35V14.5003H71.45L79.45 24.1003V26.8003C79.5 28.5503 80.95 29.9503 82.7 29.9503C84.4 29.9003 85.8 28.5503 85.85 26.8003V22.9003C85.85 22.1503 85.6 21.4503 85.1 20.8503L75.4 9.25025ZM129.6 20.8503L119.9 9.25025C119.3 8.50025 118.4 8.10025 117.45 8.10025H111.65C109.9 8.10025 108.45 9.55025 108.45 11.3003V26.8003C108.45 28.5503 109.9 30.0003 111.65 30.0003H119.65C121.4 29.9503 122.8 28.5003 122.8 26.7503C122.75 25.0503 121.4 23.6503 119.65 23.6003H114.85V14.5003H115.95L123.95 24.1003V26.8003C124 28.5503 125.45 29.9503 127.2 29.9503C128.9 29.9003 130.3 28.5503 130.35 26.8003V22.9503C130.35 22.2003 130.1 21.4503 129.6 20.8503ZM105.25 8.40025C104.1 7.90025 102.8 8.05025 101.85 8.90025L97.15 12.9503L92.45 8.90025C91.1 7.75025 89.1 7.90025 87.95 9.25025C87.45 9.85025 87.2 10.5503 87.2 11.3503V26.8503C87.25 28.6003 88.7 30.0003 90.45 30.0003C92.15 29.9503 93.55 28.6003 93.6 26.8503V18.2503L95.1 19.5503C96.3 20.6003 98.05 20.6003 99.25 19.5503L100.75 18.2503V26.8003C100.75 28.5503 102.2 30.0003 103.95 30.0003C105.7 30.0003 107.15 28.5503 107.15 26.8003V11.3003C107.1 10.0503 106.4 8.90025 105.25 8.40025ZM82.8 6.65025V6.75025C82.8 6.75025 87.2 5.00025 88.05 5.45025L87.55 5.60025C87.6 5.60025 88.45 5.65025 88.45 5.65025C88.5 6.00025 88.7 6.30025 89 6.50025C89.5 6.85025 89.5 7.00025 89.5 7.00025C89.5 7.00025 89.25 7.10025 89.25 7.25025C89.5 7.20025 89.75 7.15025 90 7.15025C90.25 7.15025 90.45 7.20025 90.65 7.25025C90.65 7.25025 90.6 7.10025 90.25 7.00025C89.9 6.90025 89.55 6.50025 89.4 6.30025C89.2 6.05025 89.15 5.65025 89.25 5.35025C89.35 5.05025 89.8 4.85025 90.65 4.40025C91.7 3.85025 91.9 3.45025 92.05 3.15025C92.2 2.85025 92.4 2.25025 92.55 1.95025C92.65 1.70025 92.8 1.45025 93.05 1.25025C93.2 1.15025 93.9 0.850253 93.9 0.850253C93.9 0.850253 93.35 0.400253 93.2 0.250253C93 0.0502532 92.7 -0.0997468 92.4 -0.149747C92.05 -0.199747 91.65 0.0502532 91.4 0.200253C91.15 0.350253 90.7 1.00025 90.5 1.15025C90.3 1.30025 89.8 1.40025 89 1.90025C88.2 2.40025 85 4.45025 85 4.45025H85.8L82.1 6.35025H82.45L81.9 6.75025C82.25 6.85025 82.55 6.80025 82.8 6.65025Z" fill="white"/>
</g>
<defs>
<clipPath id="clip0_109_962">
<rect width="130.35" height="30" fill="white"/>
</clipPath>
</defs>
</svg>
