<svg width="136" height="32" viewBox="0 0 136 32" fill="none" xmlns="http://www.w3.org/2000/svg">
<path d="M31.68 13.4928C30.4533 13.4928 29.1733 13.7594 28.0533 14.3461C26.9333 14.9328 25.9733 15.7328 25.2267 16.7461C23.52 18.8794 22.56 21.5461 22.6133 24.2661C22.5067 26.0261 23.0933 27.7328 24.2667 29.0661C24.8 29.7061 25.4933 30.1328 26.24 30.4528C26.9867 30.7728 27.7867 30.9328 28.5867 30.8794C29.8133 30.8794 30.9867 30.6128 32.0533 30.0794C33.12 29.5461 34.08 28.7994 34.7733 27.8394C36.64 25.6528 37.6 22.8261 37.6 19.9994C37.6533 18.3461 37.1733 16.6928 36.2133 15.2528C35.2533 14.1328 33.7067 13.4928 31.68 13.4928ZM31.7867 26.3994C31.36 26.8261 30.88 27.1461 30.3467 27.3594C29.8133 27.5728 29.2267 27.7328 28.6933 27.7328C28.32 27.7328 27.8933 27.6794 27.5733 27.5194C27.2 27.3594 26.9333 27.0928 26.6667 26.8261C26.1333 26.0794 25.8667 25.1728 25.92 24.3194C25.8667 22.3994 26.4 20.4794 27.52 18.8794C27.9467 18.1861 28.5333 17.6528 29.2267 17.2794C29.92 16.9061 30.72 16.6928 31.52 16.6928C33.3333 1.6928 34.24 17.8128 34.24 20.0528C34.2933 22.3461 33.44 24.6394 31.7867 26.3994ZM130.4 21.4928C130.027 21.3861 129.6 21.3861 129.28 21.5461C128.907 21.7061 128.64 21.9728 128.48 22.3461C127.04 25.8661 125.333 27.6794 123.2 27.6794C122.08 27.6794 121.547 26.7194 121.547 24.9061C121.707 22.8261 121.973 20.7994 122.453 18.7728L122.88 16.6394H127.253C127.627 16.6394 127.947 16.5328 128.267 16.2661C128.533 16.0528 128.747 15.6794 128.8 15.3594C128.853 15.1461 128.853 14.9328 128.8 14.6661C128.747 14.4528 128.64 14.2394 128.48 14.0261C128.32 13.8128 128.16 13.7061 127.947 13.5994C127.733 13.4928 127.52 13.4394 127.307 13.4394H123.68L124.427 9.91943C124.48 9.7061 124.48 9.43943 124.427 9.2261C124.373 9.01276 124.267 8.79943 124.107 8.5861C123.947 8.37276 123.787 8.21276 123.52 8.15943C123.307 8.05276 123.093 7.99943 122.827 7.99943C122.453 7.99943 122.08 8.10609 121.813 8.37276C121.547 8.63943 121.333 8.95943 121.227 9.27943L120.267 13.4928H110.08C108.8 13.4928 107.573 13.7594 106.453 14.3461C105.333 14.9328 104.373 15.7328 103.627 16.7994C101.92 18.9328 100.96 21.5994 101.013 24.3194C101.013 25.0661 101.12 25.7594 101.28 26.5061C100.96 26.8794 100.533 27.1994 100.107 27.4128C99.68 27.6261 99.1467 27.7328 98.6667 27.7861C98.4 27.7861 98.1333 27.7861 97.92 27.6794C97.7067 27.5728 97.4933 27.4128 97.28 27.2528C96.96 26.7194 96.8533 26.0794 96.8533 25.4394C96.9067 23.6261 97.1733 21.8128 97.6 19.9994L100.267 7.73276C100.32 7.51943 100.32 7.3061 100.267 7.09276C100.267 6.87943 100.16 6.66609 100.053 6.50609C99.9467 6.29276 99.7867 6.18609 99.6267 6.07943C99.4667 5.97276 99.2533 5.86609 99.04 5.81276C98.8267 5.75943 98.6133 5.75943 98.4 5.81276C98.1867 5.81276 97.9733 5.91943 97.8133 6.02609C97.6 6.13276 97.4933 6.29276 97.3867 6.45276C97.28 6.61276 97.1733 6.82609 97.12 7.03943L95.5733 14.5061C94.5067 13.8661 93.28 13.5461 92 13.5461C90.7733 13.5461 89.4933 13.7594 88.32 14.3461C87.2 14.8794 86.1867 15.6261 85.3867 16.6394C83.5733 18.8261 82.6667 21.5461 82.72 24.3194C82.72 25.2261 82.8267 26.0794 83.0933 26.9328C82.4533 27.4661 81.6533 27.7861 80.8533 27.7861C80.5867 27.7861 80.32 27.7861 80.0533 27.6794C79.7867 27.5728 79.5733 27.4128 79.4133 27.2528C79.04 26.7194 78.88 26.0794 78.9867 25.4394C79.04 24.2128 79.2 22.9861 79.52 21.8128C79.5733 21.5994 79.5733 21.3861 79.52 21.1194C79.4667 20.9061 79.36 20.6928 79.2533 20.4794C79.0933 20.2661 78.9333 20.1594 78.72 20.0528C78.5067 19.9461 78.2933 19.8394 78.08 19.8394C77.6533 19.7861 77.28 19.8928 76.96 20.1061C76.64 20.3194 76.3733 20.6928 76.32 21.0661C75.8933 22.8261 75.1467 24.4261 74.08 25.8661C73.7067 26.4528 73.2267 26.8794 72.64 27.2528C72.0533 27.5728 71.4133 27.7861 70.72 27.8394C70.3467 27.8394 70.0267 27.7328 69.7067 27.5728C69.3867 27.3594 69.1733 27.1461 68.96 26.8261C68.48 26.0261 68.2667 25.0661 68.32 24.1061C68.2133 22.2394 68.7467 20.3194 69.92 18.7728C70.4 18.1328 70.9867 17.5461 71.7333 17.1728C72.48 16.7994 73.28 16.5861 74.08 16.6394C74.9333 16.6394 75.7333 16.8528 76.5333 17.1194C76.7467 17.2261 77.0133 17.2794 77.28 17.2794C77.5467 17.2794 77.76 17.1728 77.9733 17.0661C78.24 16.9061 78.4 16.6928 78.56 16.4261C78.72 16.1594 78.7733 15.8928 78.72 15.5728C78.6667 15.2528 78.6133 14.9861 78.4533 14.7728C78.2933 14.5594 78.0267 14.3461 77.8133 14.2394C77.3867 14.0794 76.96 13.9194 76.5333 13.8128C75.7333 13.5994 74.9333 13.4928 74.1333 13.4394C72.9067 13.4394 71.6267 13.7061 70.5067 14.2394C69.3867 14.7728 68.3733 15.5194 67.5733 16.4794C66.6133 17.5461 65.92 18.8261 65.4933 20.2128C63.8933 25.2261 61.8667 27.6794 59.4667 27.6794C59.0933 27.6794 58.7733 27.6794 58.4533 27.5194C58.1333 27.3594 57.8667 27.1461 57.6533 26.8794C57.2267 26.2928 57.0667 25.5994 57.0667 24.9061C57.0667 24.6928 57.0667 24.4794 57.12 24.2661C58.56 23.6794 59.8933 22.7194 60.8533 21.4928C61.76 20.3194 62.2933 18.8261 62.2933 17.3328C62.2933 14.8261 60.9067 13.5461 58.1333 13.5461C57.1733 13.5461 56.2133 13.7594 55.3067 14.0794C54.4 14.3994 53.6 14.9861 52.9067 15.6794L54.6133 7.67943C54.6667 7.46609 54.6667 7.19943 54.6133 6.98609C54.56 6.77276 54.4533 6.55943 54.2933 6.34609C54.1333 6.13276 53.9733 6.02609 53.7067 5.91943C53.4933 5.81276 53.28 5.75943 53.0133 5.75943C52.64 5.75943 52.2667 5.86609 52 6.13276C51.7333 6.3461 51.52 6.71943 51.4133 7.03943L46.6667 29.0661C46.6133 29.2794 46.6133 29.5461 46.6667 29.7594C46.72 29.9728 46.8267 30.1861 46.9867 30.3994C47.1467 30.6128 47.3067 30.7194 47.5733 30.8261C47.7867 30.9328 48 30.9861 48.2667 30.9861C48.64 30.9861 48.96 30.8261 49.28 30.6128C49.5467 30.3994 49.7067 30.0261 49.8133 29.7061L51.2533 22.9328C51.52 22.0261 51.84 21.1728 52.2667 20.3194C52.8 19.3594 53.5467 18.5594 54.4 17.8661C55.3067 17.0661 56.4267 16.6928 57.6 16.6928C57.76 16.6928 57.92 16.6928 58.08 16.7461C58.24 16.7994 58.4 16.9061 58.5067 17.0128C58.6133 17.1194 58.72 17.2794 58.7733 17.4394C58.8267 17.5994 58.8267 17.7594 58.8267 17.9194C58.7733 18.4528 58.6133 18.9328 58.3467 19.4128C58.08 19.8928 57.7067 20.2661 57.28 20.5861C56.3733 21.4394 55.2 21.9728 53.9733 22.1861C53.8667 23.1461 53.8133 23.8394 53.8133 24.2661C53.76 26.0261 54.24 27.7328 55.2533 29.1728C55.7333 29.8128 56.3733 30.2394 57.0667 30.5594C57.76 30.8794 58.56 30.9861 59.36 30.9328C60.4267 30.9328 61.4933 30.6661 62.4533 30.1861C63.4133 29.7061 64.2667 29.0128 64.9067 28.1594L65.5467 27.4128C65.76 27.9994 66.1333 28.5328 66.5067 29.0661C66.9867 29.6528 67.6267 30.1328 68.32 30.4528C69.0133 30.7728 69.8133 30.9328 70.56 30.8794C72.7467 30.8794 74.56 29.8661 76.1067 27.7328C76.7467 29.8661 78.2933 30.8794 80.8533 30.8794C82.2933 30.8794 83.68 30.3461 84.8 29.4394C85.8133 30.3461 87.0933 30.8794 88.4267 30.8261C90.6133 30.8261 92.4267 29.8128 93.9733 27.6794C94.6133 29.8128 96.16 30.8261 98.72 30.8261C100.32 30.8261 101.92 30.2394 103.093 29.1728C103.627 29.7061 104.267 30.1861 104.96 30.4528C105.653 30.7194 106.4 30.8794 107.2 30.8794C108.427 30.8794 109.6 30.6128 110.667 30.0794C111.733 29.5461 112.693 28.7994 113.387 27.8394C115.253 25.6528 116.213 22.8794 116.213 19.9994C116.213 18.8261 116 17.7061 115.573 16.5861H119.787L119.36 18.3994C118.827 20.5328 118.507 22.6661 118.347 24.8528C118.347 28.7994 120 30.8261 123.2 30.8261C126.827 30.8261 129.547 28.3728 131.52 23.5728C131.627 23.3594 131.627 23.1994 131.627 22.9861C131.627 22.7728 131.573 22.5594 131.52 22.3994C131.413 22.1861 131.307 22.0261 131.147 21.9194C130.773 21.6528 130.613 21.5994 130.4 21.4928ZM94.2933 19.5728C93.7067 22.3461 92.8533 24.3728 91.7867 25.7061C90.7733 27.0394 89.5467 27.6794 88.32 27.6794C87.9467 27.6794 87.6267 27.5728 87.3067 27.4128C86.9867 27.1994 86.72 26.9861 86.56 26.6661C86.1333 25.8661 85.8667 24.9594 85.92 24.0528C85.8133 22.1328 86.4 20.2661 87.52 18.7194C87.8933 18.1328 88.3733 17.6528 88.96 17.2794C89.5467 16.9061 90.1867 16.6928 90.88 16.5861C91.5733 16.4794 92.2667 16.5861 92.9067 16.7994C93.5467 17.0128 94.1333 17.3328 94.6667 17.8128L94.2933 19.5728ZM112 23.4128C111.52 24.4261 110.88 25.4394 110.133 26.3461C109.707 26.7728 109.28 27.0928 108.693 27.3594C108.16 27.5728 107.573 27.7328 106.987 27.7328C106.613 27.7328 106.187 27.6794 105.867 27.5194C105.493 27.3594 105.227 27.0928 104.96 26.8261C104.427 26.0794 104.16 25.1728 104.213 24.3194C104.16 22.3994 104.693 20.4794 105.813 18.8794C106.24 18.2394 106.827 17.6528 107.52 17.2794C108.213 16.9061 109.013 16.6928 109.813 16.6928C111.68 16.6928 112.587 17.8128 112.587 20.0528C112.64 21.1728 112.427 22.2928 112 23.4128ZM45.4933 5.59943C45.12 5.59943 44.7467 5.70609 44.48 5.97276C44.2133 6.18609 44 6.55943 43.8933 6.87943L39.1467 28.9061C39.0933 29.1194 39.0933 29.3861 39.1467 29.5994C39.2 29.8128 39.3067 30.0261 39.4667 30.2394C39.6267 30.4528 39.7867 30.5594 40.0533 30.6661C40.2667 30.7728 40.48 30.8261 40.7467 30.8261C41.12 30.8261 41.4933 30.7194 41.76 30.4528C42.0267 30.2394 42.24 29.8661 42.3467 29.5461L47.0933 7.51943C47.1467 7.3061 47.1467 7.03943 47.0933 6.8261C47.04 6.61276 46.9333 6.39943 46.7733 6.1861C46.6133 5.97276 46.4533 5.8661 46.24 5.75943C45.9733 5.65276 45.7067 5.59943 45.4933 5.59943ZM11.6267 0.746094C8.53333 0.746094 5.6 1.97276 3.41333 4.15943C1.22667 6.34609 0 9.27943 0 12.3194C0 13.5994 0.213333 14.8794 0.64 16.0528C0.8 16.4794 1.06667 16.7994 1.49333 16.9594C1.92 17.1194 2.34667 17.1728 2.72 17.0661C3.14667 16.9061 3.41333 16.6394 3.62667 16.2128C3.84 15.7861 3.84 15.4128 3.73333 14.9861C3.36 14.0261 3.25333 13.0661 3.30667 12.0528C3.36 10.4528 3.89333 8.85276 4.8 7.51943C5.70667 6.1861 7.04 5.17276 8.53333 4.53276C10.0267 3.89276 11.68 3.73276 13.28 4.10609C14.88 4.42609 16.3733 5.17276 17.4933 6.29276C18.6133 7.41276 19.4667 8.85276 19.84 10.4528C20.2133 12.0528 20.1067 13.7061 19.52 15.1994C18.9333 16.6928 17.9733 18.0261 16.64 18.9861C15.3067 19.9461 13.76 20.5328 12.16 20.6394C12.16 20.6394 10.5067 20.7461 9.70667 20.8528C9.38667 20.9061 9.12 20.9594 8.8 21.0128H8.74667H8.69333V20.9594V20.9061L8.96 19.5194L10.5067 12.6394C10.6133 12.2128 10.5067 11.7861 10.2933 11.4661C10.08 11.0928 9.70667 10.8794 9.28 10.7728C8.85333 10.6661 8.42667 10.7728 8.05333 10.9861C7.68 11.1994 7.46667 11.5728 7.36 11.9994C7.36 11.9994 3.73333 28.8528 3.73333 29.0128C3.68 29.2261 3.68 29.4394 3.73333 29.6528C3.73333 29.8661 3.84 30.0794 3.94667 30.2394C4.05333 30.3994 4.21333 30.5594 4.37333 30.6661C4.53333 30.7728 4.74667 30.8794 4.96 30.8794C5.12 30.9328 5.33333 30.9328 5.49333 30.9328C5.70667 30.9328 5.92 30.8261 6.08 30.7194C6.24 30.6128 6.4 30.4528 6.50667 30.2928C6.61333 30.1328 6.72 29.9194 6.72 29.7061C6.77333 29.4928 7.25333 27.2528 7.25333 27.2528C7.41333 26.3994 7.84 25.6528 8.48 25.1194C9.12 24.5328 9.86667 24.1594 10.72 24.0528C11.0933 23.9994 12.5333 23.8928 12.5333 23.8928C15.4667 23.6261 18.24 22.2394 20.2133 19.9994C22.1867 17.7594 23.2 14.8794 23.0933 11.9461C22.9867 9.01276 21.76 6.18609 19.6267 4.10609C17.44 1.97276 14.56 0.799427 11.6267 0.746094Z" fill="white"/>
<path d="M133.813 27.413C133.547 27.3597 133.28 27.3597 133.067 27.413C132.8 27.4664 132.587 27.573 132.373 27.6797C132.16 27.8397 131.947 27.9997 131.84 28.213C131.733 28.4264 131.627 28.6397 131.573 28.9064C131.52 29.173 131.52 29.4397 131.573 29.653C131.627 29.8664 131.733 30.133 131.84 30.3464C132 30.5597 132.16 30.773 132.373 30.8797C132.587 31.0397 132.8 31.093 133.067 31.1464C133.333 31.1997 133.6 31.1997 133.813 31.1464C134.08 31.093 134.293 30.9864 134.507 30.8797C134.72 30.773 134.933 30.5597 135.04 30.3464C135.147 30.133 135.253 29.9197 135.307 29.653C135.413 29.173 135.307 28.6397 134.987 28.213C134.72 27.8397 134.293 27.5197 133.813 27.413Z" fill="white"/>
</svg>
