<svg width="144" height="32" viewBox="0 0 144 32" fill="none" xmlns="http://www.w3.org/2000/svg">
<g clip-path="url(#clip0_109_952)">
<path d="M56.1067 10.1861C56.96 10.7195 57.7067 11.4661 58.1867 12.4795C58.72 13.4928 58.9867 14.7195 58.9867 16.0528C58.9867 17.3861 58.72 18.5595 58.1333 19.5728C57.6 20.5861 56.8 21.3328 55.7867 21.8128C54.7733 22.3461 53.5467 22.6128 52.2667 22.6128C51.52 22.6128 50.8267 22.4528 50.1866 22.1861C49.4933 21.9728 48.9067 21.5995 48.4267 21.1195V28.1595H44.48V9.65281H47.84L48.16 11.1461C49.6533 9.91947 51.2533 9.33281 52.96 9.33281C54.1333 9.27947 55.2 9.54614 56.1067 10.1861ZM53.92 18.5595C54.6133 17.9728 54.9333 17.1195 54.9333 16.1061C54.9333 15.0928 54.6133 14.2928 53.9733 13.5995C53.3867 12.9061 52.5333 12.6395 51.68 12.6395C50.9333 12.6395 50.24 12.7995 49.7066 13.1195C49.1733 13.3861 48.7467 13.8661 48.4267 14.4528V17.4928C48.64 18.0795 49.0133 18.5595 49.4933 18.9328C50.0267 19.2528 50.6667 19.4661 51.4133 19.4661C52.4267 19.5195 53.2267 19.1995 53.92 18.5595Z" fill="white"/>
<path d="M61.28 12.5334C61.8666 11.5734 62.72 10.7734 63.7866 10.2401C64.8533 9.70672 66.08 9.38672 67.4133 9.38672C68.7466 9.38672 69.9733 9.65339 71.04 10.2401C72.0533 10.7734 72.8533 11.5734 73.4933 12.5867C74.1333 13.6001 74.3466 14.6667 74.3466 15.9467C74.3466 17.2267 74.08 18.2934 73.4933 19.3067C72.9066 20.3201 72.16 21.12 71.04 21.6534C70.0266 22.1867 68.7466 22.5067 67.4133 22.5067C66.08 22.5067 64.8533 22.2401 63.7866 21.7067C62.72 21.1734 61.8666 20.4267 61.28 19.4134C60.7466 18.4001 60.4266 17.2267 60.4266 15.8934C60.4266 14.7201 60.7466 13.5467 61.28 12.5334ZM65.28 18.4534C65.8133 19.1467 66.56 19.4134 67.4666 19.4134C68.3733 19.4134 69.0666 19.0934 69.6533 18.4534C70.1866 17.8667 70.4533 16.9601 70.4533 16.0001C70.4533 14.9867 70.1866 14.1867 69.6533 13.5467C69.0666 12.8534 68.3733 12.5334 67.4133 12.5334C66.56 12.5334 65.8666 12.8534 65.2266 13.4934C64.6933 14.1867 64.4266 14.9867 64.4266 16.0001C64.4266 16.9601 64.6933 17.76 65.28 18.4534Z" fill="white"/>
<path d="M80.8 0.0527344V22.2927H76.8533V0.0527344H80.8Z" fill="white"/>
<path d="M96.8533 9.97266L88.8533 28.2127H85.0667L88.0533 21.6527L82.3466 9.97266H86.8267L90.08 17.2793L93.3333 9.97266H96.8533Z" fill="white"/>
<path d="M111.893 9.97219V22.2922C111.893 23.4655 111.573 24.5322 110.88 25.4922C110.187 26.4522 109.333 27.1989 108.16 27.7322C106.987 28.2655 105.813 28.5322 104.427 28.5322C103.413 28.5322 102.507 28.3722 101.813 28.2122C101.067 27.9455 100.48 27.6789 100 27.4122C99.4667 27.0922 98.9333 26.6655 98.2933 26.1322L100.587 23.4122C101.12 23.9455 101.76 24.3722 102.293 24.6389C102.827 24.9055 103.573 25.1189 104.373 25.1189C105.387 25.1189 106.187 24.8522 106.88 24.3722C107.573 23.8922 107.893 23.1455 107.893 22.2922V20.5322C107.467 21.1189 106.933 21.7055 106.133 22.0789C105.333 22.5055 104.373 22.6655 103.307 22.6655C102.24 22.6655 101.12 22.3989 100.213 21.8122C99.2533 21.2789 98.5067 20.4789 97.92 19.4655C97.3867 18.4522 97.0667 17.3855 97.0667 16.1589C97.0667 14.9322 97.3333 13.8122 97.92 12.7989C98.5067 11.7855 99.2533 10.9855 100.267 10.3455C101.227 9.75885 102.24 9.49219 103.307 9.49219C104.32 9.49219 105.227 9.65219 106.027 9.91885C106.827 10.1855 107.467 10.6122 107.84 11.0922L108.267 10.1322H111.893V9.97219ZM107.893 17.5455V14.5055C107.627 13.9189 107.2 13.4389 106.613 13.0655C106.027 12.7455 105.333 12.5322 104.533 12.5322C103.573 12.5322 102.773 12.8522 102.08 13.4922C101.387 14.1322 101.067 14.9322 101.067 15.9455C101.067 16.9055 101.387 17.7589 102.08 18.4522C102.773 19.1455 103.573 19.4655 104.533 19.4655C106.08 19.3589 107.253 18.7722 107.893 17.5455Z" fill="white"/>
<path d="M115.147 12.532C115.733 11.5187 116.587 10.772 117.653 10.1854C118.72 9.65203 119.947 9.33203 121.28 9.33203C122.613 9.33203 123.84 9.5987 124.907 10.1854C125.92 10.7187 126.72 11.5187 127.36 12.532C127.893 13.5454 128.213 14.612 128.213 15.892C128.213 17.172 127.947 18.2387 127.36 19.252C126.827 20.2654 126.027 21.0654 124.907 21.5987C123.893 22.132 122.613 22.452 121.28 22.452C119.947 22.452 118.72 22.1854 117.653 21.652C116.587 21.1187 115.733 20.372 115.147 19.3587C114.56 18.3454 114.293 17.172 114.293 15.7854C114.24 14.7187 114.56 13.5454 115.147 12.532ZM119.093 18.452C119.627 19.1454 120.373 19.412 121.28 19.412C122.133 19.412 122.88 19.092 123.467 18.452C124 17.8654 124.267 16.9587 124.267 15.9987C124.267 14.9854 124 14.1854 123.467 13.5454C122.933 12.9587 122.187 12.5854 121.28 12.5854C120.427 12.5854 119.733 12.9054 119.093 13.5454C118.507 14.132 118.24 15.0387 118.24 15.9987C118.24 16.9587 118.507 17.7587 119.093 18.452Z" fill="white"/>
<path d="M142.133 10.3987C142.933 11.092 143.307 11.9454 143.36 13.012V22.292H139.36V14.5054C139.307 13.2787 138.667 12.692 137.547 12.692C136.693 12.692 135.947 13.1187 135.36 13.972C134.773 14.8254 134.56 15.9454 134.56 17.2254V22.292H130.613V9.97203H134.187L134.453 11.9454C134.933 11.1454 135.52 10.5054 136.373 10.0254C137.173 9.54536 138.133 9.33203 139.2 9.33203C140.373 9.38536 141.387 9.70536 142.133 10.3987Z" fill="white"/>
<path d="M27.68 9.76C26.9867 9.33333 26.1333 9.33333 25.3867 9.76L20.1067 12.8533L16.5333 14.9333L11.2533 18.0267C10.56 18.4533 9.70667 18.4533 8.96 18.0267L4.74667 15.5733C4.05333 15.1467 3.57333 14.4 3.57333 13.6V8.8C3.57333 8 4 7.25333 4.74667 6.82667L8.85333 4.48C9.54667 4.05333 10.4 4.05333 11.1467 4.48L15.2533 6.82667C15.9467 7.25333 16.4267 8 16.4267 8.8V11.8933L20 9.81333V6.72C20 5.92 19.5733 5.17333 18.8267 4.74667L11.2533 0.32C10.56 -0.106667 9.70667 -0.106667 8.96 0.32L1.17333 4.74667C0.426667 5.17333 0 5.92 0 6.72V15.7333C0 16.5333 0.426667 17.28 1.17333 17.7067L8.96 22.1867C9.65333 22.6133 10.5067 22.6133 11.2533 22.1867L16.5333 19.1467L20.1067 17.0667L25.3867 14.0267C26.08 13.6 26.9333 13.6 27.68 14.0267L31.7867 16.3733C32.48 16.8 32.96 17.5467 32.96 18.3467V23.1467C32.96 23.9467 32.5333 24.6933 31.7867 25.12L27.68 27.5733C26.9867 28 26.1333 28 25.3867 27.5733L21.28 25.2267C20.5867 24.8 20.1067 24.0533 20.1067 23.2533V20.16L16.5333 22.1333V25.2267C16.5333 26.0267 16.96 26.7733 17.7067 27.2L25.4933 31.68C26.1867 32.1067 27.04 32.1067 27.7867 31.68L35.5733 27.2C36.2667 26.7733 36.7467 26.0267 36.7467 25.2267V16.2667C36.7467 15.4667 36.32 14.72 35.5733 14.2933L27.68 9.76Z" fill="white"/>
</g>
<defs>
<clipPath id="clip0_109_952">
<rect width="143.36" height="32" fill="white"/>
</clipPath>
</defs>
</svg>
