<svg width="159" height="30" viewBox="0 0 159 30" fill="none" xmlns="http://www.w3.org/2000/svg">
<g clip-path="url(#clip0_109_942)">
<path d="M51.9 16.4504H57.95C58.8 16.4504 59.5 17.1504 59.5 18.0004C59.5 18.8504 58.8 19.5504 57.95 19.5504H50.65C50.55 19.5504 50.4 19.6004 50.35 19.6504L48.15 21.5504C47.8 21.8504 48 22.4004 48.45 22.4004H57.6C57.7 22.4004 57.85 22.4004 57.95 22.4004C60.35 22.4004 62.35 20.4504 62.35 18.0004C62.35 15.7004 60.6 13.8004 58.3 13.6004H51.8C50.95 13.6004 50.25 12.9004 50.25 12.0504C50.25 11.2004 50.95 10.5004 51.8 10.5004H59.1C59.2 10.5004 59.35 10.4504 59.4 10.4004L61.45 8.50039C61.75 8.20039 61.55 7.65039 61.15 7.65039H51.95C51.9 7.65039 51.85 7.65039 51.85 7.65039C49.45 7.65039 47.45 9.60039 47.45 12.0504C47.45 14.5004 49.4 16.4504 51.85 16.4504C51.85 16.4504 51.85 16.4504 51.9 16.4504Z" fill="white"/>
<path d="M87.15 7.59961C86.9 7.59961 86.65 7.79961 86.65 8.09961V21.8996C86.65 22.1496 86.85 22.3996 87.15 22.3996H98.25C98.4 22.3996 98.5 22.3496 98.6 22.2496L100 20.746C100.3 20.4496 100.05 19.9496 99.65 19.9496H90C89.75 19.9496 89.5 19.7496 89.5 19.4496V8.09961C89.5 7.84961 89.3 7.59961 89 7.59961H87.15Z" fill="white"/>
<path fill-rule="evenodd" clip-rule="evenodd" d="M69.4 7.59961C68 7.64961 66.85 8.79961 66.8 10.1996V19.4996C66.8 19.5496 66.8 19.5996 66.8 19.5996C66.8 21.0496 67.95 22.2996 69.4 22.3496H79.45C80.9 22.2996 82.05 21.0996 82.05 19.5996C82.05 19.5496 82.05 19.4996 82.05 19.4996V10.2496C82 8.84961 80.85 7.69961 79.45 7.64961L69.4 7.59961ZM71.25 10.2496C70.35 10.2996 69.65 10.9996 69.6 11.8996V17.7496V17.7996C69.6 18.6996 70.35 19.4996 71.25 19.4996H77.55C78.45 19.4496 79.2 18.6996 79.2 17.7996V17.7496V11.8996C79.15 10.9996 78.45 10.2996 77.55 10.2496H71.25Z" fill="white"/>
<path fill-rule="evenodd" clip-rule="evenodd" d="M116.05 21.9004C116.05 22.1504 116.25 22.4004 116.55 22.4004H118.45C118.7 22.4004 118.95 22.2004 118.95 21.9004V10.5004C118.95 10.4504 118.95 10.4004 118.95 10.4004C118.95 8.95039 117.8 7.70039 116.35 7.65039H106.7C106.65 7.65039 106.6 7.65039 106.6 7.65039C105.1 7.65039 103.9 8.90039 103.9 10.4004C103.9 10.4504 103.9 10.5004 103.9 10.5004V21.9504C103.9 22.2004 104.1 22.4504 104.4 22.4504H106.3C106.55 22.4504 106.8 22.2504 106.8 21.9504V17.2004C106.8 16.9504 107 16.7004 107.3 16.7004H115.75C116 16.7004 116.25 16.9004 116.25 17.2004L116.05 21.9004ZM106.65 14.0504V11.6504C106.65 10.7504 107.4 10.0004 108.3 10.0004H114.4C115.3 10.0004 116.05 10.7504 116.05 11.6504V14.0504C116.05 14.3004 115.85 14.5504 115.55 14.5504H107.1C106.85 14.5504 106.65 14.3004 106.65 14.0504Z" fill="white"/>
<path fill-rule="evenodd" clip-rule="evenodd" d="M155.7 22.4004C155.45 22.4004 155.2 22.2004 155.2 21.9004V17.1504C155.2 16.9004 155 16.6504 154.7 16.6504H146.15C145.9 16.6504 145.65 16.8504 145.65 17.1504V21.9004C145.65 22.1504 145.45 22.4004 145.15 22.4004H143.25C143 22.4004 142.75 22.2004 142.75 21.9004V10.5004C142.75 10.4504 142.75 10.4004 142.75 10.4004C142.75 8.90039 144 7.65039 145.5 7.65039C145.55 7.65039 145.6 7.65039 145.6 7.65039H155.5C156.95 7.70039 158.1 8.90039 158.1 10.4004C158.1 10.4504 158.1 10.5004 158.1 10.5004V21.9504C158.1 22.2004 157.9 22.4504 157.6 22.4504L155.7 22.4004ZM145.7 11.6504V14.0504C145.7 14.3004 145.9 14.5504 146.2 14.5504H154.75C155 14.5504 155.25 14.3504 155.25 14.0504V11.6504C155.25 10.7504 154.5 10.0004 153.6 10.0004H147.4C146.45 10.0004 145.7 10.7504 145.7 11.6504Z" fill="white"/>
<path d="M125.95 7.59961C126.1 7.59961 126.2 7.64961 126.3 7.74961L134.7 17.7996C135 18.1496 135.55 17.9496 135.55 17.4996V8.09961C135.55 7.84961 135.75 7.59961 136.05 7.59961H137.95C138.2 7.59961 138.45 7.79961 138.45 8.09961V21.8996C138.45 22.1496 138.25 22.3996 137.95 22.3996H135.6L127 12.3996C126.7 12.0496 126.15 12.2996 126.15 12.6996V21.8996C126.15 22.1496 125.95 22.3996 125.65 22.3996H123.75C123.5 22.3996 123.25 22.1996 123.25 21.8996V8.09961C123.25 7.84961 123.45 7.59961 123.75 7.59961H125.95Z" fill="white"/>
<path d="M6.20001 22.9008C6.45001 22.6508 6.75001 22.5508 7.10001 22.5508H37.65C38.2 22.5508 38.5 23.2008 38.1 23.6008L32.05 29.6508C31.8 29.8508 31.5 30.0008 31.2 30.0008H0.650007C0.100007 30.0008 -0.199993 29.3508 0.200007 28.9508L6.20001 22.9008Z" fill="white"/>
<path d="M6.2 0.35C6.45 0.15 6.75 0 7.1 0H37.65C38.2 0 38.5 0.65 38.1 1.05L32.05 7.1C31.8 7.35 31.5 7.45 31.15 7.45H0.649999C0.0999993 7.45 -0.200001 6.8 0.199999 6.4L6.2 0.35Z" fill="white"/>
<path d="M32.05 11.5492C31.8 11.2992 31.5 11.1992 31.15 11.1992H0.650007C0.100007 11.1992 -0.199993 11.8492 0.200007 12.2492L6.25001 18.2992C6.50001 18.5492 6.80001 18.6492 7.15001 18.6492H37.7C38.25 18.6492 38.55 17.9992 38.15 17.5992L32.05 11.5492Z" fill="white"/>
</g>
<defs>
<clipPath id="clip0_109_942">
<rect width="158.1" height="30" fill="white"/>
</clipPath>
</defs>
</svg>
