<svg width="1170" height="126" viewBox="0 0 1170 126" fill="none" xmlns="http://www.w3.org/2000/svg">
<rect y="66" width="100" height="60" fill="#F8CC25"/>
<rect x="100" y="66" width="120" height="60" fill="#FFA71D"/>
<rect x="220" y="66" width="130" height="60" fill="#FE791F"/>
<rect x="350" y="66" width="160" height="60" fill="#B9BC2F"/>
<rect x="510" y="66" width="190" height="60" fill="#90BA1C"/>
<rect x="700" y="66" width="200" height="60" fill="#65B459"/>
<rect x="900" y="66" width="270" height="60" fill="#3E917A"/>
<path d="M0.704545 2.875V1.36364H9.71023V2.875H6.07955V13H4.32955V2.875H0.704545ZM14.0597 13.1761C13.1998 13.1761 12.4593 12.9924 11.8381 12.625C11.2206 12.2538 10.7434 11.733 10.4062 11.0625C10.0729 10.3883 9.90625 9.59848 9.90625 8.69318C9.90625 7.79924 10.0729 7.01136 10.4062 6.32955C10.7434 5.64773 11.2131 5.11553 11.8153 4.73295C12.4214 4.35038 13.1297 4.15909 13.9403 4.15909C14.4328 4.15909 14.91 4.24053 15.3722 4.40341C15.8343 4.56629 16.2491 4.82197 16.6165 5.17045C16.9839 5.51894 17.2737 5.97159 17.4858 6.52841C17.6979 7.08144 17.804 7.75379 17.804 8.54545V9.14773H10.8665V7.875H16.1392C16.1392 7.42803 16.0483 7.0322 15.8665 6.6875C15.6847 6.33902 15.429 6.06439 15.0994 5.86364C14.7737 5.66288 14.3911 5.5625 13.9517 5.5625C13.4744 5.5625 13.0578 5.67992 12.7017 5.91477C12.3494 6.14583 12.0767 6.44886 11.8835 6.82386C11.6941 7.19508 11.5994 7.59848 11.5994 8.03409V9.02841C11.5994 9.61174 11.7017 10.108 11.9062 10.517C12.1146 10.9261 12.4044 11.2386 12.7756 11.4545C13.1468 11.6667 13.5805 11.7727 14.0767 11.7727C14.3987 11.7727 14.6922 11.7273 14.9574 11.6364C15.2225 11.5417 15.4517 11.4015 15.6449 11.2159C15.8381 11.0303 15.9858 10.8011 16.0881 10.5284L17.696 10.8182C17.5672 11.2917 17.3362 11.7064 17.0028 12.0625C16.6733 12.4148 16.2585 12.6894 15.7585 12.8864C15.2623 13.0795 14.696 13.1761 14.0597 13.1761ZM22.2287 13.1932C21.6757 13.1932 21.1757 13.0909 20.7287 12.8864C20.2817 12.678 19.9276 12.3769 19.6662 11.983C19.4086 11.589 19.2798 11.1061 19.2798 10.5341C19.2798 10.0417 19.3745 9.63636 19.5639 9.31818C19.7533 9 20.009 8.74811 20.331 8.5625C20.6529 8.37689 21.0128 8.23674 21.4105 8.14205C21.8082 8.04735 22.2135 7.97538 22.6264 7.92614C23.1491 7.86553 23.5734 7.81629 23.8991 7.77841C24.2249 7.73674 24.4616 7.67045 24.6094 7.57955C24.7571 7.48864 24.831 7.34091 24.831 7.13636V7.09659C24.831 6.60038 24.6908 6.21591 24.4105 5.94318C24.134 5.67045 23.7211 5.53409 23.1719 5.53409C22.5999 5.53409 22.1491 5.66098 21.8196 5.91477C21.4938 6.16477 21.2685 6.44318 21.1435 6.75L19.5469 6.38636C19.7363 5.85606 20.0128 5.42803 20.3764 5.10227C20.7438 4.77273 21.1662 4.53409 21.6435 4.38636C22.1207 4.23485 22.6226 4.15909 23.1491 4.15909C23.4976 4.15909 23.867 4.20076 24.2571 4.28409C24.651 4.36364 25.0185 4.51136 25.3594 4.72727C25.7041 4.94318 25.9863 5.25189 26.206 5.65341C26.4257 6.05114 26.5355 6.56818 26.5355 7.20455V13H24.8764V11.8068H24.8082C24.6984 12.0265 24.5336 12.2424 24.3139 12.4545C24.0942 12.6667 23.812 12.8428 23.4673 12.983C23.1226 13.1231 22.7098 13.1932 22.2287 13.1932ZM22.598 11.8295C23.0677 11.8295 23.4692 11.7367 23.8026 11.5511C24.1397 11.3655 24.3954 11.1231 24.5696 10.8239C24.7476 10.5208 24.8366 10.197 24.8366 9.85227V8.72727C24.776 8.78788 24.6586 8.8447 24.4844 8.89773C24.3139 8.94697 24.1188 8.99053 23.8991 9.02841C23.6795 9.0625 23.4654 9.0947 23.2571 9.125C23.0488 9.15152 22.8745 9.17424 22.7344 9.19318C22.4048 9.23485 22.1037 9.30492 21.831 9.40341C21.562 9.50189 21.3461 9.64394 21.1832 9.82955C21.0241 10.0114 20.9446 10.2538 20.9446 10.5568C20.9446 10.9773 21.0999 11.2955 21.4105 11.5114C21.7211 11.7235 22.117 11.8295 22.598 11.8295ZM28.7983 13V4.27273H30.429V5.69318H30.5369C30.7188 5.21212 31.0161 4.83712 31.429 4.56818C31.8419 4.29545 32.3362 4.15909 32.9119 4.15909C33.4953 4.15909 33.9839 4.29545 34.3778 4.56818C34.7756 4.84091 35.0691 5.21591 35.2585 5.69318H35.3494C35.5578 5.22727 35.8892 4.85606 36.3438 4.57955C36.7983 4.29924 37.34 4.15909 37.9688 4.15909C38.7604 4.15909 39.4062 4.4072 39.9062 4.90341C40.41 5.39962 40.6619 6.14773 40.6619 7.14773V13H38.9631V7.30682C38.9631 6.71591 38.8021 6.28788 38.4801 6.02273C38.1581 5.75758 37.7737 5.625 37.3267 5.625C36.7737 5.625 36.3438 5.79545 36.0369 6.13636C35.7301 6.47348 35.5767 6.9072 35.5767 7.4375V13H33.8835V7.19886C33.8835 6.72538 33.7358 6.3447 33.4403 6.05682C33.1449 5.76894 32.7604 5.625 32.2869 5.625C31.965 5.625 31.6676 5.71023 31.3949 5.88068C31.1259 6.04735 30.9081 6.2803 30.7415 6.57955C30.5786 6.87879 30.4972 7.22538 30.4972 7.61932V13H28.7983Z" fill="white" fill-opacity="0.7"/>
<path d="M0.16 29.8H8.8V32.04L5.12 41H1.92L5.76 32.04H0.16V29.8ZM8.63625 38.6H11.5163V41H8.63625V38.6ZM18.24 41.16C16.4587 41.16 14.4853 41.0533 12.32 40.84V38.68C14.6773 38.84 16.4373 38.92 17.6 38.92C17.8453 38.92 18.0373 38.8507 18.176 38.712C18.3253 38.5627 18.4 38.3653 18.4 38.12V37.32C18.4 36.68 18.08 36.36 17.44 36.36H12.8V29.8H20.48V32.04H15.68V34.12H18.24C19.2853 34.12 20.0533 34.36 20.544 34.84C21.0347 35.3093 21.28 36.0293 21.28 37V38.12C21.28 39.1653 21.0347 39.9333 20.544 40.424C20.0533 40.9147 19.2853 41.16 18.24 41.16ZM23.9938 41L30.3938 29.8H32.7938L26.5538 41H23.9938ZM27.3538 33.56C27.3538 34.2 27.1778 34.696 26.8258 35.048C26.4844 35.3893 25.9938 35.56 25.3538 35.56H23.9138C23.2738 35.56 22.7778 35.3893 22.4258 35.048C22.0844 34.696 21.9138 34.2 21.9138 33.56V31.64C21.9138 31 22.0844 30.5093 22.4258 30.168C22.7778 29.816 23.2738 29.64 23.9138 29.64H25.3538C25.9938 29.64 26.4844 29.816 26.8258 30.168C27.1778 30.5093 27.3538 31 27.3538 31.64V33.56ZM25.4338 31.64C25.4338 31.2667 25.2471 31.08 24.8738 31.08H24.3938C24.0204 31.08 23.8338 31.2667 23.8338 31.64V33.56C23.8338 33.9333 24.0204 34.12 24.3938 34.12H24.8738C25.2471 34.12 25.4338 33.9333 25.4338 33.56V31.64ZM35.0338 39.16C35.0338 39.8 34.8578 40.296 34.5058 40.648C34.1644 40.9893 33.6738 41.16 33.0338 41.16H31.5938C30.9537 41.16 30.4578 40.9893 30.1058 40.648C29.7644 40.296 29.5938 39.8 29.5938 39.16V37.24C29.5938 36.6 29.7644 36.1093 30.1058 35.768C30.4578 35.416 30.9537 35.24 31.5938 35.24H33.0338C33.6738 35.24 34.1644 35.416 34.5058 35.768C34.8578 36.1093 35.0338 36.6 35.0338 37.24V39.16ZM33.1138 37.24C33.1138 36.8667 32.9271 36.68 32.5538 36.68H32.0738C31.7004 36.68 31.5138 36.8667 31.5138 37.24V39.16C31.5138 39.5333 31.7004 39.72 32.0738 39.72H32.5538C32.9271 39.72 33.1138 39.5333 33.1138 39.16V37.24Z" fill="white"/>
<path d="M107.625 4.42045C107.564 3.88258 107.314 3.46591 106.875 3.17045C106.436 2.87121 105.883 2.72159 105.216 2.72159C104.739 2.72159 104.326 2.79735 103.977 2.94886C103.629 3.09659 103.358 3.30114 103.165 3.5625C102.975 3.82008 102.881 4.11364 102.881 4.44318C102.881 4.7197 102.945 4.95833 103.074 5.15909C103.206 5.35985 103.379 5.52841 103.591 5.66477C103.807 5.79735 104.038 5.90909 104.284 6C104.53 6.08712 104.767 6.15909 104.994 6.21591L106.131 6.51136C106.502 6.60227 106.883 6.72538 107.273 6.88068C107.663 7.03598 108.025 7.24053 108.358 7.49432C108.691 7.74811 108.96 8.0625 109.165 8.4375C109.373 8.8125 109.477 9.26136 109.477 9.78409C109.477 10.4432 109.307 11.0284 108.966 11.5398C108.629 12.0511 108.138 12.4545 107.494 12.75C106.854 13.0455 106.08 13.1932 105.17 13.1932C104.299 13.1932 103.545 13.0549 102.909 12.7784C102.273 12.5019 101.775 12.1098 101.415 11.6023C101.055 11.0909 100.856 10.4848 100.818 9.78409H102.58C102.614 10.2045 102.75 10.5549 102.989 10.8352C103.231 11.1117 103.54 11.3182 103.915 11.4545C104.294 11.5871 104.708 11.6534 105.159 11.6534C105.655 11.6534 106.097 11.5758 106.483 11.4205C106.873 11.2614 107.18 11.0417 107.403 10.7614C107.627 10.4773 107.739 10.1458 107.739 9.76705C107.739 9.42235 107.64 9.14015 107.443 8.92045C107.25 8.70076 106.987 8.51894 106.653 8.375C106.324 8.23106 105.951 8.10417 105.534 7.99432L104.159 7.61932C103.227 7.36553 102.489 6.99242 101.943 6.5C101.402 6.00758 101.131 5.35606 101.131 4.54545C101.131 3.875 101.313 3.28977 101.676 2.78977C102.04 2.28977 102.532 1.90151 103.153 1.625C103.775 1.3447 104.475 1.20455 105.256 1.20455C106.044 1.20455 106.739 1.3428 107.341 1.61932C107.947 1.89583 108.424 2.27652 108.773 2.76136C109.121 3.24242 109.303 3.79545 109.318 4.42045H107.625ZM115.513 4.27273V5.63636H110.746V4.27273H115.513ZM112.024 2.18182H113.723V10.4375C113.723 10.767 113.772 11.0152 113.871 11.1818C113.969 11.3447 114.096 11.4564 114.251 11.517C114.411 11.5739 114.583 11.6023 114.768 11.6023C114.905 11.6023 115.024 11.5928 115.126 11.5739C115.229 11.5549 115.308 11.5398 115.365 11.5284L115.672 12.9318C115.573 12.9697 115.433 13.0076 115.251 13.0455C115.07 13.0871 114.842 13.1098 114.57 13.1136C114.123 13.1212 113.706 13.0417 113.32 12.875C112.933 12.7083 112.621 12.4508 112.382 12.1023C112.143 11.7538 112.024 11.3163 112.024 10.7898V2.18182ZM119.932 13.1932C119.379 13.1932 118.879 13.0909 118.432 12.8864C117.985 12.678 117.631 12.3769 117.369 11.983C117.112 11.589 116.983 11.1061 116.983 10.5341C116.983 10.0417 117.078 9.63636 117.267 9.31818C117.456 9 117.712 8.74811 118.034 8.5625C118.356 8.37689 118.716 8.23674 119.114 8.14205C119.511 8.04735 119.917 7.97538 120.33 7.92614C120.852 7.86553 121.277 7.81629 121.602 7.77841C121.928 7.73674 122.165 7.67045 122.312 7.57955C122.46 7.48864 122.534 7.34091 122.534 7.13636V7.09659C122.534 6.60038 122.394 6.21591 122.114 5.94318C121.837 5.67045 121.424 5.53409 120.875 5.53409C120.303 5.53409 119.852 5.66098 119.523 5.91477C119.197 6.16477 118.972 6.44318 118.847 6.75L117.25 6.38636C117.439 5.85606 117.716 5.42803 118.08 5.10227C118.447 4.77273 118.869 4.53409 119.347 4.38636C119.824 4.23485 120.326 4.15909 120.852 4.15909C121.201 4.15909 121.57 4.20076 121.96 4.28409C122.354 4.36364 122.722 4.51136 123.062 4.72727C123.407 4.94318 123.689 5.25189 123.909 5.65341C124.129 6.05114 124.239 6.56818 124.239 7.20455V13H122.58V11.8068H122.511C122.402 12.0265 122.237 12.2424 122.017 12.4545C121.797 12.6667 121.515 12.8428 121.17 12.983C120.826 13.1231 120.413 13.1932 119.932 13.1932ZM120.301 11.8295C120.771 11.8295 121.172 11.7367 121.506 11.5511C121.843 11.3655 122.098 11.1231 122.273 10.8239C122.451 10.5208 122.54 10.197 122.54 9.85227V8.72727C122.479 8.78788 122.362 8.8447 122.188 8.89773C122.017 8.94697 121.822 8.99053 121.602 9.02841C121.383 9.0625 121.169 9.0947 120.96 9.125C120.752 9.15152 120.578 9.17424 120.438 9.19318C120.108 9.23485 119.807 9.30492 119.534 9.40341C119.265 9.50189 119.049 9.64394 118.886 9.82955C118.727 10.0114 118.648 10.2538 118.648 10.5568C118.648 10.9773 118.803 11.2955 119.114 11.5114C119.424 11.7235 119.82 11.8295 120.301 11.8295ZM128.064 10.0398L128.053 7.96591H128.348L131.825 4.27273H133.859L129.893 8.47727H129.626L128.064 10.0398ZM126.501 13V1.36364H128.2V13H126.501ZM132.013 13L128.888 8.85227L130.058 7.66477L134.098 13H132.013ZM135.408 13V4.27273H137.107V13H135.408ZM136.266 2.92614C135.97 2.92614 135.716 2.82765 135.504 2.63068C135.296 2.42992 135.192 2.19129 135.192 1.91477C135.192 1.63447 135.296 1.39583 135.504 1.19886C135.716 0.998106 135.97 0.897727 136.266 0.897727C136.561 0.897727 136.813 0.998106 137.021 1.19886C137.233 1.39583 137.339 1.63447 137.339 1.91477C137.339 2.19129 137.233 2.42992 137.021 2.63068C136.813 2.82765 136.561 2.92614 136.266 2.92614ZM141.091 7.81818V13H139.392V4.27273H141.023V5.69318H141.131C141.331 5.23106 141.646 4.85985 142.074 4.57955C142.506 4.29924 143.049 4.15909 143.705 4.15909C144.299 4.15909 144.82 4.28409 145.267 4.53409C145.714 4.7803 146.061 5.14773 146.307 5.63636C146.553 6.125 146.676 6.72917 146.676 7.44886V13H144.977V7.65341C144.977 7.02083 144.813 6.52652 144.483 6.17045C144.153 5.81061 143.701 5.63068 143.125 5.63068C142.731 5.63068 142.381 5.71591 142.074 5.88636C141.771 6.05682 141.53 6.30682 141.352 6.63636C141.178 6.96212 141.091 7.35606 141.091 7.81818ZM152.614 16.4545C151.92 16.4545 151.324 16.3636 150.824 16.1818C150.328 16 149.922 15.7595 149.608 15.4602C149.294 15.161 149.059 14.8333 148.903 14.4773L150.364 13.875C150.466 14.0417 150.602 14.2178 150.773 14.4034C150.947 14.5928 151.182 14.7538 151.477 14.8864C151.777 15.0189 152.161 15.0852 152.631 15.0852C153.275 15.0852 153.807 14.928 154.227 14.6136C154.648 14.303 154.858 13.8068 154.858 13.125V11.4091H154.75C154.648 11.5947 154.5 11.8011 154.307 12.0284C154.117 12.2557 153.856 12.4527 153.523 12.6193C153.189 12.786 152.756 12.8693 152.222 12.8693C151.532 12.8693 150.911 12.7083 150.358 12.3864C149.809 12.0606 149.373 11.5814 149.051 10.9489C148.733 10.3125 148.574 9.5303 148.574 8.60227C148.574 7.67424 148.731 6.87879 149.045 6.21591C149.364 5.55303 149.799 5.04545 150.352 4.69318C150.905 4.33712 151.532 4.15909 152.233 4.15909C152.775 4.15909 153.212 4.25 153.545 4.43182C153.879 4.60985 154.138 4.81818 154.324 5.05682C154.513 5.29545 154.659 5.50568 154.761 5.6875H154.886V4.27273H156.551V13.1932C156.551 13.9432 156.377 14.5587 156.028 15.0398C155.68 15.5208 155.208 15.8769 154.614 16.108C154.023 16.339 153.356 16.4545 152.614 16.4545ZM152.597 11.4602C153.085 11.4602 153.498 11.3466 153.835 11.1193C154.176 10.8883 154.434 10.5587 154.608 10.1307C154.786 9.69886 154.875 9.18182 154.875 8.57955C154.875 7.99242 154.788 7.47538 154.614 7.02841C154.439 6.58144 154.184 6.23295 153.847 5.98295C153.509 5.72917 153.093 5.60227 152.597 5.60227C152.085 5.60227 151.659 5.73485 151.318 6C150.977 6.26136 150.72 6.61742 150.545 7.06818C150.375 7.51894 150.29 8.02273 150.29 8.57955C150.29 9.15152 150.377 9.65341 150.551 10.0852C150.725 10.517 150.983 10.8542 151.324 11.0966C151.669 11.339 152.093 11.4602 152.597 11.4602Z" fill="white" fill-opacity="0.7"/>
<path d="M101.12 38.68C103.317 38.84 104.864 38.92 105.76 38.92C106.005 38.92 106.197 38.8507 106.336 38.712C106.485 38.5627 106.56 38.3653 106.56 38.12V36.68C105.525 36.8933 104.619 37 103.84 37H102.72C101.995 37 101.413 36.7813 100.976 36.344C100.539 35.9067 100.32 35.3253 100.32 34.6V32.52C100.32 31.5493 100.565 30.8293 101.056 30.36C101.547 29.88 102.315 29.64 103.36 29.64H106.4C107.445 29.64 108.213 29.88 108.704 30.36C109.195 30.8293 109.44 31.5493 109.44 32.52V38.12C109.44 39.1653 109.195 39.9333 108.704 40.424C108.213 40.9147 107.445 41.16 106.4 41.16C104.939 41.16 103.179 41.0533 101.12 40.84V38.68ZM104.64 34.76C105.248 34.76 105.888 34.7067 106.56 34.6V32.84C106.56 32.2 106.24 31.88 105.6 31.88H104.16C103.52 31.88 103.2 32.2 103.2 32.84V34.2C103.2 34.36 103.253 34.4933 103.36 34.6C103.467 34.7067 103.6 34.76 103.76 34.76H104.64ZM110.558 38.6H113.438V41H110.558V38.6ZM120.162 41.16C118.381 41.16 116.407 41.0533 114.242 40.84V38.68C116.599 38.84 118.359 38.92 119.522 38.92C119.767 38.92 119.959 38.8507 120.098 38.712C120.247 38.5627 120.322 38.3653 120.322 38.12V37.32C120.322 36.68 120.002 36.36 119.362 36.36H114.722V29.8H122.402V32.04H117.602V34.12H120.162C121.207 34.12 121.975 34.36 122.466 34.84C122.957 35.3093 123.202 36.0293 123.202 37V38.12C123.202 39.1653 122.957 39.9333 122.466 40.424C121.975 40.9147 121.207 41.16 120.162 41.16ZM130.716 32.84C130.716 32.2 130.396 31.88 129.756 31.88H127.996C127.356 31.88 127.036 32.2 127.036 32.84V37.96C127.036 38.6 127.356 38.92 127.996 38.92H129.756C130.396 38.92 130.716 38.6 130.716 37.96V32.84ZM133.596 37.96C133.596 39.08 133.34 39.896 132.828 40.408C132.326 40.9093 131.516 41.16 130.396 41.16H127.356C126.236 41.16 125.42 40.9093 124.908 40.408C124.406 39.896 124.156 39.08 124.156 37.96V32.84C124.156 31.72 124.406 30.9093 124.908 30.408C125.42 29.896 126.236 29.64 127.356 29.64H130.396C131.516 29.64 132.326 29.896 132.828 30.408C133.34 30.9093 133.596 31.72 133.596 32.84V37.96ZM136.634 41L143.034 29.8H145.434L139.194 41H136.634ZM139.994 33.56C139.994 34.2 139.818 34.696 139.466 35.048C139.125 35.3893 138.634 35.56 137.994 35.56H136.554C135.914 35.56 135.418 35.3893 135.066 35.048C134.725 34.696 134.554 34.2 134.554 33.56V31.64C134.554 31 134.725 30.5093 135.066 30.168C135.418 29.816 135.914 29.64 136.554 29.64H137.994C138.634 29.64 139.125 29.816 139.466 30.168C139.818 30.5093 139.994 31 139.994 31.64V33.56ZM138.074 31.64C138.074 31.2667 137.888 31.08 137.514 31.08H137.034C136.661 31.08 136.474 31.2667 136.474 31.64V33.56C136.474 33.9333 136.661 34.12 137.034 34.12H137.514C137.888 34.12 138.074 33.9333 138.074 33.56V31.64ZM147.674 39.16C147.674 39.8 147.498 40.296 147.146 40.648C146.805 40.9893 146.314 41.16 145.674 41.16H144.234C143.594 41.16 143.098 40.9893 142.746 40.648C142.405 40.296 142.234 39.8 142.234 39.16V37.24C142.234 36.6 142.405 36.1093 142.746 35.768C143.098 35.416 143.594 35.24 144.234 35.24H145.674C146.314 35.24 146.805 35.416 147.146 35.768C147.498 36.1093 147.674 36.6 147.674 37.24V39.16ZM145.754 37.24C145.754 36.8667 145.568 36.68 145.194 36.68H144.714C144.341 36.68 144.154 36.8667 144.154 37.24V39.16C144.154 39.5333 144.341 39.72 144.714 39.72H145.194C145.568 39.72 145.754 39.5333 145.754 39.16V37.24Z" fill="white"/>
<path d="M222.261 13H220.398L224.585 1.36364H226.614L230.801 13H228.938L225.648 3.47727H225.557L222.261 13ZM222.574 8.44318H228.619V9.92045H222.574V8.44318ZM235.472 13.1705C234.767 13.1705 234.138 12.9905 233.585 12.6307C233.036 12.267 232.604 11.75 232.29 11.0795C231.979 10.4053 231.824 9.59659 231.824 8.65341C231.824 7.71023 231.981 6.90341 232.295 6.23295C232.614 5.5625 233.049 5.04924 233.602 4.69318C234.155 4.33712 234.782 4.15909 235.483 4.15909C236.025 4.15909 236.46 4.25 236.79 4.43182C237.123 4.60985 237.381 4.81818 237.562 5.05682C237.748 5.29545 237.892 5.50568 237.994 5.6875H238.097V1.36364H239.795V13H238.136V11.642H237.994C237.892 11.8277 237.744 12.0398 237.551 12.2784C237.362 12.517 237.1 12.7254 236.767 12.9034C236.434 13.0814 236.002 13.1705 235.472 13.1705ZM235.847 11.7216C236.335 11.7216 236.748 11.5928 237.085 11.3352C237.426 11.0739 237.684 10.7121 237.858 10.25C238.036 9.78788 238.125 9.25 238.125 8.63636C238.125 8.0303 238.038 7.5 237.864 7.04545C237.689 6.59091 237.434 6.23674 237.097 5.98295C236.759 5.72917 236.343 5.60227 235.847 5.60227C235.335 5.60227 234.909 5.73485 234.568 6C234.227 6.26515 233.97 6.62689 233.795 7.08523C233.625 7.54356 233.54 8.06061 233.54 8.63636C233.54 9.2197 233.627 9.74432 233.801 10.2102C233.975 10.6761 234.233 11.0455 234.574 11.3182C234.919 11.5871 235.343 11.7216 235.847 11.7216ZM249.686 4.27273L246.521 13H244.703L241.533 4.27273H243.357L245.567 10.9886H245.658L247.862 4.27273H249.686ZM251.283 13V4.27273H252.982V13H251.283ZM252.141 2.92614C251.845 2.92614 251.591 2.82765 251.379 2.63068C251.171 2.42992 251.067 2.19129 251.067 1.91477C251.067 1.63447 251.171 1.39583 251.379 1.19886C251.591 0.998106 251.845 0.897727 252.141 0.897727C252.436 0.897727 252.688 0.998106 252.896 1.19886C253.108 1.39583 253.214 1.63447 253.214 1.91477C253.214 2.19129 253.108 2.42992 252.896 2.63068C252.688 2.82765 252.436 2.92614 252.141 2.92614ZM261.807 6.40341L260.267 6.67614C260.203 6.47917 260.1 6.29167 259.96 6.11364C259.824 5.93561 259.638 5.78977 259.403 5.67614C259.169 5.5625 258.875 5.50568 258.523 5.50568C258.042 5.50568 257.64 5.61364 257.318 5.82955C256.996 6.04167 256.835 6.31629 256.835 6.65341C256.835 6.94508 256.943 7.17992 257.159 7.35795C257.375 7.53598 257.723 7.68182 258.205 7.79545L259.591 8.11364C260.394 8.29924 260.992 8.58523 261.386 8.97159C261.78 9.35795 261.977 9.85985 261.977 10.4773C261.977 11 261.826 11.4659 261.523 11.875C261.223 12.2803 260.805 12.5985 260.267 12.8295C259.733 13.0606 259.114 13.1761 258.409 13.1761C257.432 13.1761 256.634 12.9678 256.017 12.5511C255.4 12.1307 255.021 11.5341 254.881 10.7614L256.523 10.5114C256.625 10.9394 256.835 11.2633 257.153 11.483C257.472 11.6989 257.886 11.8068 258.398 11.8068C258.955 11.8068 259.4 11.6913 259.733 11.4602C260.066 11.2254 260.233 10.9394 260.233 10.6023C260.233 10.3295 260.131 10.1004 259.926 9.91477C259.725 9.72917 259.417 9.58902 259 9.49432L257.523 9.17045C256.708 8.98485 256.106 8.68939 255.716 8.28409C255.33 7.87879 255.136 7.36553 255.136 6.74432C255.136 6.22917 255.28 5.77841 255.568 5.39205C255.856 5.00568 256.254 4.70455 256.761 4.48864C257.269 4.26894 257.85 4.15909 258.506 4.15909C259.449 4.15909 260.191 4.36364 260.733 4.77273C261.275 5.17803 261.633 5.72159 261.807 6.40341ZM267.521 13.1761C266.703 13.1761 265.989 12.9886 265.379 12.6136C264.769 12.2386 264.296 11.714 263.959 11.0398C263.622 10.3655 263.453 9.57765 263.453 8.67614C263.453 7.77083 263.622 6.97917 263.959 6.30114C264.296 5.62311 264.769 5.09659 265.379 4.72159C265.989 4.34659 266.703 4.15909 267.521 4.15909C268.339 4.15909 269.054 4.34659 269.663 4.72159C270.273 5.09659 270.747 5.62311 271.084 6.30114C271.421 6.97917 271.589 7.77083 271.589 8.67614C271.589 9.57765 271.421 10.3655 271.084 11.0398C270.747 11.714 270.273 12.2386 269.663 12.6136C269.054 12.9886 268.339 13.1761 267.521 13.1761ZM267.527 11.75C268.057 11.75 268.497 11.6098 268.845 11.3295C269.194 11.0492 269.451 10.6761 269.618 10.2102C269.788 9.74432 269.874 9.23106 269.874 8.67045C269.874 8.11364 269.788 7.60227 269.618 7.13636C269.451 6.66667 269.194 6.28977 268.845 6.00568C268.497 5.72159 268.057 5.57955 267.527 5.57955C266.993 5.57955 266.55 5.72159 266.197 6.00568C265.849 6.28977 265.589 6.66667 265.419 7.13636C265.252 7.60227 265.169 8.11364 265.169 8.67045C265.169 9.23106 265.252 9.74432 265.419 10.2102C265.589 10.6761 265.849 11.0492 266.197 11.3295C266.55 11.6098 266.993 11.75 267.527 11.75ZM273.486 13V4.27273H275.128V5.65909H275.219C275.378 5.18939 275.658 4.82008 276.06 4.55114C276.465 4.27841 276.923 4.14205 277.435 4.14205C277.541 4.14205 277.666 4.14583 277.81 4.15341C277.957 4.16098 278.073 4.17045 278.156 4.18182V5.80682C278.088 5.78788 277.967 5.76705 277.793 5.74432C277.618 5.7178 277.444 5.70455 277.27 5.70455C276.868 5.70455 276.51 5.78977 276.196 5.96023C275.885 6.12689 275.639 6.35985 275.457 6.65909C275.276 6.95455 275.185 7.29167 275.185 7.67045V13H273.486ZM286.166 6.40341L284.626 6.67614C284.562 6.47917 284.46 6.29167 284.32 6.11364C284.183 5.93561 283.998 5.78977 283.763 5.67614C283.528 5.5625 283.234 5.50568 282.882 5.50568C282.401 5.50568 282 5.61364 281.678 5.82955C281.356 6.04167 281.195 6.31629 281.195 6.65341C281.195 6.94508 281.303 7.17992 281.518 7.35795C281.734 7.53598 282.083 7.68182 282.564 7.79545L283.95 8.11364C284.753 8.29924 285.352 8.58523 285.746 8.97159C286.14 9.35795 286.337 9.85985 286.337 10.4773C286.337 11 286.185 11.4659 285.882 11.875C285.583 12.2803 285.164 12.5985 284.626 12.8295C284.092 13.0606 283.473 13.1761 282.768 13.1761C281.791 13.1761 280.994 12.9678 280.376 12.5511C279.759 12.1307 279.38 11.5341 279.24 10.7614L280.882 10.5114C280.984 10.9394 281.195 11.2633 281.513 11.483C281.831 11.6989 282.246 11.8068 282.757 11.8068C283.314 11.8068 283.759 11.6913 284.092 11.4602C284.426 11.2254 284.592 10.9394 284.592 10.6023C284.592 10.3295 284.49 10.1004 284.286 9.91477C284.085 9.72917 283.776 9.58902 283.359 9.49432L281.882 9.17045C281.068 8.98485 280.465 8.68939 280.075 8.28409C279.689 7.87879 279.496 7.36553 279.496 6.74432C279.496 6.22917 279.64 5.77841 279.928 5.39205C280.215 5.00568 280.613 4.70455 281.121 4.48864C281.628 4.26894 282.21 4.15909 282.865 4.15909C283.808 4.15909 284.551 4.36364 285.092 4.77273C285.634 5.17803 285.992 5.72159 286.166 6.40341Z" fill="white" fill-opacity="0.7"/>
<path d="M222.64 41V32.28L220.8 32.92L220 31.08L222.96 29.8H225.52V41H222.64ZM233.684 32.84C233.684 32.2 233.364 31.88 232.724 31.88H230.964C230.324 31.88 230.004 32.2 230.004 32.84V37.96C230.004 38.6 230.324 38.92 230.964 38.92H232.724C233.364 38.92 233.684 38.6 233.684 37.96V32.84ZM236.564 37.96C236.564 39.08 236.308 39.896 235.796 40.408C235.295 40.9093 234.484 41.16 233.364 41.16H230.324C229.204 41.16 228.388 40.9093 227.876 40.408C227.375 39.896 227.124 39.08 227.124 37.96V32.84C227.124 31.72 227.375 30.9093 227.876 30.408C228.388 29.896 229.204 29.64 230.324 29.64H233.364C234.484 29.64 235.295 29.896 235.796 30.408C236.308 30.9093 236.564 31.72 236.564 32.84V37.96ZM237.683 38.6H240.563V41H237.683V38.6ZM248.247 32.84C248.247 32.2 247.927 31.88 247.287 31.88H245.527C244.887 31.88 244.567 32.2 244.567 32.84V37.96C244.567 38.6 244.887 38.92 245.527 38.92H247.287C247.927 38.92 248.247 38.6 248.247 37.96V32.84ZM251.127 37.96C251.127 39.08 250.871 39.896 250.359 40.408C249.858 40.9093 249.047 41.16 247.927 41.16H244.887C243.767 41.16 242.951 40.9093 242.439 40.408C241.938 39.896 241.687 39.08 241.687 37.96V32.84C241.687 31.72 241.938 30.9093 242.439 30.408C242.951 29.896 243.767 29.64 244.887 29.64H247.927C249.047 29.64 249.858 29.896 250.359 30.408C250.871 30.9093 251.127 31.72 251.127 32.84V37.96ZM258.966 32.84C258.966 32.2 258.646 31.88 258.006 31.88H256.246C255.606 31.88 255.286 32.2 255.286 32.84V37.96C255.286 38.6 255.606 38.92 256.246 38.92H258.006C258.646 38.92 258.966 38.6 258.966 37.96V32.84ZM261.846 37.96C261.846 39.08 261.59 39.896 261.078 40.408C260.576 40.9093 259.766 41.16 258.646 41.16H255.606C254.486 41.16 253.67 40.9093 253.158 40.408C252.656 39.896 252.406 39.08 252.406 37.96V32.84C252.406 31.72 252.656 30.9093 253.158 30.408C253.67 29.896 254.486 29.64 255.606 29.64H258.646C259.766 29.64 260.576 29.896 261.078 30.408C261.59 30.9093 261.846 31.72 261.846 32.84V37.96ZM264.884 41L271.284 29.8H273.684L267.444 41H264.884ZM268.244 33.56C268.244 34.2 268.068 34.696 267.716 35.048C267.375 35.3893 266.884 35.56 266.244 35.56H264.804C264.164 35.56 263.668 35.3893 263.316 35.048C262.975 34.696 262.804 34.2 262.804 33.56V31.64C262.804 31 262.975 30.5093 263.316 30.168C263.668 29.816 264.164 29.64 264.804 29.64H266.244C266.884 29.64 267.375 29.816 267.716 30.168C268.068 30.5093 268.244 31 268.244 31.64V33.56ZM266.324 31.64C266.324 31.2667 266.138 31.08 265.764 31.08H265.284C264.911 31.08 264.724 31.2667 264.724 31.64V33.56C264.724 33.9333 264.911 34.12 265.284 34.12H265.764C266.138 34.12 266.324 33.9333 266.324 33.56V31.64ZM275.924 39.16C275.924 39.8 275.748 40.296 275.396 40.648C275.055 40.9893 274.564 41.16 273.924 41.16H272.484C271.844 41.16 271.348 40.9893 270.996 40.648C270.655 40.296 270.484 39.8 270.484 39.16V37.24C270.484 36.6 270.655 36.1093 270.996 35.768C271.348 35.416 271.844 35.24 272.484 35.24H273.924C274.564 35.24 275.055 35.416 275.396 35.768C275.748 36.1093 275.924 36.6 275.924 37.24V39.16ZM274.004 37.24C274.004 36.8667 273.818 36.68 273.444 36.68H272.964C272.591 36.68 272.404 36.8667 272.404 37.24V39.16C272.404 39.5333 272.591 39.72 272.964 39.72H273.444C273.818 39.72 274.004 39.5333 274.004 39.16V37.24Z" fill="white"/>
<path d="M351.278 13V1.36364H353.034V11.4886H358.307V13H351.278ZM360.173 13V4.27273H361.872V13H360.173ZM361.031 2.92614C360.736 2.92614 360.482 2.82765 360.27 2.63068C360.062 2.42992 359.957 2.19129 359.957 1.91477C359.957 1.63447 360.062 1.39583 360.27 1.19886C360.482 0.998106 360.736 0.897727 361.031 0.897727C361.327 0.897727 361.579 0.998106 361.787 1.19886C361.999 1.39583 362.105 1.63447 362.105 1.91477C362.105 2.19129 361.999 2.42992 361.787 2.63068C361.579 2.82765 361.327 2.92614 361.031 2.92614ZM370.05 16.2727V11.642H369.947C369.845 11.8277 369.697 12.0398 369.504 12.2784C369.315 12.517 369.054 12.7254 368.72 12.9034C368.387 13.0814 367.955 13.1705 367.425 13.1705C366.72 13.1705 366.091 12.9905 365.538 12.6307C364.989 12.267 364.557 11.75 364.243 11.0795C363.932 10.4053 363.777 9.59659 363.777 8.65341C363.777 7.71023 363.934 6.90341 364.249 6.23295C364.567 5.5625 365.002 5.04924 365.555 4.69318C366.108 4.33712 366.735 4.15909 367.436 4.15909C367.978 4.15909 368.413 4.25 368.743 4.43182C369.076 4.60985 369.334 4.81818 369.516 5.05682C369.701 5.29545 369.845 5.50568 369.947 5.6875H370.089V4.27273H371.749V16.2727H370.05ZM367.8 11.7216C368.288 11.7216 368.701 11.5928 369.038 11.3352C369.379 11.0739 369.637 10.7121 369.811 10.25C369.989 9.78788 370.078 9.25 370.078 8.63636C370.078 8.0303 369.991 7.5 369.817 7.04545C369.643 6.59091 369.387 6.23674 369.05 5.98295C368.713 5.72917 368.296 5.60227 367.8 5.60227C367.288 5.60227 366.862 5.73485 366.521 6C366.18 6.26515 365.923 6.62689 365.749 7.08523C365.578 7.54356 365.493 8.06061 365.493 8.63636C365.493 9.2197 365.58 9.74432 365.754 10.2102C365.929 10.6761 366.186 11.0455 366.527 11.3182C366.872 11.5871 367.296 11.7216 367.8 11.7216ZM379.561 9.38068V4.27273H381.266V13H379.595V11.4886H379.504C379.304 11.9545 378.982 12.3428 378.538 12.6534C378.099 12.9602 377.552 13.1136 376.896 13.1136C376.336 13.1136 375.839 12.9905 375.408 12.7443C374.98 12.4943 374.643 12.125 374.396 11.6364C374.154 11.1477 374.033 10.5436 374.033 9.82386V4.27273H375.732V9.61932C375.732 10.214 375.896 10.6875 376.226 11.0398C376.555 11.392 376.983 11.5682 377.51 11.5682C377.828 11.5682 378.144 11.4886 378.459 11.3295C378.777 11.1705 379.04 10.9299 379.249 10.608C379.461 10.286 379.565 9.87689 379.561 9.38068ZM383.548 13V4.27273H385.247V13H383.548ZM384.406 2.92614C384.111 2.92614 383.857 2.82765 383.645 2.63068C383.437 2.42992 383.332 2.19129 383.332 1.91477C383.332 1.63447 383.437 1.39583 383.645 1.19886C383.857 0.998106 384.111 0.897727 384.406 0.897727C384.702 0.897727 384.954 0.998106 385.162 1.19886C385.374 1.39583 385.48 1.63447 385.48 1.91477C385.48 2.19129 385.374 2.42992 385.162 2.63068C384.954 2.82765 384.702 2.92614 384.406 2.92614ZM390.8 13.1705C390.095 13.1705 389.466 12.9905 388.913 12.6307C388.364 12.267 387.932 11.75 387.618 11.0795C387.307 10.4053 387.152 9.59659 387.152 8.65341C387.152 7.71023 387.309 6.90341 387.624 6.23295C387.942 5.5625 388.377 5.04924 388.93 4.69318C389.483 4.33712 390.11 4.15909 390.811 4.15909C391.353 4.15909 391.788 4.25 392.118 4.43182C392.451 4.60985 392.709 4.81818 392.891 5.05682C393.076 5.29545 393.22 5.50568 393.322 5.6875H393.425V1.36364H395.124V13H393.464V11.642H393.322C393.22 11.8277 393.072 12.0398 392.879 12.2784C392.69 12.517 392.429 12.7254 392.095 12.9034C391.762 13.0814 391.33 13.1705 390.8 13.1705ZM391.175 11.7216C391.663 11.7216 392.076 11.5928 392.413 11.3352C392.754 11.0739 393.012 10.7121 393.186 10.25C393.364 9.78788 393.453 9.25 393.453 8.63636C393.453 8.0303 393.366 7.5 393.192 7.04545C393.018 6.59091 392.762 6.23674 392.425 5.98295C392.088 5.72917 391.671 5.60227 391.175 5.60227C390.663 5.60227 390.237 5.73485 389.896 6C389.555 6.26515 389.298 6.62689 389.124 7.08523C388.953 7.54356 388.868 8.06061 388.868 8.63636C388.868 9.2197 388.955 9.74432 389.129 10.2102C389.304 10.6761 389.561 11.0455 389.902 11.3182C390.247 11.5871 390.671 11.7216 391.175 11.7216ZM397.548 13V4.27273H399.247V13H397.548ZM398.406 2.92614C398.111 2.92614 397.857 2.82765 397.645 2.63068C397.437 2.42992 397.332 2.19129 397.332 1.91477C397.332 1.63447 397.437 1.39583 397.645 1.19886C397.857 0.998106 398.111 0.897727 398.406 0.897727C398.702 0.897727 398.954 0.998106 399.162 1.19886C399.374 1.39583 399.48 1.63447 399.48 1.91477C399.48 2.19129 399.374 2.42992 399.162 2.63068C398.954 2.82765 398.702 2.92614 398.406 2.92614ZM405.607 4.27273V5.63636H400.839V4.27273H405.607ZM402.118 2.18182H403.817V10.4375C403.817 10.767 403.866 11.0152 403.964 11.1818C404.063 11.3447 404.19 11.4564 404.345 11.517C404.504 11.5739 404.677 11.6023 404.862 11.6023C404.999 11.6023 405.118 11.5928 405.22 11.5739C405.322 11.5549 405.402 11.5398 405.459 11.5284L405.766 12.9318C405.667 12.9697 405.527 13.0076 405.345 13.0455C405.163 13.0871 404.936 13.1098 404.663 13.1136C404.216 13.1212 403.8 13.0417 403.413 12.875C403.027 12.7083 402.714 12.4508 402.476 12.1023C402.237 11.7538 402.118 11.3163 402.118 10.7898V2.18182ZM408.56 16.2727C408.306 16.2727 408.075 16.2519 407.866 16.2102C407.658 16.1723 407.503 16.1307 407.401 16.0852L407.81 14.6932C408.12 14.7765 408.397 14.8125 408.639 14.8011C408.882 14.7898 409.096 14.6989 409.281 14.5284C409.471 14.358 409.637 14.0795 409.781 13.6932L409.991 13.1136L406.798 4.27273H408.616L410.827 11.0455H410.918L413.128 4.27273H414.952L411.355 14.1648C411.188 14.6193 410.976 15.0038 410.719 15.3182C410.461 15.6364 410.154 15.875 409.798 16.0341C409.442 16.1932 409.029 16.2727 408.56 16.2727Z" fill="white" fill-opacity="0.7"/>
<path d="M352.64 41V32.28L350.8 32.92L350 31.08L352.96 29.8H355.52V41H352.64ZM365.444 33.32C365.444 34.2267 365.06 35.0107 364.292 35.672C364.058 35.8747 363.802 36.0773 363.524 36.28L360.084 38.76H365.444V41H356.804V37.96L362.564 33.8V33C362.564 32.36 362.244 32.04 361.604 32.04H357.124V29.8H362.244C363.364 29.8 364.175 30.056 364.676 30.568C365.188 31.0693 365.444 31.88 365.444 33V33.32ZM366.402 38.6H369.282V41H366.402V38.6ZM376.966 32.84C376.966 32.2 376.646 31.88 376.006 31.88H374.246C373.606 31.88 373.286 32.2 373.286 32.84V37.96C373.286 38.6 373.606 38.92 374.246 38.92H376.006C376.646 38.92 376.966 38.6 376.966 37.96V32.84ZM379.846 37.96C379.846 39.08 379.59 39.896 379.078 40.408C378.576 40.9093 377.766 41.16 376.646 41.16H373.606C372.486 41.16 371.67 40.9093 371.158 40.408C370.656 39.896 370.406 39.08 370.406 37.96V32.84C370.406 31.72 370.656 30.9093 371.158 30.408C371.67 29.896 372.486 29.64 373.606 29.64H376.646C377.766 29.64 378.576 29.896 379.078 30.408C379.59 30.9093 379.846 31.72 379.846 32.84V37.96ZM387.684 32.84C387.684 32.2 387.364 31.88 386.724 31.88H384.964C384.324 31.88 384.004 32.2 384.004 32.84V37.96C384.004 38.6 384.324 38.92 384.964 38.92H386.724C387.364 38.92 387.684 38.6 387.684 37.96V32.84ZM390.564 37.96C390.564 39.08 390.308 39.896 389.796 40.408C389.295 40.9093 388.484 41.16 387.364 41.16H384.324C383.204 41.16 382.388 40.9093 381.876 40.408C381.375 39.896 381.124 39.08 381.124 37.96V32.84C381.124 31.72 381.375 30.9093 381.876 30.408C382.388 29.896 383.204 29.64 384.324 29.64H387.364C388.484 29.64 389.295 29.896 389.796 30.408C390.308 30.9093 390.564 31.72 390.564 32.84V37.96ZM393.603 41L400.003 29.8H402.403L396.163 41H393.603ZM396.963 33.56C396.963 34.2 396.787 34.696 396.435 35.048C396.094 35.3893 395.603 35.56 394.963 35.56H393.523C392.883 35.56 392.387 35.3893 392.035 35.048C391.694 34.696 391.523 34.2 391.523 33.56V31.64C391.523 31 391.694 30.5093 392.035 30.168C392.387 29.816 392.883 29.64 393.523 29.64H394.963C395.603 29.64 396.094 29.816 396.435 30.168C396.787 30.5093 396.963 31 396.963 31.64V33.56ZM395.043 31.64C395.043 31.2667 394.856 31.08 394.483 31.08H394.003C393.63 31.08 393.443 31.2667 393.443 31.64V33.56C393.443 33.9333 393.63 34.12 394.003 34.12H394.483C394.856 34.12 395.043 33.9333 395.043 33.56V31.64ZM404.643 39.16C404.643 39.8 404.467 40.296 404.115 40.648C403.774 40.9893 403.283 41.16 402.643 41.16H401.203C400.563 41.16 400.067 40.9893 399.715 40.648C399.374 40.296 399.203 39.8 399.203 39.16V37.24C399.203 36.6 399.374 36.1093 399.715 35.768C400.067 35.416 400.563 35.24 401.203 35.24H402.643C403.283 35.24 403.774 35.416 404.115 35.768C404.467 36.1093 404.643 36.6 404.643 37.24V39.16ZM402.723 37.24C402.723 36.8667 402.536 36.68 402.163 36.68H401.683C401.31 36.68 401.123 36.8667 401.123 37.24V39.16C401.123 39.5333 401.31 39.72 401.683 39.72H402.163C402.536 39.72 402.723 39.5333 402.723 39.16V37.24Z" fill="white"/>
<path d="M511.278 13V1.36364H518.574V2.875H513.034V6.42045H518.193V7.92614H513.034V11.4886H518.642V13H511.278ZM524.459 13.1761C523.614 13.1761 522.887 12.9848 522.277 12.6023C521.671 12.2159 521.205 11.6837 520.879 11.0057C520.554 10.3277 520.391 9.55114 520.391 8.67614C520.391 7.78977 520.557 7.00758 520.891 6.32955C521.224 5.64773 521.694 5.11553 522.3 4.73295C522.906 4.35038 523.62 4.15909 524.442 4.15909C525.105 4.15909 525.696 4.2822 526.214 4.52841C526.733 4.77083 527.152 5.11174 527.47 5.55114C527.792 5.99053 527.983 6.50379 528.044 7.09091H526.391C526.3 6.68182 526.091 6.32955 525.766 6.03409C525.444 5.73864 525.012 5.59091 524.47 5.59091C523.997 5.59091 523.582 5.71591 523.226 5.96591C522.874 6.21212 522.599 6.56439 522.402 7.02273C522.205 7.47727 522.107 8.01515 522.107 8.63636C522.107 9.27273 522.203 9.82197 522.396 10.2841C522.589 10.7462 522.862 11.1042 523.214 11.358C523.571 11.6117 523.989 11.7386 524.47 11.7386C524.792 11.7386 525.084 11.6799 525.345 11.5625C525.61 11.4413 525.832 11.2689 526.01 11.0455C526.192 10.822 526.319 10.553 526.391 10.2386H528.044C527.983 10.803 527.8 11.3068 527.493 11.75C527.186 12.1932 526.775 12.5417 526.26 12.7955C525.749 13.0492 525.148 13.1761 524.459 13.1761ZM533.537 13.1761C532.719 13.1761 532.005 12.9886 531.395 12.6136C530.785 12.2386 530.312 11.714 529.974 11.0398C529.637 10.3655 529.469 9.57765 529.469 8.67614C529.469 7.77083 529.637 6.97917 529.974 6.30114C530.312 5.62311 530.785 5.09659 531.395 4.72159C532.005 4.34659 532.719 4.15909 533.537 4.15909C534.355 4.15909 535.069 4.34659 535.679 4.72159C536.289 5.09659 536.762 5.62311 537.099 6.30114C537.437 6.97917 537.605 7.77083 537.605 8.67614C537.605 9.57765 537.437 10.3655 537.099 11.0398C536.762 11.714 536.289 12.2386 535.679 12.6136C535.069 12.9886 534.355 13.1761 533.537 13.1761ZM533.543 11.75C534.073 11.75 534.512 11.6098 534.861 11.3295C535.209 11.0492 535.467 10.6761 535.634 10.2102C535.804 9.74432 535.889 9.23106 535.889 8.67045C535.889 8.11364 535.804 7.60227 535.634 7.13636C535.467 6.66667 535.209 6.28977 534.861 6.00568C534.512 5.72159 534.073 5.57955 533.543 5.57955C533.009 5.57955 532.565 5.72159 532.213 6.00568C531.865 6.28977 531.605 6.66667 531.435 7.13636C531.268 7.60227 531.185 8.11364 531.185 8.67045C531.185 9.23106 531.268 9.74432 531.435 10.2102C531.605 10.6761 531.865 11.0492 532.213 11.3295C532.565 11.6098 533.009 11.75 533.543 11.75ZM546.041 6.40341L544.501 6.67614C544.437 6.47917 544.335 6.29167 544.195 6.11364C544.058 5.93561 543.873 5.78977 543.638 5.67614C543.403 5.5625 543.109 5.50568 542.757 5.50568C542.276 5.50568 541.875 5.61364 541.553 5.82955C541.231 6.04167 541.07 6.31629 541.07 6.65341C541.07 6.94508 541.178 7.17992 541.393 7.35795C541.609 7.53598 541.958 7.68182 542.439 7.79545L543.825 8.11364C544.628 8.29924 545.227 8.58523 545.621 8.97159C546.015 9.35795 546.212 9.85985 546.212 10.4773C546.212 11 546.06 11.4659 545.757 11.875C545.458 12.2803 545.039 12.5985 544.501 12.8295C543.967 13.0606 543.348 13.1761 542.643 13.1761C541.666 13.1761 540.869 12.9678 540.251 12.5511C539.634 12.1307 539.255 11.5341 539.115 10.7614L540.757 10.5114C540.859 10.9394 541.07 11.2633 541.388 11.483C541.706 11.6989 542.121 11.8068 542.632 11.8068C543.189 11.8068 543.634 11.6913 543.967 11.4602C544.301 11.2254 544.467 10.9394 544.467 10.6023C544.467 10.3295 544.365 10.1004 544.161 9.91477C543.96 9.72917 543.651 9.58902 543.234 9.49432L541.757 9.17045C540.943 8.98485 540.34 8.68939 539.95 8.28409C539.564 7.87879 539.371 7.36553 539.371 6.74432C539.371 6.22917 539.515 5.77841 539.803 5.39205C540.09 5.00568 540.488 4.70455 540.996 4.48864C541.503 4.26894 542.085 4.15909 542.74 4.15909C543.683 4.15909 544.426 4.36364 544.967 4.77273C545.509 5.17803 545.867 5.72159 546.041 6.40341ZM549.153 16.2727C548.9 16.2727 548.669 16.2519 548.46 16.2102C548.252 16.1723 548.097 16.1307 547.994 16.0852L548.403 14.6932C548.714 14.7765 548.991 14.8125 549.233 14.8011C549.475 14.7898 549.689 14.6989 549.875 14.5284C550.064 14.358 550.231 14.0795 550.375 13.6932L550.585 13.1136L547.392 4.27273H549.21L551.42 11.0455H551.511L553.722 4.27273H555.545L551.949 14.1648C551.782 14.6193 551.57 15.0038 551.312 15.3182C551.055 15.6364 550.748 15.875 550.392 16.0341C550.036 16.1932 549.623 16.2727 549.153 16.2727ZM563.682 6.40341L562.142 6.67614C562.078 6.47917 561.975 6.29167 561.835 6.11364C561.699 5.93561 561.513 5.78977 561.278 5.67614C561.044 5.5625 560.75 5.50568 560.398 5.50568C559.917 5.50568 559.515 5.61364 559.193 5.82955C558.871 6.04167 558.71 6.31629 558.71 6.65341C558.71 6.94508 558.818 7.17992 559.034 7.35795C559.25 7.53598 559.598 7.68182 560.08 7.79545L561.466 8.11364C562.269 8.29924 562.867 8.58523 563.261 8.97159C563.655 9.35795 563.852 9.85985 563.852 10.4773C563.852 11 563.701 11.4659 563.398 11.875C563.098 12.2803 562.68 12.5985 562.142 12.8295C561.608 13.0606 560.989 13.1761 560.284 13.1761C559.307 13.1761 558.509 12.9678 557.892 12.5511C557.275 12.1307 556.896 11.5341 556.756 10.7614L558.398 10.5114C558.5 10.9394 558.71 11.2633 559.028 11.483C559.347 11.6989 559.761 11.8068 560.273 11.8068C560.83 11.8068 561.275 11.6913 561.608 11.4602C561.941 11.2254 562.108 10.9394 562.108 10.6023C562.108 10.3295 562.006 10.1004 561.801 9.91477C561.6 9.72917 561.292 9.58902 560.875 9.49432L559.398 9.17045C558.583 8.98485 557.981 8.68939 557.591 8.28409C557.205 7.87879 557.011 7.36553 557.011 6.74432C557.011 6.22917 557.155 5.77841 557.443 5.39205C557.731 5.00568 558.129 4.70455 558.636 4.48864C559.144 4.26894 559.725 4.15909 560.381 4.15909C561.324 4.15909 562.066 4.36364 562.608 4.77273C563.15 5.17803 563.508 5.72159 563.682 6.40341ZM569.794 4.27273V5.63636H565.027V4.27273H569.794ZM566.305 2.18182H568.004V10.4375C568.004 10.767 568.054 11.0152 568.152 11.1818C568.25 11.3447 568.377 11.4564 568.533 11.517C568.692 11.5739 568.864 11.6023 569.05 11.6023C569.186 11.6023 569.305 11.5928 569.408 11.5739C569.51 11.5549 569.589 11.5398 569.646 11.5284L569.953 12.9318C569.855 12.9697 569.714 13.0076 569.533 13.0455C569.351 13.0871 569.124 13.1098 568.851 13.1136C568.404 13.1212 567.987 13.0417 567.601 12.875C567.214 12.7083 566.902 12.4508 566.663 12.1023C566.425 11.7538 566.305 11.3163 566.305 10.7898V2.18182ZM575.341 13.1761C574.481 13.1761 573.741 12.9924 573.119 12.625C572.502 12.2538 572.025 11.733 571.688 11.0625C571.354 10.3883 571.188 9.59848 571.188 8.69318C571.188 7.79924 571.354 7.01136 571.688 6.32955C572.025 5.64773 572.494 5.11553 573.097 4.73295C573.703 4.35038 574.411 4.15909 575.222 4.15909C575.714 4.15909 576.191 4.24053 576.653 4.40341C577.116 4.56629 577.53 4.82197 577.898 5.17045C578.265 5.51894 578.555 5.97159 578.767 6.52841C578.979 7.08144 579.085 7.75379 579.085 8.54545V9.14773H572.148V7.875H577.42C577.42 7.42803 577.33 7.0322 577.148 6.6875C576.966 6.33902 576.71 6.06439 576.381 5.86364C576.055 5.66288 575.672 5.5625 575.233 5.5625C574.756 5.5625 574.339 5.67992 573.983 5.91477C573.631 6.14583 573.358 6.44886 573.165 6.82386C572.975 7.19508 572.881 7.59848 572.881 8.03409V9.02841C572.881 9.61174 572.983 10.108 573.188 10.517C573.396 10.9261 573.686 11.2386 574.057 11.4545C574.428 11.6667 574.862 11.7727 575.358 11.7727C575.68 11.7727 575.973 11.7273 576.239 11.6364C576.504 11.5417 576.733 11.4015 576.926 11.2159C577.119 11.0303 577.267 10.8011 577.369 10.5284L578.977 10.8182C578.848 11.2917 578.617 11.7064 578.284 12.0625C577.955 12.4148 577.54 12.6894 577.04 12.8864C576.544 13.0795 575.977 13.1761 575.341 13.1761ZM580.97 13V4.27273H582.601V5.69318H582.709C582.891 5.21212 583.188 4.83712 583.601 4.56818C584.014 4.29545 584.508 4.15909 585.084 4.15909C585.667 4.15909 586.156 4.29545 586.55 4.56818C586.947 4.84091 587.241 5.21591 587.43 5.69318H587.521C587.73 5.22727 588.061 4.85606 588.516 4.57955C588.97 4.29924 589.512 4.15909 590.141 4.15909C590.932 4.15909 591.578 4.4072 592.078 4.90341C592.582 5.39962 592.834 6.14773 592.834 7.14773V13H591.135V7.30682C591.135 6.71591 590.974 6.28788 590.652 6.02273C590.33 5.75758 589.946 5.625 589.499 5.625C588.946 5.625 588.516 5.79545 588.209 6.13636C587.902 6.47348 587.749 6.9072 587.749 7.4375V13H586.055V7.19886C586.055 6.72538 585.908 6.3447 585.612 6.05682C585.317 5.76894 584.932 5.625 584.459 5.625C584.137 5.625 583.839 5.71023 583.567 5.88068C583.298 6.04735 583.08 6.2803 582.913 6.57955C582.75 6.87879 582.669 7.22538 582.669 7.61932V13H580.97Z" fill="white" fill-opacity="0.7"/>
<path d="M512.64 41V32.28L510.8 32.92L510 31.08L512.96 29.8H515.52V41H512.64ZM520.164 29.64C521.626 29.64 523.386 29.7467 525.444 29.96V32.12C524.858 32.088 524.356 32.0613 523.94 32.04C523.535 32.008 523.199 31.9867 522.932 31.976C522.676 31.9547 522.42 31.9333 522.164 31.912C521.738 31.8907 521.343 31.88 520.98 31.88C520.33 31.88 520.004 32.1467 520.004 32.68V34.12C521.039 33.9067 521.946 33.8 522.724 33.8H523.844C524.57 33.8 525.151 34.0187 525.588 34.456C526.026 34.8933 526.244 35.4747 526.244 36.2V38.28C526.244 39.2507 525.999 39.976 525.508 40.456C525.018 40.9253 524.25 41.16 523.204 41.16H520.164C519.119 41.16 518.351 40.9253 517.86 40.456C517.37 39.976 517.124 39.2507 517.124 38.28V32.68C517.124 31.6347 517.37 30.8667 517.86 30.376C518.351 29.8853 519.119 29.64 520.164 29.64ZM521.924 36.04C521.519 36.04 521.146 36.0613 520.804 36.104C520.474 36.1467 520.207 36.1787 520.004 36.2V37.96C520.004 38.6 520.324 38.92 520.964 38.92H522.404C523.044 38.92 523.364 38.6 523.364 37.96V36.6C523.364 36.44 523.311 36.3067 523.204 36.2C523.098 36.0933 522.964 36.04 522.804 36.04H521.924ZM527.043 38.6H529.923V41H527.043V38.6ZM536.646 41.16C534.865 41.16 532.892 41.0533 530.726 40.84V38.68C533.084 38.84 534.844 38.92 536.006 38.92C536.252 38.92 536.444 38.8507 536.582 38.712C536.732 38.5627 536.806 38.3653 536.806 38.12V37.48C536.806 36.84 536.486 36.52 535.846 36.52H532.486V34.28H535.526C536.166 34.28 536.486 33.96 536.486 33.32V33C536.486 32.36 536.166 32.04 535.526 32.04H530.886V29.8H536.326C537.372 29.8 538.14 30.04 538.63 30.52C539.121 30.9893 539.366 31.7093 539.366 32.68C539.366 33.32 539.217 33.8427 538.918 34.248C538.63 34.6427 538.246 34.92 537.766 35.08C538.63 35.3147 539.217 35.8907 539.526 36.808C539.633 37.1387 539.686 37.5227 539.686 37.96V38.12C539.686 39.1653 539.441 39.9333 538.95 40.424C538.46 40.9147 537.692 41.16 536.646 41.16ZM546.099 41.16C544.318 41.16 542.345 41.0533 540.179 40.84V38.68C542.537 38.84 544.297 38.92 545.459 38.92C545.705 38.92 545.897 38.8507 546.035 38.712C546.185 38.5627 546.259 38.3653 546.259 38.12V37.48C546.259 36.84 545.939 36.52 545.299 36.52H541.939V34.28H544.979C545.619 34.28 545.939 33.96 545.939 33.32V33C545.939 32.36 545.619 32.04 544.979 32.04H540.339V29.8H545.779C546.825 29.8 547.593 30.04 548.083 30.52C548.574 30.9893 548.819 31.7093 548.819 32.68C548.819 33.32 548.67 33.8427 548.371 34.248C548.083 34.6427 547.699 34.92 547.219 35.08C548.083 35.3147 548.67 35.8907 548.979 36.808C549.086 37.1387 549.139 37.5227 549.139 37.96V38.12C549.139 39.1653 548.894 39.9333 548.403 40.424C547.913 40.9147 547.145 41.16 546.099 41.16ZM552.025 41L558.425 29.8H560.825L554.585 41H552.025ZM555.385 33.56C555.385 34.2 555.209 34.696 554.857 35.048C554.516 35.3893 554.025 35.56 553.385 35.56H551.945C551.305 35.56 550.809 35.3893 550.457 35.048C550.116 34.696 549.945 34.2 549.945 33.56V31.64C549.945 31 550.116 30.5093 550.457 30.168C550.809 29.816 551.305 29.64 551.945 29.64H553.385C554.025 29.64 554.516 29.816 554.857 30.168C555.209 30.5093 555.385 31 555.385 31.64V33.56ZM553.465 31.64C553.465 31.2667 553.278 31.08 552.905 31.08H552.425C552.052 31.08 551.865 31.2667 551.865 31.64V33.56C551.865 33.9333 552.052 34.12 552.425 34.12H552.905C553.278 34.12 553.465 33.9333 553.465 33.56V31.64ZM563.065 39.16C563.065 39.8 562.889 40.296 562.537 40.648C562.196 40.9893 561.705 41.16 561.065 41.16H559.625C558.985 41.16 558.489 40.9893 558.137 40.648C557.796 40.296 557.625 39.8 557.625 39.16V37.24C557.625 36.6 557.796 36.1093 558.137 35.768C558.489 35.416 558.985 35.24 559.625 35.24H561.065C561.705 35.24 562.196 35.416 562.537 35.768C562.889 36.1093 563.065 36.6 563.065 37.24V39.16ZM561.145 37.24C561.145 36.8667 560.958 36.68 560.585 36.68H560.105C559.732 36.68 559.545 36.8667 559.545 37.24V39.16C559.545 39.5333 559.732 39.72 560.105 39.72H560.585C560.958 39.72 561.145 39.5333 561.145 39.16V37.24Z" fill="white"/>
<path d="M701.278 1.36364H703.409L707.114 10.4091H707.25L710.955 1.36364H713.085V13H711.415V4.57955H711.307L707.875 12.983H706.489L703.057 4.57386H702.949V13H701.278V1.36364ZM718.041 13.1932C717.488 13.1932 716.988 13.0909 716.541 12.8864C716.094 12.678 715.74 12.3769 715.479 11.983C715.221 11.589 715.092 11.1061 715.092 10.5341C715.092 10.0417 715.187 9.63636 715.376 9.31818C715.566 9 715.821 8.74811 716.143 8.5625C716.465 8.37689 716.825 8.23674 717.223 8.14205C717.621 8.04735 718.026 7.97538 718.439 7.92614C718.962 7.86553 719.386 7.81629 719.712 7.77841C720.037 7.73674 720.274 7.67045 720.422 7.57955C720.57 7.48864 720.643 7.34091 720.643 7.13636V7.09659C720.643 6.60038 720.503 6.21591 720.223 5.94318C719.946 5.67045 719.534 5.53409 718.984 5.53409C718.412 5.53409 717.962 5.66098 717.632 5.91477C717.306 6.16477 717.081 6.44318 716.956 6.75L715.359 6.38636C715.549 5.85606 715.825 5.42803 716.189 5.10227C716.556 4.77273 716.979 4.53409 717.456 4.38636C717.933 4.23485 718.435 4.15909 718.962 4.15909C719.31 4.15909 719.679 4.20076 720.07 4.28409C720.464 4.36364 720.831 4.51136 721.172 4.72727C721.517 4.94318 721.799 5.25189 722.018 5.65341C722.238 6.05114 722.348 6.56818 722.348 7.20455V13H720.689V11.8068H720.621C720.511 12.0265 720.346 12.2424 720.126 12.4545C719.907 12.6667 719.625 12.8428 719.28 12.983C718.935 13.1231 718.522 13.1932 718.041 13.1932ZM718.411 11.8295C718.88 11.8295 719.282 11.7367 719.615 11.5511C719.952 11.3655 720.208 11.1231 720.382 10.8239C720.56 10.5208 720.649 10.197 720.649 9.85227V8.72727C720.589 8.78788 720.471 8.8447 720.297 8.89773C720.126 8.94697 719.931 8.99053 719.712 9.02841C719.492 9.0625 719.278 9.0947 719.07 9.125C718.861 9.15152 718.687 9.17424 718.547 9.19318C718.217 9.23485 717.916 9.30492 717.643 9.40341C717.375 9.50189 717.159 9.64394 716.996 9.82955C716.837 10.0114 716.757 10.2538 716.757 10.5568C716.757 10.9773 716.912 11.2955 717.223 11.5114C717.534 11.7235 717.929 11.8295 718.411 11.8295ZM724.611 13V4.27273H726.253V5.65909H726.344C726.503 5.18939 726.783 4.82008 727.185 4.55114C727.59 4.27841 728.048 4.14205 728.56 4.14205C728.666 4.14205 728.791 4.14583 728.935 4.15341C729.082 4.16098 729.198 4.17045 729.281 4.18182V5.80682C729.213 5.78788 729.092 5.76705 728.918 5.74432C728.743 5.7178 728.569 5.70455 728.395 5.70455C727.993 5.70455 727.635 5.78977 727.321 5.96023C727.01 6.12689 726.764 6.35985 726.582 6.65909C726.401 6.95455 726.31 7.29167 726.31 7.67045V13H724.611ZM732.314 10.0398L732.303 7.96591H732.598L736.075 4.27273H738.109L734.143 8.47727H733.876L732.314 10.0398ZM730.751 13V1.36364H732.45V13H730.751ZM736.263 13L733.138 8.85227L734.308 7.66477L738.348 13H736.263ZM743.06 13.1761C742.2 13.1761 741.459 12.9924 740.838 12.625C740.221 12.2538 739.743 11.733 739.406 11.0625C739.073 10.3883 738.906 9.59848 738.906 8.69318C738.906 7.79924 739.073 7.01136 739.406 6.32955C739.743 5.64773 740.213 5.11553 740.815 4.73295C741.421 4.35038 742.13 4.15909 742.94 4.15909C743.433 4.15909 743.91 4.24053 744.372 4.40341C744.834 4.56629 745.249 4.82197 745.616 5.17045C745.984 5.51894 746.274 5.97159 746.486 6.52841C746.698 7.08144 746.804 7.75379 746.804 8.54545V9.14773H739.866V7.875H745.139C745.139 7.42803 745.048 7.0322 744.866 6.6875C744.685 6.33902 744.429 6.06439 744.099 5.86364C743.774 5.66288 743.391 5.5625 742.952 5.5625C742.474 5.5625 742.058 5.67992 741.702 5.91477C741.349 6.14583 741.077 6.44886 740.884 6.82386C740.694 7.19508 740.599 7.59848 740.599 8.03409V9.02841C740.599 9.61174 740.702 10.108 740.906 10.517C741.115 10.9261 741.404 11.2386 741.776 11.4545C742.147 11.6667 742.58 11.7727 743.077 11.7727C743.399 11.7727 743.692 11.7273 743.957 11.6364C744.223 11.5417 744.452 11.4015 744.645 11.2159C744.838 11.0303 744.986 10.8011 745.088 10.5284L746.696 10.8182C746.567 11.2917 746.336 11.7064 746.003 12.0625C745.673 12.4148 745.259 12.6894 744.759 12.8864C744.262 13.0795 743.696 13.1761 743.06 13.1761ZM752.763 4.27273V5.63636H747.996V4.27273H752.763ZM749.274 2.18182H750.973V10.4375C750.973 10.767 751.022 11.0152 751.121 11.1818C751.219 11.3447 751.346 11.4564 751.501 11.517C751.661 11.5739 751.833 11.6023 752.018 11.6023C752.155 11.6023 752.274 11.5928 752.376 11.5739C752.479 11.5549 752.558 11.5398 752.615 11.5284L752.922 12.9318C752.823 12.9697 752.683 13.0076 752.501 13.0455C752.32 13.0871 752.092 13.1098 751.82 13.1136C751.373 13.1212 750.956 13.0417 750.57 12.875C750.183 12.7083 749.871 12.4508 749.632 12.1023C749.393 11.7538 749.274 11.3163 749.274 10.7898V2.18182ZM754.642 13V4.27273H756.341V13H754.642ZM755.5 2.92614C755.205 2.92614 754.951 2.82765 754.739 2.63068C754.53 2.42992 754.426 2.19129 754.426 1.91477C754.426 1.63447 754.53 1.39583 754.739 1.19886C754.951 0.998106 755.205 0.897727 755.5 0.897727C755.795 0.897727 756.047 0.998106 756.256 1.19886C756.468 1.39583 756.574 1.63447 756.574 1.91477C756.574 2.19129 756.468 2.42992 756.256 2.63068C756.047 2.82765 755.795 2.92614 755.5 2.92614ZM760.325 7.81818V13H758.626V4.27273H760.257V5.69318H760.365C760.566 5.23106 760.88 4.85985 761.308 4.57955C761.74 4.29924 762.284 4.15909 762.939 4.15909C763.534 4.15909 764.054 4.28409 764.501 4.53409C764.948 4.7803 765.295 5.14773 765.541 5.63636C765.787 6.125 765.911 6.72917 765.911 7.44886V13H764.212V7.65341C764.212 7.02083 764.047 6.52652 763.717 6.17045C763.388 5.81061 762.935 5.63068 762.359 5.63068C761.965 5.63068 761.615 5.71591 761.308 5.88636C761.005 6.05682 760.765 6.30682 760.587 6.63636C760.412 6.96212 760.325 7.35606 760.325 7.81818ZM771.848 16.4545C771.155 16.4545 770.558 16.3636 770.058 16.1818C769.562 16 769.157 15.7595 768.842 15.4602C768.528 15.161 768.293 14.8333 768.138 14.4773L769.598 13.875C769.7 14.0417 769.837 14.2178 770.007 14.4034C770.181 14.5928 770.416 14.7538 770.712 14.8864C771.011 15.0189 771.395 15.0852 771.865 15.0852C772.509 15.0852 773.041 14.928 773.462 14.6136C773.882 14.303 774.092 13.8068 774.092 13.125V11.4091H773.984C773.882 11.5947 773.734 11.8011 773.541 12.0284C773.352 12.2557 773.09 12.4527 772.757 12.6193C772.424 12.786 771.99 12.8693 771.456 12.8693C770.767 12.8693 770.145 12.7083 769.592 12.3864C769.043 12.0606 768.607 11.5814 768.286 10.9489C767.967 10.3125 767.808 9.5303 767.808 8.60227C767.808 7.67424 767.965 6.87879 768.28 6.21591C768.598 5.55303 769.034 5.04545 769.587 4.69318C770.14 4.33712 770.767 4.15909 771.467 4.15909C772.009 4.15909 772.446 4.25 772.78 4.43182C773.113 4.60985 773.373 4.81818 773.558 5.05682C773.748 5.29545 773.893 5.50568 773.996 5.6875H774.121V4.27273H775.786V13.1932C775.786 13.9432 775.611 14.5587 775.263 15.0398C774.914 15.5208 774.443 15.8769 773.848 16.108C773.257 16.339 772.59 16.4545 771.848 16.4545ZM771.831 11.4602C772.32 11.4602 772.732 11.3466 773.07 11.1193C773.411 10.8883 773.668 10.5587 773.842 10.1307C774.02 9.69886 774.109 9.18182 774.109 8.57955C774.109 7.99242 774.022 7.47538 773.848 7.02841C773.674 6.58144 773.418 6.23295 773.081 5.98295C772.744 5.72917 772.327 5.60227 771.831 5.60227C771.32 5.60227 770.893 5.73485 770.553 6C770.212 6.26136 769.954 6.61742 769.78 7.06818C769.609 7.51894 769.524 8.02273 769.524 8.57955C769.524 9.15152 769.611 9.65341 769.786 10.0852C769.96 10.517 770.217 10.8542 770.558 11.0966C770.903 11.339 771.327 11.4602 771.831 11.4602Z" fill="white" fill-opacity="0.7"/>
<path d="M702.64 41V32.28L700.8 32.92L700 31.08L702.96 29.8H705.52V41H702.64ZM710.804 36.52C710.164 36.52 709.844 36.84 709.844 37.48V38.12C709.844 38.3653 709.914 38.5627 710.052 38.712C710.202 38.8507 710.399 38.92 710.644 38.92H713.044C713.29 38.92 713.482 38.8507 713.62 38.712C713.77 38.5627 713.844 38.3653 713.844 38.12V37.48C713.844 36.84 713.524 36.52 712.884 36.52H710.804ZM711.124 31.88C710.484 31.88 710.164 32.2 710.164 32.84V33.32C710.164 33.96 710.484 34.28 711.124 34.28H712.564C713.204 34.28 713.524 33.96 713.524 33.32V32.84C713.524 32.2 713.204 31.88 712.564 31.88H711.124ZM716.724 38.12C716.724 39.1653 716.479 39.9333 715.988 40.424C715.498 40.9147 714.73 41.16 713.684 41.16H710.004C708.959 41.16 708.191 40.9147 707.7 40.424C707.21 39.9333 706.964 39.1653 706.964 38.12V37.96C706.964 37.1493 707.167 36.4773 707.572 35.944C707.892 35.5173 708.33 35.2293 708.884 35.08C708.404 34.92 708.015 34.6427 707.716 34.248C707.428 33.8427 707.284 33.32 707.284 32.68V32.52C707.284 31.5493 707.53 30.8293 708.02 30.36C708.511 29.88 709.279 29.64 710.324 29.64H713.364C714.41 29.64 715.178 29.88 715.668 30.36C716.159 30.8293 716.404 31.5493 716.404 32.52V32.68C716.404 33.32 716.255 33.8427 715.956 34.248C715.668 34.6427 715.284 34.92 714.804 35.08C715.668 35.3147 716.255 35.8907 716.564 36.808C716.671 37.1387 716.724 37.5227 716.724 37.96V38.12ZM717.683 38.6H720.563V41H717.683V38.6ZM728.247 32.84C728.247 32.2 727.927 31.88 727.287 31.88H725.527C724.887 31.88 724.567 32.2 724.567 32.84V37.96C724.567 38.6 724.887 38.92 725.527 38.92H727.287C727.927 38.92 728.247 38.6 728.247 37.96V32.84ZM731.127 37.96C731.127 39.08 730.871 39.896 730.359 40.408C729.858 40.9093 729.047 41.16 727.927 41.16H724.887C723.767 41.16 722.951 40.9093 722.439 40.408C721.938 39.896 721.687 39.08 721.687 37.96V32.84C721.687 31.72 721.938 30.9093 722.439 30.408C722.951 29.896 723.767 29.64 724.887 29.64H727.927C729.047 29.64 729.858 29.896 730.359 30.408C730.871 30.9093 731.127 31.72 731.127 32.84V37.96ZM738.966 32.84C738.966 32.2 738.646 31.88 738.006 31.88H736.246C735.606 31.88 735.286 32.2 735.286 32.84V37.96C735.286 38.6 735.606 38.92 736.246 38.92H738.006C738.646 38.92 738.966 38.6 738.966 37.96V32.84ZM741.846 37.96C741.846 39.08 741.59 39.896 741.078 40.408C740.576 40.9093 739.766 41.16 738.646 41.16H735.606C734.486 41.16 733.67 40.9093 733.158 40.408C732.656 39.896 732.406 39.08 732.406 37.96V32.84C732.406 31.72 732.656 30.9093 733.158 30.408C733.67 29.896 734.486 29.64 735.606 29.64H738.646C739.766 29.64 740.576 29.896 741.078 30.408C741.59 30.9093 741.846 31.72 741.846 32.84V37.96ZM744.884 41L751.284 29.8H753.684L747.444 41H744.884ZM748.244 33.56C748.244 34.2 748.068 34.696 747.716 35.048C747.375 35.3893 746.884 35.56 746.244 35.56H744.804C744.164 35.56 743.668 35.3893 743.316 35.048C742.975 34.696 742.804 34.2 742.804 33.56V31.64C742.804 31 742.975 30.5093 743.316 30.168C743.668 29.816 744.164 29.64 744.804 29.64H746.244C746.884 29.64 747.375 29.816 747.716 30.168C748.068 30.5093 748.244 31 748.244 31.64V33.56ZM746.324 31.64C746.324 31.2667 746.138 31.08 745.764 31.08H745.284C744.911 31.08 744.724 31.2667 744.724 31.64V33.56C744.724 33.9333 744.911 34.12 745.284 34.12H745.764C746.138 34.12 746.324 33.9333 746.324 33.56V31.64ZM755.924 39.16C755.924 39.8 755.748 40.296 755.396 40.648C755.055 40.9893 754.564 41.16 753.924 41.16H752.484C751.844 41.16 751.348 40.9893 750.996 40.648C750.655 40.296 750.484 39.8 750.484 39.16V37.24C750.484 36.6 750.655 36.1093 750.996 35.768C751.348 35.416 751.844 35.24 752.484 35.24H753.924C754.564 35.24 755.055 35.416 755.396 35.768C755.748 36.1093 755.924 36.6 755.924 37.24V39.16ZM754.004 37.24C754.004 36.8667 753.818 36.68 753.444 36.68H752.964C752.591 36.68 752.404 36.8667 752.404 37.24V39.16C752.404 39.5333 752.591 39.72 752.964 39.72H753.444C753.818 39.72 754.004 39.5333 754.004 39.16V37.24Z" fill="white"/>
<path d="M901.278 13V1.36364H905.426C906.331 1.36364 907.081 1.52841 907.676 1.85795C908.271 2.1875 908.716 2.63826 909.011 3.21023C909.307 3.77841 909.455 4.41856 909.455 5.13068C909.455 5.84659 909.305 6.49053 909.006 7.0625C908.71 7.63068 908.263 8.08144 907.665 8.41477C907.07 8.74432 906.322 8.90909 905.42 8.90909H902.568V7.42045H905.261C905.833 7.42045 906.297 7.32197 906.653 7.125C907.009 6.92424 907.271 6.65152 907.438 6.30682C907.604 5.96212 907.688 5.57008 907.688 5.13068C907.688 4.69129 907.604 4.30114 907.438 3.96023C907.271 3.61932 907.008 3.35227 906.648 3.15909C906.292 2.96591 905.822 2.86932 905.239 2.86932H903.034V13H901.278ZM911.376 13V4.27273H913.018V5.65909H913.109C913.268 5.18939 913.549 4.82008 913.95 4.55114C914.356 4.27841 914.814 4.14205 915.325 4.14205C915.431 4.14205 915.556 4.14583 915.7 4.15341C915.848 4.16098 915.964 4.17045 916.047 4.18182V5.80682C915.979 5.78788 915.857 5.76705 915.683 5.74432C915.509 5.7178 915.335 5.70455 915.161 5.70455C914.759 5.70455 914.401 5.78977 914.087 5.96023C913.776 6.12689 913.53 6.35985 913.348 6.65909C913.166 6.95455 913.075 7.29167 913.075 7.67045V13H911.376ZM917.517 13V4.27273H919.216V13H917.517ZM918.375 2.92614C918.08 2.92614 917.826 2.82765 917.614 2.63068C917.405 2.42992 917.301 2.19129 917.301 1.91477C917.301 1.63447 917.405 1.39583 917.614 1.19886C917.826 0.998106 918.08 0.897727 918.375 0.897727C918.67 0.897727 918.922 0.998106 919.131 1.19886C919.343 1.39583 919.449 1.63447 919.449 1.91477C919.449 2.19129 919.343 2.42992 919.131 2.63068C918.922 2.82765 918.67 2.92614 918.375 2.92614ZM928.967 4.27273L925.803 13H923.984L920.814 4.27273H922.638L924.848 10.9886H924.939L927.143 4.27273H928.967ZM932.854 13.1932C932.301 13.1932 931.801 13.0909 931.354 12.8864C930.907 12.678 930.553 12.3769 930.291 11.983C930.034 11.589 929.905 11.1061 929.905 10.5341C929.905 10.0417 930 9.63636 930.189 9.31818C930.378 9 930.634 8.74811 930.956 8.5625C931.278 8.37689 931.638 8.23674 932.036 8.14205C932.433 8.04735 932.839 7.97538 933.251 7.92614C933.774 7.86553 934.198 7.81629 934.524 7.77841C934.85 7.73674 935.087 7.67045 935.234 7.57955C935.382 7.48864 935.456 7.34091 935.456 7.13636V7.09659C935.456 6.60038 935.316 6.21591 935.036 5.94318C934.759 5.67045 934.346 5.53409 933.797 5.53409C933.225 5.53409 932.774 5.66098 932.445 5.91477C932.119 6.16477 931.893 6.44318 931.768 6.75L930.172 6.38636C930.361 5.85606 930.638 5.42803 931.001 5.10227C931.369 4.77273 931.791 4.53409 932.268 4.38636C932.746 4.23485 933.248 4.15909 933.774 4.15909C934.123 4.15909 934.492 4.20076 934.882 4.28409C935.276 4.36364 935.643 4.51136 935.984 4.72727C936.329 4.94318 936.611 5.25189 936.831 5.65341C937.051 6.05114 937.161 6.56818 937.161 7.20455V13H935.501V11.8068H935.433C935.323 12.0265 935.159 12.2424 934.939 12.4545C934.719 12.6667 934.437 12.8428 934.092 12.983C933.748 13.1231 933.335 13.1932 932.854 13.1932ZM933.223 11.8295C933.693 11.8295 934.094 11.7367 934.428 11.5511C934.765 11.3655 935.02 11.1231 935.195 10.8239C935.373 10.5208 935.462 10.197 935.462 9.85227V8.72727C935.401 8.78788 935.284 8.8447 935.109 8.89773C934.939 8.94697 934.744 8.99053 934.524 9.02841C934.304 9.0625 934.09 9.0947 933.882 9.125C933.674 9.15152 933.5 9.17424 933.359 9.19318C933.03 9.23485 932.729 9.30492 932.456 9.40341C932.187 9.50189 931.971 9.64394 931.808 9.82955C931.649 10.0114 931.57 10.2538 931.57 10.5568C931.57 10.9773 931.725 11.2955 932.036 11.5114C932.346 11.7235 932.742 11.8295 933.223 11.8295ZM943.497 4.27273V5.63636H938.73V4.27273H943.497ZM940.009 2.18182H941.707V10.4375C941.707 10.767 941.757 11.0152 941.855 11.1818C941.954 11.3447 942.08 11.4564 942.236 11.517C942.395 11.5739 942.567 11.6023 942.753 11.6023C942.889 11.6023 943.009 11.5928 943.111 11.5739C943.213 11.5549 943.293 11.5398 943.349 11.5284L943.656 12.9318C943.558 12.9697 943.418 13.0076 943.236 13.0455C943.054 13.0871 942.827 13.1098 942.554 13.1136C942.107 13.1212 941.69 13.0417 941.304 12.875C940.918 12.7083 940.605 12.4508 940.366 12.1023C940.128 11.7538 940.009 11.3163 940.009 10.7898V2.18182ZM949.044 13.1761C948.184 13.1761 947.444 12.9924 946.822 12.625C946.205 12.2538 945.728 11.733 945.391 11.0625C945.057 10.3883 944.891 9.59848 944.891 8.69318C944.891 7.79924 945.057 7.01136 945.391 6.32955C945.728 5.64773 946.197 5.11553 946.8 4.73295C947.406 4.35038 948.114 4.15909 948.925 4.15909C949.417 4.15909 949.894 4.24053 950.357 4.40341C950.819 4.56629 951.233 4.82197 951.601 5.17045C951.968 5.51894 952.258 5.97159 952.47 6.52841C952.682 7.08144 952.788 7.75379 952.788 8.54545V9.14773H945.851V7.875H951.124C951.124 7.42803 951.033 7.0322 950.851 6.6875C950.669 6.33902 950.413 6.06439 950.084 5.86364C949.758 5.66288 949.375 5.5625 948.936 5.5625C948.459 5.5625 948.042 5.67992 947.686 5.91477C947.334 6.14583 947.061 6.44886 946.868 6.82386C946.679 7.19508 946.584 7.59848 946.584 8.03409V9.02841C946.584 9.61174 946.686 10.108 946.891 10.517C947.099 10.9261 947.389 11.2386 947.76 11.4545C948.131 11.6667 948.565 11.7727 949.061 11.7727C949.383 11.7727 949.677 11.7273 949.942 11.6364C950.207 11.5417 950.436 11.4015 950.629 11.2159C950.822 11.0303 950.97 10.8011 951.072 10.5284L952.68 10.8182C952.552 11.2917 952.321 11.7064 951.987 12.0625C951.658 12.4148 951.243 12.6894 950.743 12.8864C950.247 13.0795 949.68 13.1761 949.044 13.1761ZM965.391 4.42045C965.33 3.88258 965.08 3.46591 964.641 3.17045C964.201 2.87121 963.648 2.72159 962.982 2.72159C962.504 2.72159 962.091 2.79735 961.743 2.94886C961.394 3.09659 961.124 3.30114 960.93 3.5625C960.741 3.82008 960.646 4.11364 960.646 4.44318C960.646 4.7197 960.711 4.95833 960.839 5.15909C960.972 5.35985 961.144 5.52841 961.357 5.66477C961.572 5.79735 961.804 5.90909 962.05 6C962.296 6.08712 962.533 6.15909 962.76 6.21591L963.896 6.51136C964.268 6.60227 964.648 6.72538 965.038 6.88068C965.429 7.03598 965.79 7.24053 966.124 7.49432C966.457 7.74811 966.726 8.0625 966.93 8.4375C967.139 8.8125 967.243 9.26136 967.243 9.78409C967.243 10.4432 967.072 11.0284 966.732 11.5398C966.394 12.0511 965.904 12.4545 965.26 12.75C964.62 13.0455 963.845 13.1932 962.936 13.1932C962.065 13.1932 961.311 13.0549 960.675 12.7784C960.038 12.5019 959.54 12.1098 959.18 11.6023C958.821 11.0909 958.622 10.4848 958.584 9.78409H960.345C960.379 10.2045 960.516 10.5549 960.754 10.8352C960.997 11.1117 961.305 11.3182 961.68 11.4545C962.059 11.5871 962.474 11.6534 962.925 11.6534C963.421 11.6534 963.862 11.5758 964.249 11.4205C964.639 11.2614 964.946 11.0417 965.169 10.7614C965.393 10.4773 965.504 10.1458 965.504 9.76705C965.504 9.42235 965.406 9.14015 965.209 8.92045C965.016 8.70076 964.752 8.51894 964.419 8.375C964.089 8.23106 963.716 8.10417 963.3 7.99432L961.925 7.61932C960.993 7.36553 960.254 6.99242 959.709 6.5C959.167 6.00758 958.896 5.35606 958.896 4.54545C958.896 3.875 959.078 3.28977 959.442 2.78977C959.805 2.28977 960.298 1.90151 960.919 1.625C961.54 1.3447 962.241 1.20455 963.021 1.20455C963.809 1.20455 964.504 1.3428 965.107 1.61932C965.713 1.89583 966.19 2.27652 966.538 2.76136C966.887 3.24242 967.069 3.79545 967.084 4.42045H965.391ZM971.744 13.1932C971.191 13.1932 970.691 13.0909 970.244 12.8864C969.797 12.678 969.443 12.3769 969.182 11.983C968.924 11.589 968.795 11.1061 968.795 10.5341C968.795 10.0417 968.89 9.63636 969.08 9.31818C969.269 9 969.525 8.74811 969.847 8.5625C970.169 8.37689 970.528 8.23674 970.926 8.14205C971.324 8.04735 971.729 7.97538 972.142 7.92614C972.665 7.86553 973.089 7.81629 973.415 7.77841C973.741 7.73674 973.977 7.67045 974.125 7.57955C974.273 7.48864 974.347 7.34091 974.347 7.13636V7.09659C974.347 6.60038 974.206 6.21591 973.926 5.94318C973.65 5.67045 973.237 5.53409 972.688 5.53409C972.116 5.53409 971.665 5.66098 971.335 5.91477C971.009 6.16477 970.784 6.44318 970.659 6.75L969.062 6.38636C969.252 5.85606 969.528 5.42803 969.892 5.10227C970.259 4.77273 970.682 4.53409 971.159 4.38636C971.636 4.23485 972.138 4.15909 972.665 4.15909C973.013 4.15909 973.383 4.20076 973.773 4.28409C974.167 4.36364 974.534 4.51136 974.875 4.72727C975.22 4.94318 975.502 5.25189 975.722 5.65341C975.941 6.05114 976.051 6.56818 976.051 7.20455V13H974.392V11.8068H974.324C974.214 12.0265 974.049 12.2424 973.83 12.4545C973.61 12.6667 973.328 12.8428 972.983 12.983C972.638 13.1231 972.225 13.1932 971.744 13.1932ZM972.114 11.8295C972.583 11.8295 972.985 11.7367 973.318 11.5511C973.655 11.3655 973.911 11.1231 974.085 10.8239C974.263 10.5208 974.352 10.197 974.352 9.85227V8.72727C974.292 8.78788 974.174 8.8447 974 8.89773C973.83 8.94697 973.634 8.99053 973.415 9.02841C973.195 9.0625 972.981 9.0947 972.773 9.125C972.564 9.15152 972.39 9.17424 972.25 9.19318C971.92 9.23485 971.619 9.30492 971.347 9.40341C971.078 9.50189 970.862 9.64394 970.699 9.82955C970.54 10.0114 970.46 10.2538 970.46 10.5568C970.46 10.9773 970.616 11.2955 970.926 11.5114C971.237 11.7235 971.633 11.8295 972.114 11.8295ZM980.013 1.36364V13H978.314V1.36364H980.013ZM986.06 13.1761C985.2 13.1761 984.459 12.9924 983.838 12.625C983.221 12.2538 982.743 11.733 982.406 11.0625C982.073 10.3883 981.906 9.59848 981.906 8.69318C981.906 7.79924 982.073 7.01136 982.406 6.32955C982.743 5.64773 983.213 5.11553 983.815 4.73295C984.421 4.35038 985.13 4.15909 985.94 4.15909C986.433 4.15909 986.91 4.24053 987.372 4.40341C987.834 4.56629 988.249 4.82197 988.616 5.17045C988.984 5.51894 989.274 5.97159 989.486 6.52841C989.698 7.08144 989.804 7.75379 989.804 8.54545V9.14773H982.866V7.875H988.139C988.139 7.42803 988.048 7.0322 987.866 6.6875C987.685 6.33902 987.429 6.06439 987.099 5.86364C986.774 5.66288 986.391 5.5625 985.952 5.5625C985.474 5.5625 985.058 5.67992 984.702 5.91477C984.349 6.14583 984.077 6.44886 983.884 6.82386C983.694 7.19508 983.599 7.59848 983.599 8.03409V9.02841C983.599 9.61174 983.702 10.108 983.906 10.517C984.115 10.9261 984.404 11.2386 984.776 11.4545C985.147 11.6667 985.58 11.7727 986.077 11.7727C986.399 11.7727 986.692 11.7273 986.957 11.6364C987.223 11.5417 987.452 11.4015 987.645 11.2159C987.838 11.0303 987.986 10.8011 988.088 10.5284L989.696 10.8182C989.567 11.2917 989.336 11.7064 989.003 12.0625C988.673 12.4148 988.259 12.6894 987.759 12.8864C987.262 13.0795 986.696 13.1761 986.06 13.1761Z" fill="white" fill-opacity="0.7"/>
<path d="M906.24 41.16C904.459 41.16 902.485 41.0533 900.32 40.84V38.68C902.677 38.84 904.437 38.92 905.6 38.92C905.845 38.92 906.037 38.8507 906.176 38.712C906.325 38.5627 906.4 38.3653 906.4 38.12V37.48C906.4 36.84 906.08 36.52 905.44 36.52H902.08V34.28H905.12C905.76 34.28 906.08 33.96 906.08 33.32V33C906.08 32.36 905.76 32.04 905.12 32.04H900.48V29.8H905.92C906.965 29.8 907.733 30.04 908.224 30.52C908.715 30.9893 908.96 31.7093 908.96 32.68C908.96 33.32 908.811 33.8427 908.512 34.248C908.224 34.6427 907.84 34.92 907.36 35.08C908.224 35.3147 908.811 35.8907 909.12 36.808C909.227 37.1387 909.28 37.5227 909.28 37.96V38.12C909.28 39.1653 909.035 39.9333 908.544 40.424C908.053 40.9147 907.285 41.16 906.24 41.16ZM916.966 32.84C916.966 32.2 916.646 31.88 916.006 31.88H914.246C913.606 31.88 913.286 32.2 913.286 32.84V37.96C913.286 38.6 913.606 38.92 914.246 38.92H916.006C916.646 38.92 916.966 38.6 916.966 37.96V32.84ZM919.846 37.96C919.846 39.08 919.59 39.896 919.078 40.408C918.576 40.9093 917.766 41.16 916.646 41.16H913.606C912.486 41.16 911.67 40.9093 911.158 40.408C910.656 39.896 910.406 39.08 910.406 37.96V32.84C910.406 31.72 910.656 30.9093 911.158 30.408C911.67 29.896 912.486 29.64 913.606 29.64H916.646C917.766 29.64 918.576 29.896 919.078 30.408C919.59 30.9093 919.846 31.72 919.846 32.84V37.96ZM920.964 38.6H923.844V41H920.964V38.6ZM931.528 32.84C931.528 32.2 931.208 31.88 930.568 31.88H928.808C928.168 31.88 927.848 32.2 927.848 32.84V37.96C927.848 38.6 928.168 38.92 928.808 38.92H930.568C931.208 38.92 931.528 38.6 931.528 37.96V32.84ZM934.408 37.96C934.408 39.08 934.152 39.896 933.64 40.408C933.139 40.9093 932.328 41.16 931.208 41.16H928.168C927.048 41.16 926.232 40.9093 925.72 40.408C925.219 39.896 924.968 39.08 924.968 37.96V32.84C924.968 31.72 925.219 30.9093 925.72 30.408C926.232 29.896 927.048 29.64 928.168 29.64H931.208C932.328 29.64 933.139 29.896 933.64 30.408C934.152 30.9093 934.408 31.72 934.408 32.84V37.96ZM942.247 32.84C942.247 32.2 941.927 31.88 941.287 31.88H939.527C938.887 31.88 938.567 32.2 938.567 32.84V37.96C938.567 38.6 938.887 38.92 939.527 38.92H941.287C941.927 38.92 942.247 38.6 942.247 37.96V32.84ZM945.127 37.96C945.127 39.08 944.871 39.896 944.359 40.408C943.858 40.9093 943.047 41.16 941.927 41.16H938.887C937.767 41.16 936.951 40.9093 936.439 40.408C935.938 39.896 935.687 39.08 935.687 37.96V32.84C935.687 31.72 935.938 30.9093 936.439 30.408C936.951 29.896 937.767 29.64 938.887 29.64H941.927C943.047 29.64 943.858 29.896 944.359 30.408C944.871 30.9093 945.127 31.72 945.127 32.84V37.96ZM948.166 41L954.566 29.8H956.966L950.726 41H948.166ZM951.526 33.56C951.526 34.2 951.35 34.696 950.998 35.048C950.656 35.3893 950.166 35.56 949.526 35.56H948.086C947.446 35.56 946.95 35.3893 946.598 35.048C946.256 34.696 946.086 34.2 946.086 33.56V31.64C946.086 31 946.256 30.5093 946.598 30.168C946.95 29.816 947.446 29.64 948.086 29.64H949.526C950.166 29.64 950.656 29.816 950.998 30.168C951.35 30.5093 951.526 31 951.526 31.64V33.56ZM949.606 31.64C949.606 31.2667 949.419 31.08 949.046 31.08H948.566C948.192 31.08 948.006 31.2667 948.006 31.64V33.56C948.006 33.9333 948.192 34.12 948.566 34.12H949.046C949.419 34.12 949.606 33.9333 949.606 33.56V31.64ZM959.206 39.16C959.206 39.8 959.03 40.296 958.678 40.648C958.336 40.9893 957.846 41.16 957.206 41.16H955.766C955.126 41.16 954.63 40.9893 954.278 40.648C953.936 40.296 953.766 39.8 953.766 39.16V37.24C953.766 36.6 953.936 36.1093 954.278 35.768C954.63 35.416 955.126 35.24 955.766 35.24H957.206C957.846 35.24 958.336 35.416 958.678 35.768C959.03 36.1093 959.206 36.6 959.206 37.24V39.16ZM957.286 37.24C957.286 36.8667 957.099 36.68 956.726 36.68H956.246C955.872 36.68 955.686 36.8667 955.686 37.24V39.16C955.686 39.5333 955.872 39.72 956.246 39.72H956.726C957.099 39.72 957.286 39.5333 957.286 39.16V37.24Z" fill="white"/>
</svg>
